<svg width="107" height="16" viewBox="0 0 107 16" fill="none" xmlns="http://www.w3.org/2000/svg">
<g clip-path="url(#clip0_41_405)">
<path d="M42.2248 0.5C42.2238 0.568038 42.2221 0.636077 42.2221 0.704115C42.2221 5.5461 42.2221 10.3879 42.2221 15.2299V15.4141C42.0794 15.4553 39.9212 15.4712 39.1474 15.4379C36.773 12.2086 34.392 8.97019 32.0108 5.73197C32.0016 5.7347 31.9922 5.73742 31.9829 5.74015V15.477H28.7948C28.7931 15.4751 28.7891 15.4712 28.7855 15.4669C28.7818 15.4627 28.7763 15.4584 28.7753 15.4534C28.7724 15.4367 28.7695 15.4199 28.7695 15.403C28.7693 11.072 28.7693 6.74112 28.7693 2.39962C28.6574 2.25672 28.5424 2.10939 28.4268 1.96257C28.0823 1.52518 27.7366 1.08864 27.3947 0.649207C27.362 0.607259 27.2911 0.575712 27.3232 0.500171C28.9067 0.5 30.4904 0.5 32.0738 0.5C32.3143 0.829961 32.553 1.16129 32.7957 1.48971C34.8184 4.2266 36.8417 6.9628 38.8651 9.699C38.9037 9.75135 38.9452 9.80148 38.9856 9.85247C38.9944 9.84906 39.0033 9.84565 39.0122 9.84224V0.5C40.083 0.5 41.154 0.5 42.2248 0.5Z" fill="#0E2240"/>
<path d="M75.4461 0.5V15.4352H72.3827C72.3381 15.4125 72.3137 15.359 72.2805 15.3138C69.9858 12.1932 67.6916 9.07216 65.3968 5.9516C65.3534 5.8926 65.3177 5.82729 65.2596 5.78006C65.2577 5.75038 65.2418 5.73725 65.213 5.73981C65.202 5.75465 65.2032 5.76795 65.2143 5.78091C65.192 5.84741 65.2034 5.91613 65.2034 5.98366C65.2027 9.07182 65.2029 12.1598 65.2025 15.248C65.2025 15.3273 65.1984 15.4067 65.1964 15.486C64.1346 15.4872 63.0729 15.4884 62.0111 15.4896C61.9882 15.4117 61.9978 15.3317 61.9978 15.2526C61.9973 11.0799 61.9976 6.90738 61.9964 2.7347C61.9964 2.62778 62.0122 2.51967 61.9823 2.41377L61.9889 2.40149H61.9799C61.9665 2.34335 61.9213 2.30634 61.8869 2.26252C61.4643 1.72537 61.0398 1.18959 60.6194 0.650571C60.5866 0.608452 60.5121 0.577758 60.5444 0.5C62.128 0.5 63.7117 0.5 65.2952 0.5C65.3037 0.514324 65.3109 0.529671 65.3208 0.542972C67.5937 3.61783 69.8669 6.69269 72.1406 9.76704C72.1621 9.7962 72.1751 9.83729 72.2363 9.84821C72.2363 9.78358 72.2363 9.72338 72.2363 9.66319C72.2363 6.68246 72.2363 3.70173 72.2363 0.721168C72.2363 0.647502 72.2346 0.573836 72.2335 0.5C73.3045 0.5 74.3753 0.5 75.4463 0.5L75.4461 0.5Z" fill="#0E2240"/>
<path d="M91.2948 15.4231C91.4747 14.964 91.6562 14.5057 91.8341 14.0458C93.2454 10.3978 94.6559 6.74947 96.0663 3.10098C96.156 2.8689 96.2421 2.63545 96.3308 2.4003C95.9861 1.96325 95.6452 1.53047 95.3041 1.09785C95.181 0.941653 95.0571 0.786137 94.9353 0.628915C94.9049 0.589524 94.8601 0.557125 94.8594 0.5H101.046C101.03 0.573154 101.077 0.629768 101.101 0.690985C102.994 5.56503 104.888 10.4386 106.782 15.3124C106.804 15.3692 106.841 15.4243 106.827 15.491C106.748 15.4899 106.669 15.4882 106.589 15.4882C105.471 15.4872 104.353 15.4864 103.235 15.4853C102.92 14.6489 102.605 13.8125 102.29 12.979H95.8361C95.5187 13.8214 95.2053 14.6534 94.8919 15.4853H91.3093C91.3023 15.4555 91.2986 15.4393 91.2948 15.4231ZM99.0129 3.75919C99.001 3.75971 98.9892 3.76022 98.9772 3.76073C98.2053 5.87776 97.4334 7.99497 96.657 10.1241H101.336C100.557 7.9919 99.7852 5.87555 99.0129 3.75919Z" fill="#0E2240"/>
<path d="M59.5481 15.4782C59.4971 15.4814 59.446 15.4876 59.3951 15.4876C58.4272 15.4881 57.4594 15.4881 56.4915 15.4876C56.4472 15.4876 56.4009 15.498 56.3577 15.4751C56.3242 15.4356 56.3384 15.3882 56.3384 15.3448C56.3377 10.4364 56.3377 5.52788 56.3379 0.619391C56.3379 0.579659 56.3396 0.539927 56.3404 0.500366C57.4114 0.500366 58.4822 0.500366 59.5532 0.500366C59.5513 0.528502 59.5477 0.556639 59.5477 0.584775C59.5477 5.54936 59.5477 10.514 59.5481 15.4785V15.4782Z" fill="#0E2240"/>
<path d="M11.5554 7.79409C13.031 8.16122 13.8937 9.13184 14.2554 10.5519C14.5446 11.6869 14.3592 12.7747 13.7163 13.7636C13.2077 14.5459 12.4645 15.0183 11.5781 15.278C11.1003 15.418 10.6091 15.4855 10.1123 15.4862C7.40696 15.4898 4.70158 15.4879 1.99602 15.4879C1.95073 15.4879 1.90545 15.4879 1.86785 15.4879C1.85606 15.4761 1.85196 15.4724 1.8482 15.4683C1.84444 15.4642 1.83863 15.4601 1.83777 15.4553C1.83487 15.4386 1.8323 15.4216 1.8323 15.4047C1.83213 11.0732 1.83213 6.74197 1.83213 2.39876C1.36457 1.80108 0.892742 1.19811 0.4151 0.587643C0.475083 0.539044 0.538826 0.558142 0.596074 0.558142C1.33655 0.556607 2.07685 0.557119 2.81732 0.557119C5.11838 0.557119 7.41944 0.557119 9.72049 0.557119C10.4454 0.557119 11.1514 0.66523 11.8134 0.970465C13.1223 1.5736 13.8545 2.59503 13.9996 4.02623C14.0753 4.77243 13.9501 5.48709 13.597 6.15196C13.1633 6.96893 12.5084 7.52228 11.6017 7.76101C11.5911 7.76374 11.581 7.76919 11.5714 7.77482C11.567 7.77738 11.5644 7.783 11.5554 7.79426V7.79409ZM5.04746 12.6763C5.10625 12.7058 5.15803 12.6946 5.20776 12.6946C6.53456 12.6952 7.86119 12.6946 9.18799 12.6958C9.34231 12.6958 9.49543 12.6836 9.64701 12.6586C9.99546 12.6009 10.3162 12.4783 10.582 12.2374C10.8885 11.9594 11.0314 11.6032 11.0736 11.2008C11.1538 10.4362 10.7935 9.67171 9.92488 9.39001C9.66752 9.30645 9.40315 9.28138 9.13399 9.28173C7.83009 9.28292 6.52602 9.28207 5.22211 9.28292C5.16691 9.28292 5.10915 9.26945 5.05754 9.2969C5.03687 9.44816 5.02832 12.2914 5.04746 12.6763ZM5.04575 6.49215C5.10915 6.49215 5.15922 6.49215 5.20912 6.49215C6.46723 6.49215 7.7255 6.49181 8.98361 6.49266C9.13775 6.49266 9.29121 6.48311 9.44279 6.4589C10.1727 6.34226 10.7052 5.89293 10.7983 5.13991C10.8909 4.39131 10.5416 3.70564 9.76202 3.45122C9.50927 3.36869 9.25003 3.34414 8.98805 3.3438C7.7185 3.34141 6.44894 3.3426 5.17939 3.34328C5.1353 3.34328 5.08762 3.33135 5.04541 3.37159V6.49232L5.04575 6.49215Z" fill="#0E2240"/>
<path d="M25.0628 6.49213V9.25255C25.0555 9.25937 25.0515 9.26346 25.0471 9.26704C25.0428 9.27062 25.0387 9.27574 25.0338 9.27693C25.0228 9.27966 25.0112 9.28034 24.9999 9.28154C24.9943 9.28205 24.9885 9.28188 24.9829 9.28188C24.9714 9.28188 24.9601 9.28205 24.9487 9.28205C22.9667 9.28222 20.9845 9.28239 19.0025 9.28256C18.9969 9.28256 18.991 9.28256 18.9854 9.28341C18.9799 9.28426 18.9745 9.28597 18.969 9.28767C18.9635 9.28938 18.9582 9.2916 18.9423 9.29757V12.692H26.323C26.323 13.6273 26.323 14.5445 26.323 15.4619C26.1882 15.4986 16.3132 15.5163 15.7564 15.4809C15.752 15.4773 15.7472 15.4741 15.7432 15.47C15.7397 15.466 15.7344 15.4613 15.7344 15.4567C15.7315 10.535 15.7291 5.61343 15.7265 0.691814C15.7265 0.653105 15.7265 0.614397 15.7265 0.56665H26.3638V3.34054H18.9427V6.49196H25.0628V6.49213Z" fill="#0E2240"/>
<path d="M43.584 0.565796H54.9617V3.13489C52.5683 6.29995 50.1612 9.48309 47.7335 12.6935H54.9794V15.4793H43.5859V12.9038C45.929 9.73513 48.2817 6.55352 50.6562 3.34241H43.5844V0.565796H43.584Z" fill="#0E2240"/>
<path d="M84.9477 15.4896C84.6857 15.4896 84.4235 15.4896 84.1616 15.4896C83.8461 15.4461 83.5269 15.439 83.2119 15.3883C81.0628 15.0427 79.2922 14.0712 78.037 12.2616C77.4014 11.3452 77.0349 10.3214 76.8759 9.2207C76.7838 8.58277 76.7553 7.94195 76.8207 7.30198C77.1092 4.48034 78.5339 2.45266 81.1214 1.2573C81.9542 0.872603 82.8396 0.667976 83.7543 0.590729C84.8028 0.502228 85.8363 0.570608 86.8444 0.887097C88.2314 1.32244 89.344 2.14214 90.2127 3.29828C90.3287 3.45261 90.4412 3.60966 90.5514 3.79484C89.7123 4.25815 88.8756 4.71993 88.0439 5.17914C87.9726 5.14129 87.9509 5.07905 87.9145 5.03028C87.2875 4.18688 86.4766 3.61426 85.4395 3.39309C83.6838 3.01897 81.4787 3.7384 80.5028 5.87283C80.1513 6.64137 80.0174 7.45067 80.0487 8.29152C80.0791 9.11037 80.2693 9.88693 80.6793 10.5994C81.3837 11.8232 82.4431 12.5462 83.8401 12.7672C85.0904 12.965 86.2333 12.6678 87.2884 11.9932C87.3743 11.9381 87.4543 11.8735 87.5357 11.8114C87.576 11.7807 87.6131 11.7458 87.65 11.7139V9.96366H86.0002C85.2804 9.06723 84.5635 8.17454 83.8295 7.26037H90.6772V12.7933C90.4577 13.0549 90.1958 13.3062 89.9201 13.5431C88.743 14.555 87.3836 15.167 85.8461 15.3936C85.5472 15.4376 85.2454 15.4444 84.9472 15.4896H84.9477Z" fill="#0E2240"/>
</g>
<defs>
<clipPath id="clip0_41_405">
<rect width="106.415" height="15" fill="white" transform="translate(0.4151 0.5)"/>
</clipPath>
</defs>
</svg>
