<svg width="83" height="20" viewBox="0 0 83 20" fill="none" xmlns="http://www.w3.org/2000/svg">
<g clip-path="url(#clip0_48_945)">
<path d="M47.2081 6.5017C47.9959 6.13851 48.744 5.85644 49.5474 5.73141C53.104 5.17918 55.3307 7.39777 56.0072 9.91777C56.7114 12.5397 56.4414 15.0463 54.763 17.2649C53.5583 18.8569 51.8449 19.613 49.907 19.8735C47.6587 20.1756 45.4492 19.8497 43.2517 19.3853C43.0346 19.3391 43.013 19.2424 43.0197 19.0585C43.1659 14.8179 43.1055 10.5757 43.0883 6.33425C43.0839 5.28114 43.107 4.22283 42.9488 3.17941C42.7803 2.06974 42.4371 1.77428 41.3249 1.65669C41.1511 1.63808 41.0504 1.61501 41.0579 1.40588C41.0646 1.21386 41.0773 1.09107 41.3175 1.04864C43.1868 0.715223 45.0539 0.370639 46.9195 0.0186132C47.2134 -0.0364607 47.2984 0.0275441 47.2917 0.338637C47.2522 2.28557 47.2335 4.23251 47.2081 6.18019C47.2067 6.26652 47.2081 6.35285 47.2081 6.50244V6.5017ZM47.3894 18.583C47.3916 18.7281 47.3633 18.8762 47.5819 18.9201C48.4509 19.0935 49.264 19.0295 49.9644 18.417C50.2941 18.1282 50.5686 17.7956 50.7939 17.4197C51.5532 16.153 51.8464 14.7531 51.9396 13.307C52.0403 11.7546 51.8755 10.2333 51.1594 8.82076C50.3881 7.29878 49.1625 6.79791 47.5304 7.29134C47.2932 7.36279 47.2014 7.45507 47.2037 7.72151C47.2186 9.5196 47.3663 17.1324 47.3887 18.583H47.3894Z" fill="#34639A"/>
<path d="M9.19071 0.366935C11.8254 0.366935 14.46 0.374378 17.0947 0.358004C17.4497 0.355772 17.5139 0.465919 17.5116 0.790409C17.499 2.31536 17.5034 3.84031 17.5243 5.36526C17.5281 5.66296 17.4624 5.83413 17.1536 5.87432C17.0686 5.88549 16.982 5.91153 16.9045 5.948C16.6479 6.06782 16.533 6.00308 16.4442 5.71729C16.1145 4.656 15.6565 3.65648 14.8613 2.84898C14.1042 2.08018 13.1777 1.66787 12.1014 1.64108C10.9832 1.61354 9.86429 1.6314 8.74613 1.61801C8.53726 1.61577 8.4761 1.68127 8.45894 1.88668C8.25977 4.33672 8.21949 6.78899 8.29259 9.24499C8.30005 9.48389 8.38211 9.52929 8.60514 9.51143C9.24889 9.45933 9.89412 9.41393 10.5394 9.39979C11.4255 9.38044 12.0409 8.96143 12.449 8.19933C12.6489 7.82572 12.7757 7.42606 12.8853 7.01822C13.0032 6.58061 13.3605 6.8396 13.6052 6.80313C13.8573 6.76592 13.767 7.00185 13.7678 7.12465C13.7738 9.08349 13.7738 11.0431 13.7678 13.0019C13.7678 13.124 13.8588 13.3592 13.6007 13.316C13.356 13.2751 13.0002 13.5348 12.8794 13.1091C12.7533 12.6678 12.6265 12.2287 12.4072 11.8223C11.9738 11.02 11.2928 10.6107 10.3864 10.5839C9.77776 10.566 9.16833 10.5779 8.55964 10.5638C8.36122 10.5593 8.26723 10.598 8.27395 10.825C8.3284 12.7943 8.25903 14.7688 8.54994 16.7261C8.58053 16.933 8.62976 17.1399 8.69167 17.3401C8.96842 18.2369 9.50847 18.6708 10.4402 18.7579C10.7244 18.7847 11.0086 18.8241 11.2935 18.8331C11.6985 18.8457 11.4994 19.1449 11.5374 19.325C11.5792 19.5207 11.5039 19.6063 11.2808 19.6063C7.8883 19.5996 4.49502 19.6004 1.10249 19.6048C0.911534 19.6048 0.804119 19.5453 0.851859 19.3533C0.896616 19.1717 0.678056 18.8785 1.06818 18.8316C1.38819 18.7929 1.70969 18.7519 2.02447 18.6842C2.61078 18.5592 3.0203 18.2079 3.26945 17.6646C3.49547 17.1712 3.58274 16.6442 3.61855 16.1136C3.87664 12.3239 3.87888 8.53201 3.68493 4.7401C3.64987 4.06209 3.60586 3.38111 3.42236 2.71725C3.18739 1.86807 2.65106 1.38729 1.77682 1.27789C1.56721 1.25184 1.35984 1.20718 1.15023 1.19081C0.918994 1.17518 0.835449 1.07843 0.84067 0.838784C0.851113 0.366935 0.83694 0.366935 1.32404 0.366191C3.94601 0.366191 6.56873 0.366191 9.19071 0.366191V0.366935Z" fill="#34639A"/>
<path d="M22.6519 5.46571C24.6465 5.49846 26.3905 5.94872 27.7877 7.32334C28.8051 8.32434 29.3661 9.56201 29.6137 10.9493C29.8957 12.5278 29.845 14.0907 29.252 15.5956C28.28 18.065 26.4129 19.4441 23.8253 19.8675C22.3975 20.1012 20.9683 20.0447 19.5943 19.5527C17.1073 18.6626 15.8258 16.7923 15.4252 14.2649C15.1933 12.8002 15.2664 11.34 15.8154 9.94455C16.8858 7.2251 18.9588 5.83188 21.8187 5.51706C22.1268 5.48283 22.4386 5.47762 22.6519 5.46497V5.46571ZM25.3238 12.891C25.3022 11.8245 25.2582 10.7595 25.0396 9.71086C24.8487 8.7947 24.5943 7.89864 23.9767 7.16556C23.0331 6.04547 21.5293 6.14967 20.7341 7.37767C20.4268 7.85249 20.2365 8.37941 20.1276 8.92718C19.6741 11.2135 19.6502 13.5095 20.0672 15.801C20.2365 16.7305 20.5297 17.6303 21.1533 18.3776C22.0514 19.453 23.4918 19.3815 24.287 18.2272C24.5279 17.8774 24.6928 17.4904 24.8181 17.0863C25.2433 15.7191 25.2761 14.3051 25.3246 12.8925L25.3238 12.891Z" fill="#34639A"/>
<path d="M66.1483 12.1162C64.781 12.1162 63.4137 12.1147 62.0464 12.1185C61.9144 12.1185 61.7309 12.0507 61.7383 12.3082C61.7868 14.0364 62.1859 15.6343 63.5405 16.8317C65.1443 18.2495 67.7722 18.3738 69.6542 17.1466C69.8668 17.0081 69.9951 16.9538 70.201 17.1838C70.4218 17.4294 70.2681 17.5537 70.1301 17.707C68.9158 19.0548 67.3649 19.7492 65.5904 19.933C63.7904 20.1198 62.0665 19.8288 60.518 18.836C58.6054 17.6087 57.617 15.8047 57.4358 13.5809C57.2463 11.2544 57.8289 9.14372 59.5251 7.44983C61.0647 5.91223 62.9945 5.38382 65.1159 5.48652C68.5271 5.651 70.0623 8.0095 70.4636 10.6091C70.524 10.9999 70.5255 11.4003 70.5799 11.7925C70.6187 12.0731 70.5031 12.1229 70.2525 12.1207C68.8852 12.111 67.5179 12.1162 66.1506 12.1162H66.1483ZM65.9484 11.0289C66.1677 11.0334 66.2147 10.95 66.2169 10.7483C66.2244 10.1894 66.2013 9.6312 66.12 9.07972C66.017 8.38013 65.8761 7.6865 65.4762 7.08143C64.9459 6.27839 64.0254 6.16304 63.3041 6.80383C63.0131 7.06208 62.7908 7.37317 62.6111 7.71701C62.0971 8.70388 61.9144 9.77186 61.8293 10.8652C61.8114 11.0988 61.9166 11.1271 62.112 11.1241C62.7453 11.1145 65.3032 11.0162 65.9484 11.0281V11.0289Z" fill="#34639A"/>
<path d="M71.1782 15.3396C71.1715 15.1371 71.2543 15.0508 71.4221 15.0575C71.6078 15.0649 71.8398 14.8097 71.9756 15.1773C72.2165 15.8293 72.5373 16.4455 72.9386 17.0163C73.7405 18.158 74.8019 18.8152 76.2394 18.7579C77.6641 18.7006 78.6077 17.5775 78.3825 16.217C78.2952 15.6879 77.9714 15.3262 77.5515 15.0352C76.8615 14.5566 76.0782 14.2746 75.295 13.9955C74.7102 13.7871 74.1381 13.5556 73.5838 13.2728C70.9708 11.9414 71.1081 8.66001 72.6991 7.10975C73.689 6.14522 74.8967 5.66964 76.2356 5.54164C77.8566 5.38683 79.4581 5.53419 81.0178 6.04549C81.3453 6.15266 81.4833 6.32234 81.493 6.67437C81.5199 7.60318 81.5654 8.53274 81.6429 9.45932C81.6817 9.91777 81.3237 9.80837 81.1096 9.89917C80.844 10.0115 80.8381 9.7719 80.7881 9.62157C80.5472 8.89965 80.2406 8.21272 79.743 7.62551C78.9777 6.72349 77.9908 6.38784 76.8413 6.57018C76.1215 6.68405 75.624 7.12613 75.4121 7.82794C75.198 8.53646 75.2682 9.20405 75.8373 9.74958C76.4691 10.3554 77.265 10.6829 78.0475 11.0289C78.6823 11.3095 79.3358 11.5492 79.9638 11.8439C81.273 12.4594 82.2337 13.3606 82.3277 14.9124C82.4344 16.68 81.8011 18.0888 80.2719 19.0429C79.4014 19.5862 78.4302 19.846 77.4194 19.9368C75.477 20.1102 73.5808 19.8482 71.7197 19.2863C71.4184 19.1955 71.2714 19.0623 71.2886 18.7221C71.3169 18.1789 71.1968 15.9216 71.1774 15.3396H71.1782Z" fill="#34639A"/>
<path d="M36.0213 8.51711C36.0892 8.38985 36.1601 8.24993 36.2376 8.11373C37.0321 6.72274 38.1249 5.72769 39.7726 5.47912C40.4261 5.38088 41.0579 5.47093 41.6718 5.71281C41.8866 5.79765 41.9448 5.8944 41.8508 6.12661C41.413 7.20427 40.987 8.28788 40.5738 9.37522C40.4858 9.60742 40.4164 9.65133 40.1889 9.51812C39.2527 8.97333 38.2472 8.78355 37.1783 9.01203C36.9858 9.05296 36.7978 9.12516 36.6166 9.20256C36.2182 9.37373 36.0206 9.6491 35.9997 10.1172C35.8967 12.4363 35.8826 14.7524 36.0795 17.067C36.0967 17.2642 36.1235 17.4614 36.1638 17.6549C36.3063 18.3366 36.6524 18.6559 37.3483 18.7467C37.6318 18.7839 37.919 18.8383 38.201 18.8226C38.6433 18.7981 38.5299 19.0928 38.5538 19.3354C38.5866 19.6778 38.3486 19.6011 38.1651 19.6011C35.4805 19.6026 32.7959 19.6041 30.1113 19.5974C29.9718 19.5974 29.7122 19.7142 29.7435 19.4024C29.7659 19.1769 29.5719 18.8784 30.0449 18.801C31.3465 18.5897 31.4957 18.3805 31.618 17.0804C31.8791 14.2939 31.8702 11.5104 31.6024 8.7255C31.5039 7.70068 31.1847 7.37842 30.0665 7.23627C29.8964 7.21469 29.7263 7.24892 29.7286 6.97058C29.7308 6.73093 29.8121 6.66172 30.0381 6.62004C31.9164 6.27025 33.7925 5.90929 35.6677 5.54089C35.9318 5.48879 36.0392 5.5074 36.0303 5.82593C36.0064 6.71753 36.0221 7.60988 36.0221 8.51562L36.0213 8.51711Z" fill="#34639A"/>
</g>
<defs>
<clipPath id="clip0_48_945">
<rect width="81.5094" height="20" fill="white" transform="translate(0.8302)"/>
</clipPath>
</defs>
</svg>
