<svg width="69" height="22" viewBox="0 0 69 22" fill="none" xmlns="http://www.w3.org/2000/svg">
<g clip-path="url(#clip0_41_402)">
<path d="M0.50943 0.101089C0.659647 0.0518473 0.687433 0.196982 0.75082 0.26523C2.03071 1.63451 3.30626 3.0081 4.5818 4.3817C4.6695 4.47586 4.74765 4.57867 4.85271 4.70307C6.30366 3.14114 7.719 1.61809 9.18645 0.0380249V8.78412H7.8232V3.78475C6.79773 4.88622 5.85127 5.90129 4.86748 6.95784C3.90886 5.9298 2.95633 4.90868 1.92651 3.80375V8.82731H0.50943V0.101089Z" fill="#050505"/>
<path d="M68.5849 6.92584C68.1768 8.34004 67.1209 8.85147 65.7568 8.93786C64.6601 9.00697 63.6364 8.79272 62.6986 8.207V6.74874C62.8983 6.74874 63.0103 6.89647 63.1475 6.98113C64.0271 7.52279 64.9736 7.75691 66.0034 7.61437C66.7814 7.50724 67.1774 7.06925 67.127 6.40318C67.0931 5.96001 66.8135 5.7112 66.4515 5.5246C65.9626 5.27234 65.4321 5.12634 64.9198 4.93456C64.4743 4.76783 64.0315 4.5985 63.6329 4.3307C62.8758 3.82013 62.5883 3.08582 62.637 2.21242C62.6865 1.3252 63.1614 0.695417 63.969 0.35245C65.4077 -0.259189 66.7849 -0.0302559 68.1177 0.706648V2.20551C67.5082 1.79775 66.9143 1.45737 66.2187 1.35457C65.7273 1.282 65.2376 1.26041 64.7626 1.43146C64.3875 1.56709 64.1157 1.80725 64.0706 2.23229C64.0228 2.68411 64.206 3.01325 64.6046 3.22664C65.116 3.49963 65.6769 3.64476 66.2127 3.85469C66.5079 3.97045 66.804 4.08189 67.0949 4.20802C67.8842 4.55099 68.3348 5.18077 68.584 5.97642V6.92671L68.5849 6.92584Z" fill="#050505"/>
<path d="M38.4276 21.8445V13.317C39.8352 13.3662 41.2236 13.215 42.6016 13.4111C44.3816 13.6643 45.6737 15.1104 45.8274 17.0075C45.9333 18.3224 45.7327 19.5638 44.8123 20.5953C44.1012 21.3927 43.1747 21.7858 42.1345 21.8315C40.9101 21.886 39.6815 21.8445 38.4276 21.8445ZM39.8838 14.6241V20.5616C40.5741 20.5616 41.2384 20.5936 41.8991 20.5547C43.2416 20.4752 44.1238 19.6658 44.3417 18.3561C44.4251 17.8568 44.4233 17.3531 44.3495 16.8538C44.1611 15.5795 43.2867 14.7217 42.0233 14.6327C41.3209 14.5835 40.6123 14.6241 39.8847 14.6241H39.8838Z" fill="#050505"/>
<path d="M23.4545 0.177103C24.7865 0.243623 26.0933 0.0544296 27.381 0.279907C29.247 0.607324 30.1275 2.5269 29.2131 4.19077C28.9127 4.73675 28.4707 5.02702 27.5278 5.262C28.5541 6.43776 29.5579 7.58675 30.605 8.7867H28.95C27.9663 7.64808 26.959 6.48269 25.9509 5.31643H24.9176V8.78584H23.4554V0.177103H23.4545ZM24.9263 4.08451C25.4447 4.08451 25.9448 4.08537 26.4458 4.08451C26.59 4.08451 26.735 4.08451 26.8774 4.06637C27.6328 3.96875 28.0809 3.45905 28.06 2.73078C28.0401 2.02152 27.5816 1.52824 26.8357 1.48677C26.2071 1.45135 25.5758 1.47986 24.9263 1.47986V4.08624V4.08451Z" fill="#050505"/>
<path d="M12.3888 21.835V13.2167C14.3581 15.0784 16.2718 16.8892 18.2577 18.7664V13.3524H19.6426V21.9646C17.6898 20.0856 15.7769 18.2446 13.7998 16.3432V21.835H12.3879H12.3888Z" fill="#050505"/>
<path d="M57.8786 13.3144C59.182 13.3731 60.4731 13.1986 61.7478 13.4103C63.6182 13.7204 64.503 15.6711 63.5591 17.3177C63.1988 17.9458 62.604 18.1971 61.9024 18.3535C62.9218 19.518 63.9169 20.6549 64.9467 21.8316H63.3004C62.3374 20.7154 61.3493 19.5707 60.3568 18.4209H59.3218V21.8359H57.9134C57.8283 21.5283 57.7909 14.364 57.8778 13.3153L57.8786 13.3144ZM59.3131 17.1959C60.0564 17.1648 60.7614 17.2754 61.4578 17.1199C62.0908 16.979 62.4312 16.5333 62.4329 15.8836C62.4347 15.2478 62.083 14.7623 61.4561 14.6457C60.751 14.5144 60.0346 14.6042 59.3131 14.5852V17.195V17.1959Z" fill="#050505"/>
<path d="M36.8612 4.31433C38.1993 5.80455 39.5069 7.26195 40.8624 8.7729H39.0025C37.8823 7.53148 36.7249 6.24773 35.5058 4.8966V8.78327H34.0488V0.21082H35.4789V3.9273C36.6858 2.62628 37.8129 1.41077 38.9313 0.204773H40.7469C39.4305 1.59737 38.1585 2.94246 36.8603 4.3152L36.8612 4.31433Z" fill="#050505"/>
<path d="M45.9403 1.45136V3.53681H49.3423V4.80674H45.9559V7.49864H49.7235V8.79794H44.5032V0.189209H49.7243V1.45136H45.9403Z" fill="#050505"/>
<path d="M50.6048 17.9086V20.5538H54.3194V21.835H49.1695V13.3575H54.322V14.6085H50.5996V16.6654H53.9495V17.9094H50.6048V17.9086Z" fill="#050505"/>
<path d="M16.2267 0.00518799C17.5917 2.97786 18.9106 5.85291 20.2487 8.76769H18.7639C18.6007 8.41263 18.4339 8.05066 18.2655 7.68437H14.1723C14.0073 8.04548 13.8467 8.39622 13.6773 8.76597H12.2047C13.5401 5.85895 14.8626 2.97786 16.2267 0.00518799ZM14.7419 6.38593H17.6994C17.2079 5.27841 16.7312 4.202 16.2189 3.04697C15.704 4.21064 15.2273 5.28792 14.7419 6.38593Z" fill="#050505"/>
<path d="M28.7312 13.8759V15.3532C28.0904 14.8971 27.4461 14.5679 26.6994 14.4815C26.2617 14.4305 25.8345 14.4452 25.4186 14.5973C25.034 14.7381 24.7865 14.9981 24.7509 15.4154C24.7162 15.8301 24.9011 16.1402 25.2615 16.3398C25.7425 16.6058 26.2774 16.7423 26.7862 16.9419C27.0945 17.0628 27.4123 17.1622 27.711 17.303C28.779 17.8075 29.247 18.5911 29.181 19.7496C29.1194 20.8467 28.4594 21.4851 27.4704 21.7797C26.062 22.2004 24.7075 22.0121 23.4267 21.2726V19.766C24.005 20.1694 24.5894 20.4899 25.2554 20.6212C25.8424 20.7361 26.4302 20.7767 27.0111 20.5858C27.4253 20.4493 27.7162 20.1979 27.7726 19.7427C27.8317 19.2606 27.6363 18.9099 27.2125 18.6723C26.7445 18.4097 26.2261 18.2732 25.7321 18.0762C25.3578 17.9267 24.9723 17.7989 24.6172 17.614C23.6612 17.1147 23.2148 16.2275 23.3564 15.1804C23.4797 14.2725 24.2091 13.5356 25.2215 13.3196C26.4571 13.0552 27.6311 13.2081 28.7312 13.8777V13.8759Z" fill="#050505"/>
<path d="M55.8225 1.48766H52.9701V0.216003H60.1258V1.4747H57.2804V8.78327H55.8225V1.48766Z" fill="#050505"/>
<path d="M6.52855 13.3325H7.93261V21.8281H6.52855V13.3325Z" fill="#050505"/>
<path d="M33.9072 21.8463H32.4875V13.3524H33.9072V21.8463Z" fill="#050505"/>
</g>
<defs>
<clipPath id="clip0_41_402">
<rect width="68.0755" height="22" fill="white" transform="translate(0.50943)"/>
</clipPath>
</defs>
</svg>
