<svg width="73" height="20" viewBox="0 0 73 20" fill="none" xmlns="http://www.w3.org/2000/svg">
<g clip-path="url(#clip0_41_403)">
<path d="M5.76533 0C5.95565 0.101685 6.17413 0.091573 6.37628 0.153933C7.78569 0.588202 8.78574 1.47472 9.36516 2.8264C9.60672 3.39045 9.71427 3.98371 9.70808 4.59831C9.70245 5.16798 9.70695 5.7382 9.70695 6.33371C8.76322 6.49494 7.82905 6.65506 6.91515 6.8118C6.81605 6.73539 6.84871 6.65449 6.84758 6.58483C6.84139 6.04213 6.83914 5.49944 6.83463 4.95618C6.83182 4.62809 6.78452 4.30281 6.7085 3.98652C6.57955 3.44831 6.25015 3.08034 5.70733 2.91461C5.19323 2.7573 4.69546 2.78146 4.20895 3.01573C4.00736 3.11292 3.8587 3.26124 3.74778 3.45225C3.51804 3.84944 3.40992 4.28034 3.40542 4.73539C3.39866 5.43708 3.4026 6.13933 3.4026 6.84157C3.4026 9.60281 3.4026 12.364 3.4026 15.1253C3.4026 15.5989 3.48819 16.05 3.70667 16.4758C3.85138 16.7579 4.06986 16.9522 4.36211 17.0567C4.85481 17.2331 5.34977 17.2343 5.84134 17.0393C6.31434 16.8517 6.60039 16.5 6.71075 16.0152C6.78283 15.6978 6.83351 15.3736 6.83632 15.0455C6.84083 14.5213 6.84364 13.9972 6.84984 13.473C6.85096 13.391 6.829 13.3056 6.887 13.1921C7.81328 13.3331 8.74407 13.5056 9.6681 13.6584C9.7306 13.7365 9.70695 13.8146 9.70752 13.8865C9.70921 14.4202 9.72159 14.9539 9.70583 15.4871C9.65459 17.1972 8.89047 18.5006 7.42813 19.3933C6.93655 19.6933 6.40612 19.8927 5.82896 19.9539C5.80643 19.9562 5.78672 19.9837 5.76589 19.9994H4.63971C4.61888 19.9837 4.59917 19.9551 4.57777 19.9545C4.24893 19.941 3.93303 19.8579 3.61714 19.7787C2.10919 19.4 0.923881 18.0843 0.685694 16.5478C0.658103 16.3691 0.6795 16.1781 0.585464 16.0112V3.98876C0.677811 3.81124 0.654161 3.61124 0.690199 3.42303C0.890659 2.39101 1.39293 1.54438 2.2218 0.894382C2.77926 0.456742 3.42625 0.233708 4.11547 0.10618C4.25343 0.0808989 4.40715 0.101124 4.52709 0H5.76589L5.76533 0Z" fill="#1499A4"/>
<path d="M27.4443 1.24813e-05C27.6346 0.0899001 27.8458 0.0545069 28.0457 0.104507C29.8706 0.560687 31.0678 1.67248 31.5937 3.47866C31.6894 3.80788 31.7209 4.15619 31.7181 4.50394C31.7147 4.93372 31.717 5.36406 31.717 5.79158C31.507 5.85114 29.5964 5.87192 28.9168 5.82192C28.8813 5.64552 28.9055 5.46069 28.8999 5.2781C28.8863 4.84776 28.8419 4.42305 28.6831 4.01743C28.6183 3.8517 28.5389 3.69439 28.4432 3.54383C28.2551 3.24777 27.9938 3.04271 27.6616 2.93821C27.1875 2.78934 26.7072 2.75844 26.2286 2.91968C25.6458 3.11574 25.3 3.54608 25.1463 4.11518C24.9239 4.93821 24.9594 5.77698 25.0815 6.6135C25.0962 6.71406 25.1294 6.81237 25.1542 6.91125C24.72 6.96687 24.2865 7.02473 23.8518 7.07698C23.3619 7.13597 22.8714 7.19046 22.381 7.24664C22.2678 6.98541 22.2565 6.7017 22.2227 6.42754C22.0752 5.22529 22.1619 4.0399 22.6068 2.90563C23.202 1.38709 24.2966 0.437091 25.9132 0.100012C26.1418 0.0522597 26.38 0.0910237 26.6002 -0.000549316H27.4448L27.4443 1.24813e-05Z" fill="#1499A4"/>
<path d="M31.6962 13.8197C31.7294 14.2118 31.7091 14.6011 31.6821 14.9938C31.6505 15.4612 31.588 15.9219 31.494 16.3786C31.3138 17.2534 30.9715 18.0517 30.3436 18.7067C29.727 19.35 28.9601 19.7067 28.0969 19.8916C27.8795 19.9382 27.6509 19.9039 27.4437 19.9994H26.2612C26.1176 19.8949 25.9408 19.9286 25.782 19.8972C23.925 19.527 22.4806 18.1017 22.1112 16.2444C22.0639 16.0079 22.0307 15.7663 22.0352 15.5208C22.0431 15.1191 22.0375 14.7168 22.0375 14.2955H24.8349C24.8732 14.5764 24.8535 14.864 24.8496 15.15C24.8456 15.464 24.9081 15.7624 25.023 16.05C25.2758 16.6815 25.7212 17.0601 26.4178 17.1506C26.7871 17.1983 27.1481 17.1904 27.5056 17.1236C28.1431 17.0045 28.5547 16.6174 28.7321 15.9938C28.8008 15.7517 28.8413 15.5028 28.8503 15.2494C28.8644 14.8388 28.8779 14.4275 28.897 14.0168C28.9049 13.8494 28.8244 13.6848 28.8841 13.5168C29.182 13.5433 29.4827 13.5528 29.7766 13.6022C29.9984 13.6393 30.222 13.6477 30.4433 13.6798C30.8583 13.7404 31.2778 13.7736 31.695 13.8185L31.6962 13.8197Z" fill="#1499A4"/>
<path d="M54.1319 16.3989C54.0987 16.8562 53.9072 17.2612 53.6887 17.6494C52.9635 18.9393 51.8204 19.6404 50.3975 19.9354C50.2916 19.9573 50.1728 19.9157 50.0805 20H49.0106C48.7786 19.9039 48.5252 19.9056 48.2853 19.8365C46.6113 19.3556 45.484 18.3174 44.9958 16.632C44.8736 16.2107 44.8083 15.7758 44.8454 15.3331C45.1433 15.3466 45.4361 15.4045 45.7312 15.4387C46.3686 15.5135 47.0082 15.573 47.6468 15.6387C47.6828 15.7146 47.7003 15.7955 47.7206 15.8769C47.8056 16.2191 47.9706 16.5163 48.2544 16.7371C48.6181 17.0208 49.0371 17.1848 49.4932 17.1786C50.3147 17.168 50.9786 16.8635 51.3294 16.0635C51.5918 16.1376 51.8655 16.1292 52.1329 16.1663C52.7974 16.2578 53.4652 16.3225 54.1319 16.3977V16.3989Z" fill="#1499A4"/>
<path d="M49.8552 0C50.1734 0.0691011 50.5017 0.0747191 50.8181 0.16573C52.4173 0.623595 53.5147 1.60899 54.0418 3.19719C54.0846 3.32697 54.1505 3.45674 54.128 3.60225C53.1949 3.71348 52.2619 3.82472 51.3294 3.93539C51.1943 3.64326 51.0242 3.38146 50.7483 3.19663C50.2314 2.85056 49.6655 2.72472 49.0658 2.87809C48.3692 3.05618 47.8501 3.44494 47.7059 4.20337C47.6958 4.2573 47.6665 4.30787 47.6462 4.36011C47.1558 4.41011 46.6648 4.45787 46.1749 4.51124C45.7317 4.55955 45.2891 4.61461 44.8465 4.66685C44.8268 3.24101 45.346 2.05281 46.4294 1.1191C47.0961 0.544382 47.8839 0.226405 48.7409 0.061236C48.7814 0.0533708 48.8394 0.0707865 48.8417 0L49.8552 0Z" fill="#1499A4"/>
<path d="M72.6604 1.40448C72.563 1.43875 72.5849 1.54212 72.5472 1.6101C72.3287 2.00279 71.8512 2.2247 71.4267 2.1174C70.9835 2.0056 70.6845 1.61628 70.6845 1.15167C70.6845 0.686501 70.9807 0.284254 71.4272 0.18931C71.8788 0.0932429 72.3045 0.260659 72.5573 0.719647C72.5906 0.779198 72.5686 0.873018 72.6598 0.899423V1.40504L72.6604 1.40448ZM72.443 1.13594C72.4385 0.692681 72.0736 0.322456 71.6412 0.344366C71.1997 0.366838 70.8771 0.688187 70.876 1.1483C70.8748 1.59043 71.1744 1.94718 71.6688 1.95223C72.1913 1.95785 72.4746 1.48538 72.443 1.13594Z" fill="#1499A4"/>
<path d="M31.6962 13.8197C31.2789 13.7747 30.8594 13.7416 30.4444 13.6809C30.2226 13.6483 29.999 13.6405 29.7777 13.6034C29.4838 13.554 29.1831 13.5444 28.8852 13.518C28.8238 13.2922 28.8447 13.0579 28.8075 12.8275C28.7185 12.2736 28.4556 11.8596 27.9482 11.6C27.2506 11.2433 26.514 10.9781 25.7939 10.6736C25.2195 10.4309 24.6429 10.1995 24.1102 9.8635C23.2256 9.3062 22.6845 8.518 22.4333 7.51743C22.4114 7.42867 22.3556 7.34496 22.381 7.24665C22.8714 7.19047 23.3619 7.13597 23.8518 7.07699C24.2859 7.02474 24.72 6.96687 25.1542 6.91125C25.4599 7.44272 25.9566 7.72193 26.505 7.93991C27.3716 8.28429 28.2371 8.63092 29.0981 8.98878C29.901 9.32305 30.5857 9.80788 31.0385 10.5742C31.2879 10.9961 31.4439 11.4556 31.5407 11.9298C31.659 12.5056 31.6703 13.0955 31.7114 13.6815C31.7147 13.727 31.7024 13.7736 31.6967 13.8197H31.6962Z" fill="#E66A38"/>
<path d="M14.2798 8.15674C14.2747 8.08258 14.2646 8.00842 14.2646 7.93371C14.264 5.40562 14.264 2.87809 14.264 0.349997V0.211795C14.4797 0.153368 16.098 0.133705 17.0418 0.176963C17.1065 0.226401 17.0812 0.297188 17.0812 0.358986C17.0823 2.79326 17.0823 5.22753 17.0817 7.6618C17.0817 7.72696 17.0733 7.79213 17.0694 7.8573C16.6268 7.90112 16.183 7.93483 15.7421 7.99213C15.2556 8.05505 14.7691 8.11404 14.2804 8.15674H14.2798Z" fill="#1499A4"/>
<path d="M17.0688 12.1438C17.0733 12.2185 17.0812 12.2927 17.0812 12.3674C17.0817 14.7831 17.0817 17.1989 17.0812 19.6146C17.0812 19.6781 17.0992 19.7449 17.0547 19.8191H14.2961C14.2466 19.7528 14.2652 19.6859 14.2652 19.623C14.264 17.1045 14.264 14.5854 14.2652 12.0668C14.2652 11.9927 14.2747 11.918 14.2798 11.8438C14.7224 11.8876 15.1661 11.9213 15.607 11.9786C16.0935 12.0421 16.58 12.105 17.0693 12.1438H17.0688Z" fill="#1499A4"/>
<path d="M17.0688 12.1438C16.5795 12.1051 16.0929 12.0421 15.6064 11.9786C15.1655 11.9213 14.7218 11.8876 14.2792 11.8438C14.2742 11.7792 14.2646 11.714 14.2646 11.6494C14.2635 10.55 14.2635 9.45056 14.2646 8.35112C14.2646 8.28651 14.2747 8.22134 14.2798 8.15674C14.7686 8.11404 15.2551 8.05449 15.7416 7.99213C16.1825 7.93539 16.6262 7.90168 17.0688 7.8573C17.0733 7.92247 17.0812 7.98708 17.0812 8.05224C17.0817 9.35112 17.0817 10.65 17.0812 11.9489C17.0812 12.014 17.0727 12.0786 17.0688 12.1438Z" fill="#E66A38"/>
<path d="M44.8465 4.66685C45.2891 4.6146 45.7317 4.56011 46.1749 4.51123C46.6648 4.45786 47.1558 4.41011 47.6462 4.36011C47.6479 4.5 47.6507 4.63988 47.6507 4.77977C47.6507 8.25955 47.6507 11.7399 47.6507 15.2197C47.6507 15.3595 47.6479 15.4994 47.6468 15.6393C47.0083 15.5736 46.3686 15.514 45.7312 15.4393C45.4361 15.4045 45.1433 15.3472 44.8454 15.3337C44.8415 15.2404 44.8342 15.1472 44.8342 15.0539C44.8336 11.6854 44.8336 8.31629 44.8342 4.94775C44.8342 4.85449 44.842 4.76123 44.8465 4.66797V4.66685Z" fill="#E66A38"/>
<path d="M36.6829 14.3905C36.6784 14.3163 36.6705 14.2416 36.6705 14.1674C36.6699 11.3899 36.6699 8.61182 36.6705 5.83429C36.6705 5.76013 36.6784 5.68541 36.6823 5.61126C36.7921 5.59553 36.9019 5.57699 37.0123 5.56575C37.2522 5.54103 37.4932 5.52362 37.733 5.49553C38.313 5.42755 38.8924 5.35564 39.4719 5.28485C39.4775 5.37811 39.4876 5.47081 39.4876 5.56406C39.4882 8.52193 39.4882 11.4798 39.4876 14.4371C39.4876 14.5304 39.4775 14.6231 39.4719 14.7163C38.7714 14.6393 38.0692 14.5742 37.371 14.4781C37.1418 14.4466 36.9064 14.4607 36.6823 14.3905H36.6829Z" fill="#E66A38"/>
<path d="M39.4724 5.28426C38.893 5.35449 38.3136 5.42696 37.7336 5.49494C37.4937 5.52303 37.2527 5.53988 37.0129 5.56516C36.9025 5.5764 36.7927 5.5955 36.6829 5.61067C36.6784 5.5455 36.6699 5.48033 36.6699 5.41516C36.6694 3.73089 36.6694 2.04662 36.6694 0.362917V0.184265H39.4527C39.4995 0.224153 39.4876 0.273591 39.4876 0.317973C39.4882 1.91797 39.4882 3.51797 39.4876 5.11797C39.4876 5.17359 39.4781 5.22921 39.4724 5.28483V5.28426Z" fill="#1499A4"/>
<path d="M36.6829 14.3904C36.907 14.4601 37.1424 14.4461 37.3715 14.4781C38.0692 14.5741 38.7719 14.6393 39.4724 14.7163C39.4775 14.7815 39.4876 14.8461 39.4876 14.9112C39.4882 16.4927 39.4882 18.0741 39.4882 19.655V19.7899C39.2691 19.8466 37.3513 19.8657 36.7093 19.8202C36.6598 19.7899 36.6699 19.7399 36.6699 19.6955C36.6694 17.9736 36.6694 16.2522 36.6699 14.5303C36.6699 14.4837 36.6784 14.4376 36.6829 14.391V14.3904Z" fill="#1499A4"/>
<path d="M65.8656 17.7478C65.6189 17.1641 65.4207 16.5624 65.2034 15.968C64.4128 13.809 63.6245 11.6489 62.8356 9.48934C62.6757 9.05226 62.5157 8.61519 62.3586 8.17698C62.3395 8.12361 62.3243 8.07305 62.2438 8.03092V8.35002C62.2438 11.2337 62.2438 14.1174 62.2438 17.0011C62.2438 17.1039 62.2365 17.2062 62.2325 17.309C61.9645 17.2848 61.6953 17.2714 61.429 17.2343C60.7685 17.1427 60.1057 17.068 59.4413 17.009C59.4362 16.9068 59.4266 16.8045 59.4266 16.7017C59.4261 12.2337 59.4261 7.76575 59.4266 3.29721C59.4266 3.19496 59.4362 3.09271 59.4413 2.9899C59.912 2.94271 60.3828 2.89889 60.8529 2.84721C61.2668 2.8017 61.6801 2.74777 62.0934 2.69721C62.3874 2.66125 62.6813 2.62417 62.9758 2.58766C63.0895 2.74889 63.1318 2.94103 63.1971 3.12193C63.9736 5.28316 64.7461 7.44552 65.5204 9.60788C65.7805 10.3343 66.0418 11.0607 66.3076 11.7848C66.3341 11.8573 66.3346 11.9534 66.4591 12.0073V11.7034C66.4591 8.64552 66.4591 5.58766 66.4591 2.52979C66.4591 2.41799 66.4664 2.30564 66.4703 2.19384C66.7192 2.1708 66.9681 2.1517 67.2164 2.12361C67.8961 2.04721 68.5757 1.96743 69.2548 1.88934C69.2936 1.98878 69.2762 2.09328 69.2762 2.19496C69.2773 7.39777 69.2773 12.6006 69.2762 17.8034C69.2762 17.9051 69.2942 18.0096 69.2548 18.109C68.9856 18.0826 68.7165 18.0579 68.4479 18.0287C68.0779 17.9888 67.7074 17.9489 67.338 17.9034C66.8482 17.8433 66.3605 17.7697 65.8667 17.7461L65.8656 17.7478Z" fill="#E66A38"/>
<path d="M51.3289 3.93593C52.2619 3.82469 53.1949 3.71346 54.1274 3.60278C54.2192 3.73143 54.2147 3.89042 54.2288 4.03256C54.2564 4.31009 54.2924 4.58761 54.2924 4.86908C54.289 8.29267 54.2907 11.7157 54.2901 15.1393C54.2901 15.541 54.2395 15.9387 54.1787 16.3348C54.1753 16.3584 54.1483 16.3781 54.1319 16.3994C53.4652 16.3241 52.7974 16.2601 52.133 16.168C51.8655 16.1309 51.5918 16.1393 51.3294 16.0651C51.4156 15.7292 51.4465 15.3893 51.446 15.0421C51.442 11.6814 51.442 8.3202 51.446 4.95952C51.446 4.61233 51.4161 4.27188 51.3289 3.93649V3.93593Z" fill="#E66A38"/>
<path d="M62.9747 2.58876C62.6807 2.62528 62.3868 2.66236 62.0923 2.69831C61.679 2.74887 61.2657 2.80281 60.8518 2.84831C60.3816 2.9 59.9109 2.94382 59.4401 2.99101C59.4052 2.71179 59.4278 2.4309 59.4255 2.15112C59.4216 1.58988 59.4244 1.02865 59.4244 0.467413C59.4244 0.376401 59.4244 0.284828 59.4244 0.181458H62.1317C62.2404 0.478649 62.3536 0.781458 62.4634 1.08595C62.621 1.52359 62.7753 1.96292 62.9341 2.40056C62.9566 2.46236 62.9854 2.52078 62.9741 2.58876H62.9747Z" fill="#1499A4"/>
<path d="M59.4407 17.0095C60.1052 17.0679 60.7674 17.1432 61.4284 17.2348C61.6948 17.2713 61.9639 17.2854 62.2319 17.3095V19.8157H59.4548C59.4176 19.7915 59.4255 19.7427 59.4255 19.6972C59.4255 18.8472 59.4249 17.9977 59.4255 17.1477C59.4255 17.1017 59.4351 17.0556 59.4407 17.0095Z" fill="#1499A4"/>
<path d="M65.8656 17.7477C66.3588 17.7713 66.847 17.8455 67.3369 17.905C67.7063 17.9506 68.0768 17.9904 68.4468 18.0303C68.7154 18.059 68.9845 18.0837 69.2537 18.1107C69.2999 18.4359 69.2666 18.7629 69.2745 19.0888C69.2801 19.3219 69.2756 19.555 69.2756 19.7859C69.0769 19.8444 67.0498 19.8618 66.6015 19.8101C66.3617 19.1258 66.0829 18.4483 65.8656 17.7477Z" fill="#1499A4"/>
<path d="M69.2537 1.89047C68.574 1.96856 67.895 2.04833 67.2153 2.12474C66.967 2.15283 66.7181 2.17193 66.4692 2.19496V0.206761C66.6584 0.157885 68.9057 0.146087 69.2756 0.197211C69.2756 0.395525 69.2796 0.598896 69.2745 0.801705C69.2655 1.16463 69.301 1.52867 69.2542 1.89103L69.2537 1.89047Z" fill="#1499A4"/>
<path d="M72.1198 1.7163C72.0534 1.72417 72.0173 1.72866 71.9875 1.73203C71.7864 1.60057 71.7746 1.29383 71.5055 1.21686C71.4458 1.39327 71.5043 1.55563 71.4621 1.70057C71.4114 1.7399 71.3703 1.73877 71.3146 1.69832V0.58147C71.5894 0.582593 71.8737 0.483155 72.0832 0.733717C72.117 0.851133 72.1175 0.951695 72.0933 1.03035C72.0443 1.14327 71.9503 1.17304 71.8653 1.23203C71.9019 1.40619 72.0714 1.51462 72.1198 1.7163ZM71.9267 0.96574C71.9334 0.902256 71.9436 0.847762 71.8951 0.793268C71.7679 0.714616 71.6288 0.716301 71.4801 0.758436C71.4846 0.868549 71.443 0.969672 71.5117 1.06068C71.6547 1.0663 71.7955 1.08877 71.9267 0.966301V0.96574Z" fill="#1499A4"/>
</g>
<defs>
<clipPath id="clip0_41_403">
<rect width="72.0755" height="20" fill="white" transform="translate(0.5849)"/>
</clipPath>
</defs>
</svg>
