<svg width="125" height="20" viewBox="0 0 125 20" fill="none" xmlns="http://www.w3.org/2000/svg">
<g clip-path="url(#clip0_41_404)">
<path d="M81.6298 6.93863C82.3383 6.77013 84.5385 6.8393 84.882 7.06811C83.7801 10.2306 82.6729 13.4108 81.5639 16.5999H78.3277C77.5658 14.6595 77.0923 12.625 76.3482 10.6687C75.6469 12.6321 75.1467 14.6417 74.4115 16.5945H71.1753C70.0752 13.4197 68.968 10.227 67.8251 6.93154H71.2661C71.9407 8.90387 72.3662 10.9826 73.0017 13.1252C73.6799 11.0429 74.1427 9.02093 74.7746 6.90848C75.8445 6.82157 76.9588 6.86236 78.05 6.88187C78.6997 8.97659 79.1821 10.9933 79.8817 13.088C80.5048 10.9631 80.9551 8.92338 81.628 6.9404L81.6298 6.93863Z" fill="#6BC331"/>
<path d="M63.9499 7.9035V3.11279H67.1149V16.5449C66.7179 16.6406 65.1141 16.6513 64.6708 16.5697C64.4252 16.3781 64.4625 16.0482 64.2827 15.784C63.2272 16.6548 62.0024 16.9705 60.6638 16.8854C59.3537 16.8038 58.2571 16.3036 57.4472 15.2359C56.1032 13.464 55.9074 11.5005 56.712 9.50868C57.6733 7.12663 59.7934 6.1919 62.1093 6.75061C62.8088 6.91911 63.3215 7.40332 63.9516 7.9035H63.9499ZM59.3999 11.724C59.3252 13.1713 60.5018 14.3083 61.7283 14.2604C63.0331 14.2089 64.0709 13.1358 64.0745 11.7435C64.078 10.3583 63.0367 9.25149 61.7212 9.24085C60.3576 9.23021 59.3946 10.2607 59.3999 11.724Z" fill="#6BC331"/>
<path d="M7.3571 0.101078C7.78432 0.345846 8.07981 0.732507 8.42159 1.07128C9.93467 2.56472 11.4513 4.05283 12.9608 5.54805C13.3062 5.89037 13.6284 6.2522 13.9612 6.60516C13.9897 6.65482 14.0182 6.70271 14.0449 6.75237C14.0449 7.29867 14.0414 7.84496 14.0414 8.39125C14.0378 12.2313 14.0342 16.0731 14.0289 19.9131C13.8473 19.8811 13.7583 19.7251 13.6426 19.6115C11.6258 17.6073 9.61426 15.6013 7.59741 13.597C7.52442 13.5243 7.43364 13.4728 7.35176 13.4108C7.34998 13.3487 7.34642 13.2866 7.34464 13.2245C7.3482 8.84886 7.35176 4.47497 7.35532 0.0993042L7.3571 0.101078Z" fill="#0F9B4A"/>
<path d="M7.34642 13.2263C7.3482 13.2884 7.35176 13.3504 7.35354 13.4125H7.3571C6.47951 14.2745 5.59658 15.1312 4.72612 16.0003C3.42309 17.2987 2.12896 18.6041 0.829488 19.906C0.646138 19.8084 0.662159 19.6328 0.662159 19.4679C0.662159 15.2057 0.662159 10.9436 0.663939 6.67964C0.663939 6.64949 0.674619 6.61934 0.67996 6.59096C1.1232 6.15996 1.57179 5.73427 2.01147 5.29795C3.20413 4.11313 4.39146 2.92299 5.5859 1.73818C6.11103 1.21671 6.64506 0.705895 7.17553 0.191528C7.33396 0.340517 7.26453 0.535622 7.26453 0.707669C7.26809 4.70731 7.26631 8.70696 7.26987 12.7066C7.26987 12.8804 7.20579 13.072 7.34642 13.2298V13.2263Z" fill="#6AC22F"/>
<path d="M92.5151 7.69602C92.6771 7.29162 92.8159 6.94398 92.9583 6.58569H95.5733C95.7638 6.92624 95.7958 16.1139 95.6018 16.5857H93.2876C92.9868 16.3853 93.0349 15.9968 92.8586 15.7166C92.6504 15.7432 92.5169 15.9028 92.3638 16.0199C90.7937 17.21 87.9082 17.3111 86.2901 15.5818C85.0956 14.3047 84.7343 12.7581 84.8963 11.0784C85.0173 9.82975 85.4534 8.70701 86.4094 7.81131C87.6323 6.66728 89.0528 6.41365 90.6389 6.71872C91.3473 6.85529 91.9419 7.20116 92.5133 7.69602H92.5151ZM90.2544 14.2498C91.6642 14.3331 92.613 12.9745 92.6201 11.7577C92.6272 10.3388 91.6144 9.24444 90.2793 9.24089C88.9246 9.23734 87.9741 10.2537 87.9723 11.7081C87.9705 13.182 88.9264 14.2444 90.2544 14.248V14.2498Z" fill="#6BC331"/>
<path d="M37.1292 16.5928H34.2152C33.9837 16.4296 34.0211 16.2079 34.0211 15.9968C34.0104 14.2959 34.0015 12.5931 33.9873 10.8922C33.9873 10.7272 33.9517 10.5605 33.9161 10.3973C33.8004 9.85633 33.5441 9.41469 32.9531 9.31181C32.3015 9.1983 31.7034 9.30827 31.2869 9.89358C30.9629 10.3459 30.8757 10.8656 30.8757 11.4048C30.8721 13.0756 30.8757 14.7464 30.8757 16.403C30.5855 16.6424 28.6292 16.7347 27.6804 16.552V6.86591C28.5153 6.86591 29.2878 6.85882 30.0586 6.87123C30.2633 6.87478 30.3719 7.03264 30.42 7.22774C30.4591 7.3856 30.5126 7.53991 30.5624 7.70486C30.792 7.65697 30.9362 7.51863 31.0946 7.41043C32.5383 6.42781 34.0621 6.26996 35.6107 7.09649C36.5934 7.6215 37.017 8.5651 37.1843 9.63108C37.2431 10.0071 37.2734 10.3831 37.2734 10.7645C37.2698 12.5115 37.2734 14.2604 37.2698 16.0075C37.2698 16.1848 37.3214 16.3746 37.1327 16.5928H37.1292Z" fill="#6CC332"/>
<path d="M117.874 12.6694H110.823C110.928 13.3895 111.297 13.895 111.893 14.1752C113.12 14.7499 114.257 14.5938 115.272 13.542C115.962 14.0316 116.477 14.6736 117.011 15.2075C117.034 15.5605 116.837 15.6953 116.659 15.8354C115.507 16.74 114.163 16.9883 112.744 16.9262C111.63 16.8783 110.572 16.5945 109.665 15.9205C108.013 14.6949 107.536 12.978 107.758 11.0358C108.216 7.03974 112.563 5.5534 115.555 7.20824C117.016 8.01703 117.73 9.41469 117.873 11.0749C117.915 11.5857 117.962 12.1018 117.873 12.6694H117.874ZM114.902 10.6439C114.969 9.57078 114.181 8.80277 113.066 8.75843C111.845 8.70877 110.697 9.82619 110.864 10.6439H114.903H114.902Z" fill="#6BC331"/>
<path d="M48.5289 12.6694H41.4655C41.5563 13.3611 41.9212 13.8046 42.4623 14.1256C43.5037 14.7411 44.3581 14.6098 45.8374 13.6733C46.4177 14.2444 46.9838 14.7996 47.5481 15.3548C47.5944 15.3122 47.6406 15.2678 47.6869 15.2253C47.767 15.6137 47.452 15.7609 47.217 15.9277C46.0884 16.7258 44.8067 16.9901 43.4485 16.9333C42.7934 16.905 42.1508 16.7879 41.5296 16.5591C39.1798 15.69 38.0352 13.4392 38.4162 10.9099C38.968 7.25436 42.7489 5.6953 45.841 7.01669C47.3309 7.65344 48.1248 8.91808 48.4328 10.486C48.5716 11.1902 48.5556 11.9014 48.5271 12.673L48.5289 12.6694ZM45.5846 10.6492C45.6363 9.57256 44.7871 8.79214 43.6675 8.7549C42.7151 8.72297 41.3124 9.70204 41.51 10.6492H45.5846Z" fill="#6BC331"/>
<path d="M14.0449 6.75242C14.0164 6.70275 13.9879 6.65487 13.9612 6.6052C14.1072 6.46863 14.0396 6.28949 14.0396 6.13163C14.0449 4.31006 14.0413 2.48672 14.0431 0.665153C14.0431 0.113539 14.1553 0.00534476 14.716 0.00357108C16.5139 0.00357108 18.31 0.00889211 20.1079 -0.00174996C20.512 -0.00352364 20.7381 0.111765 20.7381 0.564053C20.7309 4.76944 20.7327 8.97661 20.7309 13.182C20.7309 13.2263 20.7185 13.2725 20.7114 13.3168C20.1382 12.7545 19.5614 12.1958 18.9918 11.63C17.6478 10.2945 16.3038 8.95887 14.967 7.6162C14.6697 7.31645 14.4009 6.98654 14.0449 6.75064V6.75242Z" fill="#6AC22F"/>
<path d="M124.235 14.5335C124.311 14.9361 124.324 16.3249 124.242 16.6921C122.818 17.0521 121.381 17.1958 120.057 16.3214C119.25 15.7893 119.021 14.8847 119.006 13.9979C118.962 10.8851 118.98 7.77225 118.976 4.65944C118.976 4.63106 118.992 4.60268 119.03 4.48385C119.913 4.3455 120.826 4.39516 121.748 4.45901C121.992 5.31393 121.912 6.13869 122.164 6.92443C122.882 7.01311 123.612 6.88186 124.388 7.01134C124.459 7.78821 124.427 8.53315 124.405 9.3047C123.633 9.48917 122.9 9.3118 122.177 9.42177C122.177 10.8212 122.141 12.1993 122.191 13.5757C122.216 14.2657 122.711 14.5495 123.505 14.4892C123.738 14.4714 123.98 14.3384 124.231 14.5353L124.235 14.5335Z" fill="#6BC331"/>
<path d="M106.428 16.5945H103.251V3.1181H106.428V16.5945Z" fill="#6CC332"/>
<path d="M101.051 16.5821H97.8678V3.12697C98.902 2.9904 99.9505 3.08086 101.051 3.07376V16.5803V16.5821Z" fill="#6BC331"/>
<path d="M14.0449 6.75238C14.4009 6.98828 14.6697 7.31818 14.967 7.61794C16.3056 8.96061 17.6478 10.2962 18.9918 11.6318C19.5614 12.1976 20.1382 12.7563 20.7114 13.3185C20.7238 13.3469 20.7238 13.3753 20.7114 13.4054C20.6188 13.4835 20.5227 13.558 20.4372 13.6431C18.5557 15.5232 16.6777 17.4069 14.7943 19.2852C14.5594 19.5193 14.3422 19.7783 14.036 19.9344L14.0307 19.9166C14.0342 16.0766 14.0378 12.2348 14.0431 8.39481C14.0431 7.84851 14.0449 7.30222 14.0467 6.75593L14.0449 6.75238Z" fill="#1B523D"/>
<path d="M49.7412 16.5804V7.02734C49.8693 6.84288 50.0598 6.86949 50.2396 6.86949C50.7434 6.86949 51.2471 6.89609 51.7491 6.86062C52.2458 6.82692 52.543 6.98123 52.5858 7.50801C52.5929 7.59492 52.6445 7.68006 52.6961 7.81841C53.7072 7.03621 54.761 6.38705 56.0836 6.66019V9.29943C55.822 9.53355 55.6351 9.4626 55.457 9.44842C53.9653 9.33313 52.9329 10.2749 52.9257 11.7702C52.9204 13.1838 52.9258 14.5974 52.9222 16.011C52.9222 16.1884 52.9738 16.3782 52.8083 16.5786H49.7394L49.7412 16.5804Z" fill="#6BC331"/>
<path d="M7.17552 0.188034C6.64505 0.704175 6.11102 1.21499 5.58589 1.73468C4.39145 2.9195 3.20413 4.10964 2.01146 5.29446C1.57178 5.73078 1.12497 6.15646 0.679951 6.58747C0.672831 4.55128 0.66571 2.5151 0.66037 0.478918C0.66037 0.188034 0.799217 0.00889283 1.09649 0.00889283C3.12402 0.00711915 5.14977 0.0124402 7.1773 0.0177612C7.21468 0.0177612 7.25384 0.0585558 7.29122 0.0816137C7.25206 0.117087 7.2129 0.152561 7.17374 0.188034H7.17552Z" fill="#0F9B4A"/>
<path d="M14.036 19.9326C14.3404 19.7765 14.5594 19.5193 14.7943 19.2834C16.6777 17.4051 18.5557 15.5215 20.4372 13.6414C20.5227 13.5562 20.6206 13.4835 20.7114 13.4037C20.7185 15.4523 20.7256 17.4991 20.7345 19.5477C20.7345 19.7304 20.6669 19.8705 20.4728 19.9769C18.3741 19.9769 16.2451 19.9769 14.1161 19.9752C14.0894 19.9752 14.0645 19.9468 14.0378 19.9326H14.036Z" fill="#6AC22F"/>
<path d="M0.827698 19.9024C2.12539 18.6006 3.4213 17.2951 4.72433 15.9968C5.59657 15.1295 6.47772 14.271 7.35531 13.409C7.35531 15.3831 7.35175 17.3572 7.34997 19.3313C7.34997 19.5619 7.36599 19.7942 7.07583 19.9893C6.64149 19.9893 6.14128 19.9893 5.64108 19.9893C4.19386 19.9893 2.74664 19.9911 1.3012 19.9858C1.14277 19.9858 0.962985 20.0496 0.827698 19.9024Z" fill="#0F9B4A"/>
<path d="M7.17551 0.187983C7.21467 0.15251 7.25383 0.117036 7.29299 0.0815628C7.32147 0.069147 7.34284 0.074468 7.35708 0.102847C7.35352 4.47851 7.34996 8.8524 7.3464 13.2281C7.20577 13.0702 7.26985 12.8804 7.26985 12.7048C7.26629 8.70519 7.26807 4.70554 7.26451 0.705898C7.26451 0.532077 7.33393 0.338746 7.17551 0.189757V0.187983Z" fill="#6CC332"/>
</g>
<defs>
<clipPath id="clip0_41_404">
<rect width="123.774" height="20" fill="white" transform="translate(0.66037)"/>
</clipPath>
</defs>
</svg>
