<svg width="72" height="22" viewBox="0 0 72 22" fill="none" xmlns="http://www.w3.org/2000/svg">
<g clip-path="url(#clip0_41_406)">
<path d="M0.433932 0.138367C0.485782 0.168253 0.542345 0.15248 0.59669 0.153033C1.69135 0.160782 2.78629 0.135599 3.88068 0.1677C4.28854 0.179599 4.68642 0.261235 5.06684 0.413989C5.97462 0.778442 6.43849 1.46086 6.50282 2.42498C6.52445 2.74931 6.4945 3.07032 6.39136 3.38025C6.21751 3.90217 5.90364 4.30398 5.36878 4.52979C5.5809 4.61447 5.77443 4.71022 5.94356 4.8472C6.47953 5.28166 6.76595 5.84425 6.78757 6.53248C6.81197 7.30317 6.61179 7.99389 6.01122 8.52078C5.5698 8.9082 5.0344 9.08144 4.46211 9.1603C4.1915 9.19766 3.91922 9.2032 3.64666 9.2032C2.62575 9.2032 1.60484 9.2032 0.583935 9.20375C0.533749 9.20375 0.483841 9.21122 0.433655 9.2151C0.433655 6.18961 0.433655 3.16385 0.433655 0.138367H0.433932ZM1.89015 5.22521V7.87434C1.92869 7.87655 1.95975 7.8796 1.99108 7.8796C2.57279 7.8796 3.15451 7.88126 3.73594 7.87877C3.91118 7.87794 4.08669 7.86687 4.25887 7.83034C4.69197 7.73819 5.04299 7.5312 5.22405 7.10808C5.59254 6.24606 5.10787 5.38931 4.17902 5.2562C3.7426 5.19366 3.30312 5.23406 2.86531 5.22632C2.54285 5.22051 2.22038 5.22521 1.89015 5.22521ZM1.89126 1.47193V3.95613C2.4458 3.95613 2.99092 3.95613 3.53575 3.95613C3.72568 3.95613 3.91395 3.93703 4.09972 3.89912C4.73328 3.76934 5.06129 3.37112 5.06906 2.72551C5.0771 2.06385 4.78097 1.67283 4.12551 1.54526C3.39019 1.40219 2.64322 1.51178 1.89126 1.47193Z" fill="#050505"/>
<path d="M38.9468 22C38.9473 19.1267 38.9479 16.2537 38.9484 13.3804C38.9484 13.3256 38.9484 13.2711 38.9484 13.2205C38.992 13.1867 39.0349 13.2008 39.0746 13.2008C40.1604 13.2 41.2465 13.1997 42.3322 13.2002C43.1726 13.2008 43.9753 13.3608 44.706 13.7925C45.6642 14.3592 46.244 15.2085 46.4952 16.2786C46.7838 17.5084 46.7212 18.7177 46.1483 19.862C45.5868 20.9833 44.6488 21.6289 43.4333 21.8887C43.2154 21.9352 42.9935 21.9634 42.7734 22H38.9471H38.9468ZM40.4551 20.6695C40.904 20.6695 41.3421 20.67 41.7802 20.6695C42.1634 20.6689 42.5471 20.6838 42.9275 20.6166C43.8506 20.4533 44.5216 19.9649 44.8795 19.0882C45.1754 18.3637 45.2023 17.6091 45.0866 16.8456C45.0068 16.3182 44.8227 15.83 44.475 15.4166C43.9839 14.8327 43.3307 14.5673 42.5884 14.5346C41.8967 14.5042 41.2026 14.5227 40.5095 14.5205C40.4926 14.5205 40.4756 14.5277 40.4551 14.5324V20.6697V20.6695Z" fill="#050505"/>
<path d="M59.2984 22C59.3014 21.9452 59.3073 21.8901 59.3073 21.8353C59.3078 19.0132 59.3075 16.1912 59.3075 13.3688C59.3075 13.3187 59.3075 13.2683 59.3075 13.2235C59.3505 13.1856 59.394 13.2005 59.4334 13.2005C60.436 13.1997 61.4386 13.1992 62.4412 13.2C62.9248 13.2005 63.3984 13.2636 63.8503 13.4452C64.7392 13.8024 65.2181 14.4729 65.3393 15.4083C65.3997 15.8743 65.3728 16.3392 65.2522 16.7939C65.0168 17.6836 64.4049 18.1634 63.527 18.3452C63.4791 18.3552 63.4308 18.3654 63.3676 18.3787C63.7549 18.832 64.132 19.2734 64.5091 19.7147C65.1235 20.4337 65.7388 21.1521 66.3516 21.8727C66.3821 21.9087 66.4445 21.9327 66.4237 22H64.7878C64.7739 21.977 64.7631 21.9518 64.7459 21.9314C63.7669 20.7655 62.7873 19.6002 61.8107 18.4382H60.7671V22H59.2975H59.2984ZM60.7757 14.499V17.1846C61.1478 17.1846 61.5118 17.1877 61.8762 17.1838C62.1576 17.1807 62.439 17.1984 62.7199 17.1622C63.8073 17.0216 64.0669 16.1186 63.8553 15.392C63.7 14.8584 63.2234 14.5189 62.5885 14.5023C61.9887 14.4865 61.3882 14.499 60.7757 14.499Z" fill="#050505"/>
<path d="M19.6765 22C19.3385 21.6574 18.973 21.3441 18.6181 21.0195C16.9423 19.4864 15.264 17.9564 13.5865 16.4253C13.5538 16.3954 13.5203 16.366 13.4681 16.3195V21.8591H11.9986V13.2091C14.0723 15.0698 16.1308 16.9165 18.2125 18.7844V13.3406H19.679C19.7064 13.3973 19.6934 13.4535 19.6934 13.5074C19.6942 16.3024 19.6939 19.0971 19.6945 21.892C19.6945 21.928 19.7006 21.964 19.7039 22H19.6762H19.6765Z" fill="#050505"/>
<path d="M49.3998 22C49.401 21.9446 49.4032 21.8893 49.4032 21.8342C49.4032 19.0119 49.4032 16.1895 49.4032 13.3671V13.2086H54.902V14.5144H50.9232V16.6287H54.4908V17.9351H50.9221V20.6653H54.9175V22H49.3998Z" fill="#050505"/>
<path d="M59.742 0C59.9675 0.036805 60.1943 0.0664151 60.4178 0.112075C60.9601 0.223321 61.4667 0.424503 61.9316 0.73361V2.28855C61.8765 2.28551 61.8454 2.24151 61.8077 2.21328C61.2138 1.77135 60.5669 1.45338 59.8213 1.36953C59.3869 1.32055 58.9535 1.32 58.5356 1.47303C57.8622 1.7196 57.7083 2.28191 57.8832 2.82513C57.9675 3.08636 58.1669 3.25047 58.3995 3.37665C58.7899 3.58863 59.2169 3.71094 59.6278 3.87228C60.103 4.05907 60.5935 4.20795 61.0444 4.45479C61.7919 4.86435 62.2616 5.46845 62.3708 6.32742C62.5458 7.70443 61.8923 8.76043 60.5553 9.14757C59.1842 9.5444 57.8619 9.36287 56.615 8.66274C56.5551 8.62926 56.4999 8.58747 56.447 8.55233V6.95753C56.5809 7.05384 56.7001 7.1446 56.8243 7.2279C57.665 7.79077 58.5861 8.05753 59.6009 7.9687C59.8785 7.94435 60.1438 7.87489 60.3942 7.74621C61.119 7.37457 61.0968 6.33157 60.532 5.92976C60.2508 5.72969 59.937 5.60128 59.6189 5.47758C59.0314 5.24901 58.4253 5.0683 57.8574 4.78963C57.5153 4.62166 57.2009 4.41301 56.9449 4.12742C56.4716 3.59914 56.3283 2.96405 56.3738 2.27887C56.4558 1.03746 57.3645 0.351447 58.3768 0.111245C58.5534 0.0694591 58.7322 0.036805 58.9102 0C59.1875 0 59.4648 0 59.742 0Z" fill="#050505"/>
<path d="M71.4151 7.0566C71.3829 7.20382 71.3594 7.35353 71.3169 7.49743C71.0757 8.31572 70.5051 8.81743 69.7265 9.10025C68.8728 9.41047 67.9975 9.39995 67.1182 9.22865C66.5851 9.12488 66.0802 8.94113 65.6163 8.65444C65.5617 8.62068 65.5098 8.58249 65.4596 8.54845V6.95145C65.5508 7.01869 65.6301 7.07847 65.7105 7.1363C66.582 7.76088 67.5472 8.06196 68.6241 7.96843C68.8734 7.94684 69.1126 7.8843 69.3431 7.78164C70.1582 7.41801 70.1283 6.31608 69.5244 5.91067C69.2499 5.72636 68.951 5.59907 68.646 5.48063C68.0543 5.25067 67.4426 5.07024 66.872 4.78742C66.2906 4.49907 65.7957 4.11192 65.5653 3.48098C65.0986 2.20277 65.4527 0.656126 67.2788 0.138918C67.5081 0.0738868 67.746 0.0570063 67.9764 0.00027673C68.2356 0 68.4946 0 68.7533 0C68.9787 0.0365283 69.2058 0.0655849 69.4296 0.110969C69.9758 0.221937 70.4857 0.42395 70.9412 0.728629V2.30128C70.578 2.02455 70.2129 1.78546 69.8033 1.62219C69.1093 1.34546 68.3973 1.24445 67.6653 1.43955C67.2807 1.54194 66.9763 1.75557 66.8693 2.16541C66.7376 2.66906 66.9319 3.10463 67.3977 3.36697C67.7241 3.55099 68.084 3.6556 68.4303 3.79203C68.9651 4.00234 69.5202 4.1634 70.029 4.43708C70.664 4.77857 71.1351 5.26063 71.3192 5.97791C71.361 6.14118 71.3838 6.30943 71.4154 6.47547V7.0566H71.4151Z" fill="#050505"/>
<path d="M23.8355 -2.43036e-05C24.0111 0.0520009 24.1946 0.0481266 24.3734 0.0802273C24.9837 0.189259 25.5549 0.395146 26.0753 0.740504V2.28908C26.0276 2.30403 26.0085 2.2639 25.9819 2.2437C25.4224 1.82169 24.814 1.50511 24.1131 1.39635C23.672 1.328 23.2303 1.31804 22.7949 1.44063C22.1395 1.62521 21.8284 2.14823 22.002 2.76699C22.0749 3.02712 22.2473 3.20533 22.4697 3.34232C22.7342 3.50559 23.0303 3.59663 23.317 3.70981C23.9204 3.94808 24.547 4.12878 25.1248 4.42959C25.8419 4.80289 26.3443 5.3522 26.4829 6.17077C26.6396 7.09505 26.4885 7.93658 25.7468 8.59021C25.2937 8.98926 24.7486 9.1993 24.1599 9.28564C23.0087 9.45499 21.9077 9.29228 20.8748 8.73993C20.7778 8.6879 20.6866 8.62453 20.5882 8.56365V6.96111C20.7789 7.09975 20.9525 7.23424 21.1405 7.34742C21.9595 7.84055 22.8404 8.07024 23.7984 7.96813C24.0665 7.93962 24.3246 7.87293 24.5603 7.73678C25.2022 7.36652 25.2829 6.44971 24.7145 5.97208C24.4489 5.74903 24.1289 5.62755 23.8114 5.50247C23.2034 5.26337 22.5731 5.08045 21.9864 4.78795C21.4457 4.51842 20.9783 4.16226 20.7326 3.59082C20.2316 2.42551 20.4246 0.689586 22.4253 0.139724C22.6519 0.07746 22.8823 0.0276487 23.1199 0.0284788C23.2244 0.0279254 23.3295 0.0329065 23.4338 0.0254348C23.5491 0.0171329 23.6686 0.0586424 23.7798 -0.000854492H23.8353L23.8355 -2.43036e-05Z" fill="#050505"/>
<path d="M25.3605 22C25.1501 21.9366 24.9291 21.935 24.715 21.891C24.183 21.7819 23.6728 21.6167 23.2042 21.3375C23.1571 21.3096 23.1121 21.278 23.0728 21.2523V19.7527C23.2474 19.8667 23.4074 19.9801 23.5757 20.0795C24.4234 20.5801 25.3361 20.8006 26.3204 20.6971C26.5883 20.6689 26.8472 20.6031 27.0843 20.4702C27.7162 20.1166 27.7783 19.2515 27.203 18.8104C26.9321 18.6029 26.6138 18.49 26.298 18.374C25.7104 18.1584 25.1063 17.9874 24.5337 17.7309C24.2379 17.5986 23.967 17.4265 23.7146 17.2211C22.7556 16.4399 22.5759 14.3968 24.2184 13.5852C24.8074 13.2941 25.4329 13.1878 26.0831 13.2008C26.9027 13.2174 27.6835 13.3907 28.4074 13.7858C28.4637 13.8165 28.5184 13.8506 28.5777 13.8857V15.3505C28.5233 15.3535 28.4945 15.312 28.4593 15.2868C27.6466 14.7104 26.7533 14.4024 25.7465 14.4738C25.421 14.497 25.1065 14.5665 24.8326 14.7569C24.3388 15.1 24.3122 15.8325 24.7791 16.2125C24.9712 16.3688 25.1961 16.4632 25.426 16.5487C26.0906 16.7955 26.7713 16.9987 27.4267 17.2704C27.7304 17.3963 28.0134 17.561 28.2652 17.7741C28.8985 18.3101 29.1048 19.0155 29.0321 19.8091C28.9404 20.8112 28.3245 21.4011 27.4262 21.7446C27.0929 21.8719 26.7447 21.9408 26.3892 21.9734C26.3598 21.9762 26.3229 21.9604 26.3032 21.9986H25.3605V22Z" fill="#050505"/>
<path d="M5.92389 22C5.92749 21.9452 5.93415 21.8904 5.93415 21.8359C5.9347 19.0152 5.9347 16.1945 5.9347 13.3741V13.2058H7.58751V22.0003H5.92389V22Z" fill="#050505"/>
<path d="M32.9023 22C32.9015 20.5798 32.9004 19.1596 32.9001 17.7394C32.8998 16.2822 32.9001 14.8252 32.9001 13.368V13.2086H34.5343C34.559 13.2409 34.5465 13.2788 34.5465 13.3137C34.5473 16.1679 34.5473 19.0224 34.5468 21.8766C34.5468 21.9178 34.5412 21.9587 34.5382 22H32.9023Z" fill="#050505"/>
<path d="M23.7801 0C23.6689 0.0594969 23.5494 0.0179874 23.434 0.0262893C23.3298 0.033761 23.225 0.0287799 23.1202 0.0293333C23.1182 0.0196478 23.1166 0.00968553 23.1146 0C23.3364 0 23.5583 0 23.7801 0Z" fill="#050505"/>
<path d="M43.5836 9.3327C41.5911 7.32807 39.5989 5.32316 37.5779 3.29003V9.18022H36.1433V0.0088501C38.1613 1.98193 40.164 3.94035 42.1881 5.91952V0.146108H43.6218V9.297C43.6091 9.3089 43.5961 9.3208 43.5833 9.3327H43.5836Z" fill="#050505"/>
<path d="M9.99948 0.161047H11.4942C11.4942 0.217777 11.4942 0.267312 11.4942 0.317123C11.4942 2.02344 11.4945 3.72975 11.4942 5.43579C11.4942 5.91342 11.5406 6.38359 11.7166 6.83272C11.9992 7.5536 12.544 7.91335 13.3037 7.96952C13.6231 7.99305 13.9414 7.97783 14.25 7.8818C14.898 7.68007 15.2529 7.20963 15.4309 6.58283C15.531 6.23028 15.5693 5.86832 15.5698 5.50303C15.5721 3.77375 15.5712 2.04447 15.5715 0.315186C15.5715 0.265375 15.5715 0.215563 15.5715 0.160217H17.0457C17.081 0.20311 17.0652 0.251261 17.0652 0.295261C17.066 2.05222 17.0671 3.80917 17.0652 5.56613C17.0643 6.16857 16.9931 6.76022 16.7721 7.32751C16.4111 8.25428 15.76 8.87554 14.8068 9.16555C13.9448 9.42789 13.0733 9.429 12.2165 9.15199C11.0808 8.78505 10.4243 7.97174 10.1395 6.83632C10.0472 6.46827 10.0017 6.09302 10.0011 5.7139C9.99893 3.89247 9.99976 2.07076 9.99921 0.249324C9.99921 0.222481 9.99921 0.195362 9.99921 0.161324L9.99948 0.161047Z" fill="#050505"/>
<path d="M49.0926 1.51342V3.68104H52.5535V5.0276H49.0957V7.827H52.9534V9.19875H47.6328V0.165466H52.9525V1.51342H49.0926Z" fill="#050505"/>
<path d="M30.39 0.159424H31.8692V9.19658H30.39V0.159424Z" fill="#050505"/>
</g>
<defs>
<clipPath id="clip0_41_406">
<rect width="70.9811" height="22" fill="white" transform="translate(0.43396)"/>
</clipPath>
</defs>
</svg>
