<svg width="159" height="60" viewBox="0 0 159 60" fill="none" xmlns="http://www.w3.org/2000/svg">
<g clip-path="url(#clip0_334_2246)">
<path d="M79.7455 0.00580557C102.983 0.00580557 126.221 0.0128944 149.458 0.00048894C153.907 -0.00128327 158.4 3.57327 158.379 8.96433C158.323 22.9861 158.361 37.006 158.361 51.0278C158.361 55.9332 154.652 59.7984 149.773 59.9757C149.488 59.9863 149.201 59.9916 148.916 59.9916C102.839 59.9916 56.7597 59.9881 10.6825 59.9987C6.89554 59.9987 3.88675 58.604 1.88676 55.2882C1.12796 54.0352 0.770567 52.6511 0.770567 51.1802C0.767046 37.0486 0.763525 22.917 0.768807 8.78357C0.770567 4.61533 4.06633 0.874189 8.32863 0.152899C8.96067 0.0447942 9.59447 0.00226115 10.2335 0.00226115C33.4042 0.00403336 56.5749 0.00226115 79.7473 0.00403336L79.7455 0.00580557ZM54.6066 0.895456C54.2686 0.895456 54.008 0.895456 53.7474 0.895456C39.2246 0.895456 24.7 0.895456 10.1772 0.897228C9.517 0.897228 8.86208 0.959255 8.21419 1.09749C4.46773 1.88789 1.64908 5.21788 1.64908 8.87218C1.64732 22.9382 1.64732 37.0043 1.65084 51.0703C1.65084 52.5909 2.08042 53.998 2.92725 55.2563C4.73182 57.9359 7.32159 59.1002 10.4712 59.102C24.9729 59.1091 39.4746 59.1055 53.9763 59.1002C54.1858 59.1002 54.4182 59.1711 54.6066 58.9885V0.895456ZM71.1435 39.2851C72.2403 38.523 72.5325 37.504 72.1892 36.3344C71.8565 35.1984 70.934 34.7465 69.8477 34.5799C69.5889 34.5391 69.3213 34.5356 69.0572 34.5356C67.8248 34.532 66.5924 34.5285 65.36 34.5409C65.0625 34.5444 64.7491 34.4611 64.4657 34.6189V44.5574C66.3266 44.5149 68.1488 44.6283 69.9692 44.4848C70.3389 44.4564 70.7157 44.3802 71.0625 44.2544C72.0061 43.9088 72.684 43.3116 72.8336 42.2341C73.0237 40.8748 72.6558 40.1942 71.1417 39.2851H71.1435ZM102.638 40.414C102.591 40.4299 102.541 40.4477 102.494 40.4636C100.983 38.4894 99.4726 36.5151 97.9814 34.5675H95.9462V44.5167H98.0835V38.2165C99.7877 40.4441 101.367 42.5052 102.936 44.5539C103.566 44.5238 104.154 44.6141 104.733 44.5007V34.5675H102.638V40.4158V40.414ZM142.805 28.3293C144.307 28.3293 145.759 28.4019 147.203 28.3133C149.932 28.145 151.888 26.1583 151.986 23.5727C152.089 20.9108 150.423 18.8196 147.763 18.412C146.133 18.1621 144.476 18.35 142.805 18.311V28.3275V28.3293ZM93.3036 18.3482V28.3045H95.4268V25.173C96.0307 25.0755 96.5729 25.1216 97.1504 25.1358C97.8529 26.1938 98.5588 27.2553 99.256 28.3045H101.841C101.031 27.0976 100.263 25.9528 99.4919 24.8026C99.5588 24.7441 99.5993 24.6838 99.6557 24.6608C101.179 24.0529 101.804 22.4721 101.466 20.8169C101.164 19.3442 100.041 18.4279 98.2965 18.3624C96.6521 18.3003 95.0025 18.35 93.3036 18.35V18.3482ZM111.462 28.3293C112.936 28.3293 114.384 28.3913 115.826 28.3151C118.39 28.1786 120.356 26.3196 120.59 23.9129C120.839 21.3592 119.453 19.2077 117.043 18.5573C115.215 18.0646 113.342 18.4049 111.462 18.3181V28.3293ZM104.93 24.2674H109.562V22.286H104.925V20.2852H110.223V18.35H102.786V28.3045H110.272V26.3196H104.929V24.2656L104.93 24.2674ZM113.877 44.5291V42.5548H108.546V40.4778H113.142V38.4982H108.538V36.485H113.781V34.5746H106.386V44.5291H113.877ZM140.948 22.302H136.317V20.2746H141.573V18.3606H134.171V28.3027H141.643V26.3196H136.305V24.2656H140.946V22.2985L140.948 22.302ZM65.8336 28.3187C66.1541 27.5371 66.4534 26.8087 66.7386 26.114H70.9216C71.235 26.8778 71.5343 27.6045 71.8283 28.324H74.1329C72.7033 24.9408 71.2896 21.5984 69.8776 18.2596H67.8336C66.4234 21.5967 65.0132 24.932 63.5819 28.3187H65.8319H65.8336ZM73.6998 34.571C73.6998 36.4832 73.6998 38.3387 73.6998 40.1942C73.6998 40.4813 73.6998 40.772 73.7368 41.0555C73.8459 41.8761 74.0695 42.6558 74.6012 43.3151C75.6364 44.5964 77.8688 45.0802 79.7737 44.4351C81.4093 43.8822 82.3107 42.5212 82.3459 40.4477C82.3776 38.6117 82.3529 36.7739 82.3494 34.9361C82.3494 34.8085 82.374 34.6667 82.2455 34.571H80.1663C80.1663 36.4159 80.1698 38.2253 80.1628 40.0347C80.1628 40.3644 80.1417 40.6993 80.0748 41.0219C79.8565 42.0799 79.066 42.6966 77.9973 42.6736C76.9146 42.6505 76.1611 42.0214 75.9709 40.951C75.9058 40.5841 75.8846 40.2049 75.8829 39.8309C75.8741 38.0889 75.8794 36.3485 75.8794 34.571H73.698H73.6998ZM122.555 43.0847C124.386 44.5379 126.349 45.0466 128.534 44.3713C129.722 44.0045 130.406 42.9961 130.462 41.7095C130.518 40.4707 129.983 39.5952 128.858 39.0689C128.256 38.7871 127.624 38.6134 126.988 38.4398C126.501 38.3068 125.999 38.2076 125.566 37.9329C124.969 37.5554 125.006 36.82 125.64 36.5063C126.048 36.3042 126.483 36.306 126.928 36.3769C127.701 36.501 128.347 36.9227 129.06 37.3002C129.439 36.7367 129.798 36.1997 130.177 35.6361C128.474 34.4292 126.717 34.0411 124.809 34.7092C123.656 35.1133 123.001 36.1252 122.972 37.3622C122.944 38.6453 123.467 39.4889 124.685 39.9887C125.291 40.2368 125.941 40.3803 126.567 40.5753C127.008 40.71 127.465 40.8003 127.854 41.0626C128.471 41.4773 128.421 42.2022 127.759 42.5371C127.541 42.647 127.307 42.6824 127.06 42.7001C125.823 42.7888 124.807 42.2606 123.865 41.5004C123.42 42.0373 123.013 42.53 122.552 43.0865L122.555 43.0847ZM121.927 35.6503C120.432 34.5161 118.796 34.1297 117.008 34.5586C115.582 34.9006 114.779 35.9179 114.731 37.2807C114.68 38.7393 115.261 39.5704 116.733 40.1074C117.145 40.258 117.573 40.3608 117.994 40.4867C118.539 40.6515 119.112 40.7436 119.603 41.0555C120.235 41.4561 120.194 42.1915 119.527 42.5265C119.31 42.6346 119.076 42.6789 118.83 42.6984C117.589 42.7888 116.573 42.266 115.612 41.4968C115.182 42.0232 114.768 42.53 114.358 43.0333C115.847 44.5557 118.673 45.1174 120.52 44.2756C121.606 43.7812 122.143 42.9128 122.203 41.7148C122.265 40.4937 121.756 39.6307 120.673 39.0955C120.057 38.7907 119.402 38.6117 118.742 38.4398C118.274 38.3192 117.805 38.2005 117.376 37.9683C117.059 37.7964 116.869 37.5466 116.904 37.1673C116.939 36.7916 117.17 36.5772 117.502 36.4513C117.907 36.2989 118.316 36.3096 118.737 36.3875C119.485 36.5275 120.122 36.921 120.805 37.3002C121.175 36.7562 121.532 36.2316 121.93 35.6485L121.927 35.6503ZM84.3512 41.495C83.9198 42.0232 83.5043 42.5282 83.0924 43.0333C84.5783 44.5468 87.3952 45.1245 89.242 44.288C90.3494 43.7865 90.8987 42.8951 90.9409 41.6669C90.9814 40.4743 90.4849 39.6289 89.4216 39.1043C88.8054 38.7995 88.1504 38.6205 87.492 38.4451C87.0043 38.3139 86.5114 38.1987 86.0659 37.9453C85.7737 37.7787 85.6047 37.5342 85.6293 37.1886C85.6522 36.843 85.8547 36.6144 86.1575 36.485C86.5747 36.3078 87.0061 36.3007 87.4533 36.3822C88.2032 36.5204 88.8423 36.905 89.5395 37.3091C89.9145 36.7579 90.2789 36.2209 90.6698 35.6432C89.1029 34.4966 87.4462 34.1014 85.6346 34.5887C84.286 34.952 83.5202 35.9604 83.4726 37.2701C83.4181 38.7375 83.9885 39.558 85.4638 40.1039C85.8335 40.2403 86.2209 40.3307 86.5976 40.4494C87.1205 40.6143 87.6487 40.7667 88.161 40.9616C88.5307 41.1016 88.8018 41.3604 88.7754 41.8087C88.749 42.2465 88.4744 42.4804 88.0853 42.5938C87.8987 42.6488 87.7015 42.6807 87.5061 42.6948C86.2895 42.7781 85.2895 42.2518 84.3564 41.4968L84.3512 41.495ZM82.86 19.7199C80.8142 17.611 77.0484 17.6411 75.1434 19.7199C73.1171 21.9316 73.3213 25.4831 75.5801 27.3634C77.7262 29.148 81.3476 28.8078 82.9022 26.6864C82.4586 26.2274 82.0167 25.7702 81.5783 25.3165C79.3864 26.7449 77.9709 26.8052 76.853 25.5292C75.8301 24.3631 75.7843 22.3959 76.7544 21.2458C77.1945 20.723 77.735 20.3614 78.4146 20.2445C79.6153 20.0389 80.5818 20.5581 81.4797 21.3237C81.9515 20.7743 82.3952 20.2604 82.86 19.7199ZM90.9427 25.3183C88.9339 26.7715 87.4057 26.83 86.2297 25.5079C85.1698 24.317 85.1804 22.3321 86.2508 21.1235C87.3652 19.867 88.9057 19.9148 90.8916 21.2989C91.3406 20.7761 91.793 20.248 92.242 19.727C90.2684 17.5684 86.5061 17.6304 84.4638 19.8103C82.499 21.9068 82.7631 25.5877 85.0114 27.3989C87.1804 29.148 90.8071 28.7847 92.2701 26.6847C91.8247 26.2274 91.3828 25.7738 90.9409 25.3201L90.9427 25.3183ZM133.192 20.3579V18.3677H125.022V20.3738H128.001V28.3045H130.212V20.3597H133.192V20.3579ZM94.2613 44.5362V34.571H92.1205V44.5362H94.2613ZM121.856 18.3517V28.3009H123.983V18.3517H121.856Z" fill="white"/>
<path d="M28.17 4.42725C28.3919 4.59383 28.545 4.7108 28.6912 4.82245C28.1137 6.48833 28.3038 7.07493 29.7123 8.10281C31.8831 9.6854 34.0609 11.2573 36.2158 12.8594C39.3108 15.1615 39.9094 19.2288 37.6418 22.3744C36.1471 24.4479 34.6559 26.525 33.17 28.5949C32.8989 28.5506 32.7528 28.3946 32.5908 28.2015C32.9517 27.5475 33.2246 26.8652 33.207 26.0837C33.1823 24.9477 32.7633 24.0049 31.8619 23.3314C29.994 21.9349 28.1049 20.5632 26.2141 19.1951C22.8426 16.7547 22.1842 12.7655 24.6084 9.37349C25.7739 7.74305 26.95 6.11794 28.1683 4.42725H28.17Z" fill="white"/>
<path d="M24.1032 19.8315C24.3479 20.007 24.5556 20.1576 24.7933 20.3278C24.3497 21.2334 24.7845 21.7757 25.4923 22.2719C26.8637 23.2306 28.2035 24.2373 29.5521 25.2279C31.8479 26.9115 32.2845 29.662 30.6208 31.9907C29.8531 33.0646 29.075 34.1333 28.2827 35.2303C28.0275 35.0495 27.8197 34.9042 27.6243 34.766C27.8866 33.6637 27.8127 33.474 26.8831 32.7953C25.5134 31.7957 24.1419 30.798 22.774 29.7967C20.5733 28.1858 20.1155 25.4158 21.6895 23.1846C22.4764 22.0681 23.2863 20.9675 24.1049 19.8333L24.1032 19.8315Z" fill="white"/>
<path d="M34.1965 55.3573V43.8964C34.5838 43.7458 34.9605 43.8202 35.325 43.8237C36.9517 43.8344 38.5802 43.7599 40.2052 43.8787C42.3425 44.0346 43.5837 45.5357 43.2263 47.5152C43.0837 48.3092 42.5644 48.8285 41.9816 49.2875C42.0485 49.5001 42.2228 49.5214 42.3496 49.5834C43.4887 50.1452 43.9711 51.0774 43.9218 52.3268C43.869 53.6134 43.2387 54.4783 42.0609 54.9639C41.4623 55.212 40.8426 55.3467 40.2017 55.352C38.2246 55.3644 36.2475 55.3573 34.1947 55.3573H34.1965ZM36.6718 53.0729C37.8795 53.0729 39.0397 53.1154 40.1947 53.057C40.9781 53.018 41.3707 52.5661 41.3848 51.905C41.3989 51.2599 40.9992 50.746 40.2404 50.7017C39.0662 50.6308 37.8831 50.684 36.67 50.684V53.0729H36.6718ZM36.6577 48.4846C37.7528 48.435 38.7809 48.5928 39.795 48.3872C40.3126 48.2826 40.7088 47.9955 40.7334 47.3646C40.7545 46.7709 40.5133 46.3669 39.9517 46.2269C38.8602 45.9539 37.7581 46.1046 36.6577 46.1188V48.4846Z" fill="white"/>
<path d="M12.5698 43.8164C14.6472 43.8466 16.6701 43.7207 18.6877 43.8944C20.774 44.0734 21.9746 45.6436 21.5697 47.5682C21.4095 48.332 20.906 48.8371 20.3426 49.2784C20.3549 49.4857 20.5204 49.4981 20.6261 49.546C21.8391 50.0972 22.3408 51.0701 22.2827 52.3674C22.2211 53.7196 21.4852 54.5702 20.2634 55.0328C19.7053 55.2437 19.119 55.35 18.524 55.3553C16.6789 55.373 14.8321 55.3801 12.987 55.389C12.8585 55.389 12.73 55.3713 12.5715 55.3589V43.8147L12.5698 43.8164ZM15.0169 53.1046C16.2528 53.1135 17.4571 53.1968 18.6542 53.0514C19.3514 52.9664 19.7194 52.5322 19.7335 51.9261C19.7475 51.2969 19.4324 50.8308 18.737 50.7281C17.5046 50.5455 16.2599 50.6465 15.0169 50.6731V53.1046ZM15.0134 48.4756C16.0803 48.4561 17.0856 48.5695 18.0838 48.4011C18.6789 48.3001 19.0873 47.9634 19.1014 47.2971C19.1137 46.7193 18.7458 46.2603 18.1138 46.1664C17.0944 46.014 16.068 46.0725 15.0117 46.1061V48.4774L15.0134 48.4756Z" fill="white"/>
<path d="M31.0926 49.3849C32.4394 49.9095 33.1436 50.8328 33.1155 52.2382C33.0838 53.7517 32.2017 54.799 30.6454 55.1677C30.2211 55.2687 29.7792 55.3449 29.3461 55.3484C27.3743 55.3679 25.4007 55.3573 23.3849 55.3573V43.8184C25.5539 43.8663 27.7053 43.6572 29.8391 43.9567C31.038 44.1232 31.994 44.7542 32.362 45.9947C32.7317 47.237 32.3708 48.1621 31.0944 49.3849H31.0926ZM25.8426 53.1013C27.0961 53.1137 28.3215 53.2076 29.538 53.041C30.1331 52.9595 30.538 52.6033 30.5591 51.9351C30.5785 51.3184 30.2511 50.8364 29.5662 50.7318C28.3338 50.5457 27.0909 50.6503 25.8426 50.6733V53.0995V53.1013ZM25.8426 46.078V48.4581C26.8778 48.4722 27.8813 48.5609 28.8796 48.4049C29.582 48.295 29.9289 47.8786 29.9218 47.2601C29.9148 46.6486 29.5521 46.2481 28.8408 46.1507C27.8637 46.016 26.8813 46.0975 25.8426 46.078Z" fill="white"/>
<path d="M37.9112 36.377C38.1436 37.1461 38.3725 37.9011 38.6154 38.7074H33.4517C33.1172 39.7796 32.7898 40.8288 32.4588 41.8921H23.9271C23.6085 40.8677 23.2828 39.8239 22.9412 38.7305H17.8303C17.9377 37.8886 18.2599 37.1709 18.4624 36.3787H37.9112V36.377Z" fill="white"/>
<path d="M44.4129 54.6485C43.9059 54.17 43.9077 53.6206 44.4165 53.2023L44.4006 53.1899C44.1453 53.6791 44.1717 54.17 44.4006 54.6591L44.4129 54.6485Z" fill="white"/>
<path d="M46.2492 53.0658C46.7809 53.5408 46.8196 53.9998 46.3848 54.6519L46.3936 54.6608C46.5344 54.1096 46.6101 53.5656 46.2598 53.0552L46.251 53.064L46.2492 53.0658Z" fill="white"/>
<path d="M44.5415 52.9309C44.9499 52.6066 45.376 52.4542 45.8496 52.8033L45.8619 52.7891C45.4007 52.6633 44.9676 52.8157 44.5292 52.922L44.5415 52.9309Z" fill="white"/>
<path d="M46.383 54.6519C46.008 55.1729 45.5432 55.3607 44.9411 55.0453L44.9288 55.0612C45.4833 55.18 45.9429 54.9425 46.3918 54.6625L46.383 54.6536V54.6519Z" fill="white"/>
<path d="M45.8478 52.8037C46.0555 52.7771 46.2157 52.8232 46.2474 53.066L46.2562 53.0572C46.1242 52.9685 45.9921 52.8782 45.8601 52.7896L45.8478 52.8037Z" fill="white"/>
<path d="M44.6753 54.9141C44.4904 54.9212 44.3795 54.8556 44.413 54.6465L44.4006 54.6571C44.5256 54.7103 44.6295 54.7812 44.6647 54.9247L44.6753 54.9123V54.9141Z" fill="white"/>
<path d="M44.4164 53.2024C44.3548 53.0641 44.4164 52.9826 44.5397 52.9312L44.5274 52.9224C44.6418 53.0872 44.4763 53.1173 44.4006 53.19L44.4164 53.2024Z" fill="white"/>
<path d="M44.9429 55.0452C44.8355 55.0399 44.6911 55.109 44.6753 54.9141L44.6647 54.9265C44.7792 54.9176 44.876 54.946 44.9288 55.0612L44.9411 55.0452H44.9429Z" fill="white"/>
<path d="M66.6153 42.5585V40.4513C67.6294 40.4513 68.6329 40.4088 69.6329 40.4655C70.3547 40.5063 70.735 40.9617 70.7086 41.5608C70.6839 42.1137 70.2861 42.516 69.5889 42.5479C68.61 42.5922 67.6259 42.5585 66.6153 42.5585Z" fill="white"/>
<path d="M66.603 38.571V36.4993C67.485 36.4993 68.3547 36.4568 69.2174 36.5153C69.7332 36.5507 70.1241 36.875 70.1487 37.4563C70.1734 38.0305 69.8441 38.3584 69.3125 38.4771C68.4093 38.6791 67.5044 38.5374 66.603 38.571Z" fill="white"/>
<path d="M145.022 26.3179V20.3509C145.978 20.3491 146.937 20.1985 147.868 20.5317C149.159 20.9925 149.853 22.3163 149.648 23.8723C149.476 25.1944 148.442 26.201 147.078 26.3091C146.407 26.3623 145.728 26.3179 145.02 26.3179H145.022Z" fill="white"/>
<path d="M95.4445 23.1526V20.3596C96.4128 20.3383 97.3687 20.2266 98.3089 20.4251C99.0342 20.5775 99.3969 21.1801 99.323 21.9067C99.2525 22.5961 98.7085 23.1118 97.9304 23.1455C97.124 23.1809 96.3142 23.1526 95.4462 23.1526H95.4445Z" fill="white"/>
<path d="M113.64 26.3213V20.3578C114.492 20.3313 115.325 20.2391 116.138 20.4287C117.576 20.7637 118.464 22.0946 118.323 23.6311C118.184 25.1464 117.115 26.2256 115.622 26.316C114.988 26.355 114.349 26.3231 113.64 26.3231V26.3213Z" fill="white"/>
<path d="M68.8266 20.9429C69.2914 22.0895 69.6822 23.0536 70.0994 24.0815H67.5607C67.9692 23.0678 68.36 22.1001 68.8266 20.9429Z" fill="white"/>
<path d="M46.082 54.5564C45.545 54.5936 45.5626 54.1984 45.332 54.1505C45.0256 54.1293 45.2351 54.5404 44.9235 54.5422C44.7017 54.1293 44.8883 53.6809 44.8161 53.2609C45.1454 53.1138 45.4271 53.1776 45.67 53.1971C46.4658 53.5462 45.3778 54.1665 46.082 54.5546V54.5564ZM45.7035 53.6578C45.4312 53.47 45.2504 53.5125 45.1612 53.7854C45.3496 53.8918 45.5186 53.906 45.7035 53.6578Z" fill="white"/>
</g>
<defs>
<clipPath id="clip0_334_2246">
<rect width="157.612" height="60" fill="white" transform="translate(0.767029 0.000488281)"/>
</clipPath>
</defs>
</svg>
