<svg width="365" height="84" viewBox="0 0 365 84" fill="none" xmlns="http://www.w3.org/2000/svg">
<path fill-rule="evenodd" clip-rule="evenodd" d="M302.338 40.0837H310.705L311.87 34.273H303.497L304.948 27.1842H297.679L296.281 34.273H291.223L290.058 40.0837H295.117L292.155 54.7338C291.982 55.6058 291.922 56.4178 291.922 57.1766C291.922 62.4083 295.523 65.4901 300.814 65.4901C303.37 65.4901 306.106 65.0241 308.309 63.633L307.031 58.2882C305.813 59.1002 304.355 59.5062 302.964 59.5062C300.408 59.5062 299.303 58.1684 299.303 56.0184C299.303 55.6124 299.363 55.1465 299.423 54.6806L302.332 40.0904L302.338 40.0837ZM137.26 37.3547C137.26 29.2143 131.277 24.3953 120.867 24.3953H103.487L95.347 65.084H106.855L109.005 54.2745H114.816L120.86 65.084H132.894L125.978 52.8768C133.067 50.434 137.254 44.8562 137.254 37.3547H137.26ZM117.612 45.3753C122.67 45.3753 125.632 42.9325 125.632 38.4596C125.632 35.0318 123.189 33.4609 119.236 33.4609H113.192L110.749 45.3753H117.605H117.612ZM173.47 46.8863C173.47 38.6327 167.539 33.0549 157.948 33.0549C146.612 33.0549 138.885 40.7826 138.885 51.246C138.885 60.0254 145.514 65.6032 155.625 65.6032C160.39 65.6032 165.096 64.4384 169.05 61.5363L164.457 54.6207C162.367 56.3046 159.632 57.1766 156.843 57.1766C152.483 57.1766 150.1 55.5459 149.694 52.0581H172.831C173.177 50.4872 173.47 48.7433 173.47 46.8863ZM157.428 40.9024C153.708 40.9024 151.385 43.1123 150.34 46.2539H163.299C163.359 42.8793 160.976 40.9024 157.428 40.9024ZM217.24 18.3516C212.94 18.3516 210.151 21.0806 210.151 24.6283C210.151 27.6501 212.594 30.0929 216.488 30.0929C220.788 30.0929 223.637 27.4172 223.637 23.6432C223.637 20.6213 221.141 18.3516 217.24 18.3516ZM197.478 29.9199C198.696 29.9199 199.801 30.266 200.733 30.8517L204.98 23.1173C203.063 22.0124 200.327 21.4333 197.365 21.4333C188.938 21.4333 183.993 26.259 182.542 33.4676L182.309 34.7455H177.656L175.972 42.9991H180.625L176.205 65.084H187.248L191.667 42.9991H198.816L200.447 34.7455H193.005L193.125 34.1066C193.764 31.2577 195.042 29.9199 197.485 29.9199H197.478ZM203.176 65.084H214.158L220.435 33.5807H209.446L203.169 65.084H203.176ZM230.845 65.6631C238.986 65.6631 243.925 62.0023 245.961 51.7718L251.426 24.3953H229.514L228.236 30.7319H242.766L238.467 52.1779C237.481 57.1766 234.979 59.2666 230.972 59.2666C227.544 59.2666 224.988 57.6359 223.417 54.7338L218.299 59.6194C220.568 63.4533 224.928 65.6631 230.852 65.6631H230.845ZM285.718 47.2923C285.718 38.8058 280.021 33.6872 271.421 33.6872C261.017 33.6872 253.516 41.3018 253.516 51.8251C253.516 60.0787 259.447 65.4834 268.805 65.4834C273.571 65.4834 278.277 64.0856 281.531 61.1836L278.51 56.1249C276.36 58.1617 273.105 59.3199 269.557 59.3199C263.573 59.3199 260.725 56.6441 260.605 51.7053H285.252C285.545 50.3674 285.718 48.8565 285.718 47.2856V47.2923ZM271.068 39.5047C266.129 39.5047 262.582 42.3535 261.244 46.8863H279.029C279.089 42.1205 275.894 39.5047 271.068 39.5047Z" fill="white"/>
<path fill-rule="evenodd" clip-rule="evenodd" d="M23.9753 40.7491L21.6456 57.1365C24.3147 60.7241 27.909 63.5663 32.0225 65.3301L34.1059 50.68H40.6488L60.5306 79.714C63.9785 78.0167 67.1667 75.8601 70.0022 73.3241C78.6019 65.6363 84.0133 54.4541 84.0133 42.0071C84.0067 18.804 65.2032 0.000488281 42 0.000488281C41.767 0.000488281 41.5407 0.000488281 41.3078 0.000488281C18.4308 0.37323 0 19.0369 0 42.0005C0 58.7472 9.79778 73.2043 23.9753 79.9469C29.4399 82.5495 35.5502 84.0005 42 84.0005C44.4561 84.0005 46.859 83.7875 49.1953 83.3881L41.7937 72.572C35.1309 72.5254 28.9807 70.3488 23.9753 66.6946C16.3674 61.1301 11.4285 52.1444 11.4285 41.9938C11.4285 25.8927 23.8754 12.6937 39.677 11.5022C40.4425 11.4423 41.2212 11.4157 42.0067 11.4157C58.8932 11.4157 72.5848 25.1073 72.5848 41.9938C72.5848 50.5203 69.097 58.2281 63.4726 63.7726L53.3753 49.0293C66.7407 42.0271 61.8552 21.6861 46.6926 21.6861H26.691L25.2799 31.617H37.4739L35.517 26.8845C42.193 29.8664 48.7027 33.2011 55.3854 36.1764C48.7027 39.1517 42.193 42.4864 35.517 45.4683L37.4739 40.7425H23.9819L23.9753 40.7491Z" fill="#4696D1"/>
<path d="M361.228 74.3306C363.092 74.3306 364.146 75.1932 364.146 76.6522C364.146 78.5479 362.751 79.73 360.525 79.73H358.864L358.459 81.7854H356.723L358.214 74.3306H361.228ZM360.6 78.3242C361.739 78.3242 362.4 77.7917 362.4 76.8013C362.4 76.0771 361.888 75.7363 361.015 75.7363H359.663L359.141 78.3242H360.6Z" fill="white"/>
<path d="M351.845 81.9132C349.97 81.9132 348.842 80.9121 348.842 79.304C348.842 79.0484 348.873 78.7822 348.927 78.5053L349.757 74.3306H351.493L350.663 78.4733C350.62 78.7076 350.599 78.91 350.599 79.1017C350.599 80.0069 351.11 80.4435 352.036 80.4435C353.08 80.4435 353.687 79.8684 353.975 78.4733L354.805 74.3306H356.499L355.657 78.5798C355.21 80.7843 353.943 81.9132 351.845 81.9132Z" fill="white"/>
<path d="M343.21 81.9131C340.942 81.9131 339.579 80.5925 339.579 78.6755C339.579 76.1302 341.442 74.2026 344.19 74.2026C346.459 74.2026 347.822 75.5232 347.822 77.4402C347.822 79.9855 345.958 81.9131 343.21 81.9131ZM343.359 80.4434C345.042 80.4434 346.075 79.1122 346.075 77.536C346.075 76.4284 345.351 75.6723 344.041 75.6723C342.358 75.6723 341.325 77.0035 341.325 78.5797C341.325 79.6873 342.05 80.4434 343.359 80.4434Z" fill="white"/>
<path d="M338.957 76.6416C338.957 78.0473 338.159 79.0697 336.827 79.4851L338.127 81.7854H336.306L335.134 79.698H333.664L333.249 81.7854H331.513L333.004 74.3306H336.039C337.892 74.3306 338.957 75.1825 338.957 76.6416ZM335.4 78.3242C336.54 78.3242 337.211 77.7917 337.211 76.8013C337.211 76.0771 336.7 75.7363 335.816 75.7363H334.453L333.931 78.3242H335.4Z" fill="white"/>
<path d="M328.675 80.1772L329.112 77.9407H330.688L330.07 81.0078C329.314 81.5829 328.292 81.9131 327.216 81.9131C324.958 81.9131 323.531 80.6031 323.531 78.6755C323.531 76.1302 325.395 74.2026 328.217 74.2026C329.644 74.2026 330.688 74.6606 331.327 75.5019L330.092 76.503C329.591 75.9066 328.973 75.6723 328.143 75.6723C326.396 75.6723 325.278 76.929 325.278 78.569C325.278 79.6873 326.023 80.4434 327.44 80.4434C327.876 80.4434 328.281 80.3582 328.675 80.1772Z" fill="white"/>
<path d="M316.088 81.9131C314.874 81.9131 313.724 81.551 313.096 81.0824L313.799 79.7512C314.48 80.2517 315.375 80.5286 316.259 80.5286C317.207 80.5286 317.803 80.1985 317.803 79.6553C317.803 78.4625 314.107 79.1015 314.107 76.7266C314.107 75.1931 315.449 74.2026 317.515 74.2026C318.516 74.2026 319.443 74.4263 320.093 74.8416L319.443 76.1622C318.879 75.7788 318.154 75.5871 317.42 75.5871C316.418 75.5871 315.833 75.9705 315.833 76.503C315.822 77.7277 319.528 77.0887 319.528 79.3784C319.528 80.9226 318.165 81.9131 316.088 81.9131Z" fill="white"/>
<path d="M311.513 74.3306H313.217L311.726 81.7854H310.31L307.53 77.1208L306.593 81.7854H304.889L306.38 74.3306H307.807L310.586 79.0058L311.513 74.3306Z" fill="white"/>
<path d="M299.769 81.9131C297.501 81.9131 296.137 80.5925 296.137 78.6755C296.137 76.1302 298.001 74.2026 300.749 74.2026C303.017 74.2026 304.38 75.5232 304.38 77.4402C304.38 79.9855 302.517 81.9131 299.769 81.9131ZM299.918 80.4434C301.601 80.4434 302.634 79.1122 302.634 77.536C302.634 76.4284 301.91 75.6723 300.6 75.6723C298.917 75.6723 297.884 77.0035 297.884 78.5797C297.884 79.6873 298.608 80.4434 299.918 80.4434Z" fill="white"/>
<path d="M292.409 81.7854L293.9 74.3306H295.635L294.145 81.7854H292.409Z" fill="white"/>
<path d="M287.37 81.7854L288.573 75.7363H286.187L286.475 74.3306H292.971L292.684 75.7363H290.309L289.095 81.7854H287.37Z" fill="white"/>
<path d="M281.072 81.9132C279.197 81.9132 278.068 80.9121 278.068 79.304C278.068 79.0484 278.1 78.7822 278.154 78.5053L278.984 74.3306H280.72L279.89 78.4733C279.847 78.7076 279.826 78.91 279.826 79.1017C279.826 80.0069 280.337 80.4435 281.263 80.4435C282.307 80.4435 282.914 79.8684 283.202 78.4733L284.032 74.3306H285.726L284.884 78.5798C284.437 80.7843 283.17 81.9132 281.072 81.9132Z" fill="white"/>
<path d="M271.223 81.7854L272.714 74.3306H274.45L273.236 80.3796H276.974L276.687 81.7854H271.223Z" fill="white"/>
<path d="M266.104 81.9131C263.835 81.9131 262.472 80.5925 262.472 78.6755C262.472 76.1302 264.336 74.2026 267.083 74.2026C269.352 74.2026 270.715 75.5232 270.715 77.4402C270.715 79.9855 268.851 81.9131 266.104 81.9131ZM266.253 80.4434C267.935 80.4434 268.968 79.1122 268.968 77.536C268.968 76.4284 268.244 75.6723 266.934 75.6723C265.252 75.6723 264.219 77.0035 264.219 78.5797C264.219 79.6873 264.943 80.4434 266.253 80.4434Z" fill="white"/>
<path d="M258.045 81.9131C256.831 81.9131 255.681 81.551 255.052 81.0824L255.755 79.7512C256.437 80.2517 257.331 80.5286 258.215 80.5286C259.163 80.5286 259.76 80.1985 259.76 79.6553C259.76 78.4625 256.064 79.1015 256.064 76.7266C256.064 75.1931 257.406 74.2026 259.472 74.2026C260.473 74.2026 261.4 74.4263 262.049 74.8416L261.4 76.1622C260.835 75.7788 260.111 75.5871 259.376 75.5871C258.375 75.5871 257.789 75.9705 257.789 76.503C257.779 77.7277 261.485 77.0887 261.485 79.3784C261.485 80.9226 260.122 81.9131 258.045 81.9131Z" fill="white"/>
<path d="M243.632 81.7854L245.123 74.3306H248.243C250.544 74.3306 251.917 75.534 251.917 77.4403C251.917 80.0708 250.032 81.7854 247.274 81.7854H243.632ZM245.645 80.369H247.327C249.117 80.369 250.171 79.1549 250.171 77.5361C250.171 76.4286 249.457 75.747 248.052 75.747H246.571L245.645 80.369Z" fill="white"/>
<path d="M237.205 81.7854L238.695 74.3306H240.431L239.217 80.3796H242.955L242.668 81.7854H237.205Z" fill="white"/>
<path d="M236.897 75.715H232.988L232.669 77.3338H236.13L235.864 78.6757H232.392L232.051 80.4009H236.119L235.832 81.7854H230.06L231.551 74.3306H237.184L236.897 75.715Z" fill="white"/>
<path d="M226.565 81.7854L228.056 74.3306H229.792L228.301 81.7854H226.565Z" fill="white"/>
<path d="M227.407 74.3306L223.531 79.1975L223.019 81.7854H221.294L221.816 79.123L219.899 74.3306H221.624L222.955 77.6533L225.629 74.3306H227.407Z" fill="white"/>
<path d="M215.819 76.1411H216.852L212.847 82.4032C212.112 83.5534 211.537 83.9154 210.653 83.9154C210.11 83.9154 209.535 83.7344 209.237 83.4149L209.769 82.6588C210.004 82.8931 210.323 83.0422 210.728 83.0422C211.197 83.0422 211.537 82.8292 211.942 82.2008L212.23 81.7535L210.866 76.1411H211.889L212.975 80.6566L215.819 76.1411Z" fill="white"/>
<path d="M207.586 76.0878C209.024 76.0878 210.078 76.993 210.078 78.5159C210.078 80.4542 208.715 81.8493 206.884 81.8493C205.882 81.8493 205.169 81.4659 204.818 80.763L204.605 81.7854H203.635L205.212 73.8833H206.234L205.648 76.7907C206.149 76.3434 206.798 76.0878 207.586 76.0878ZM206.841 80.9547C208.108 80.9547 209.045 79.9643 209.045 78.5692C209.045 77.5681 208.438 76.9824 207.363 76.9824C206.085 76.9824 205.158 77.9728 205.158 79.3679C205.158 80.3584 205.765 80.9547 206.841 80.9547Z" fill="white"/>
<path d="M199.384 73.8833H200.406L198.83 81.7854H197.85L197.989 81.0932C197.488 81.5724 196.807 81.8493 195.997 81.8493C194.56 81.8493 193.505 80.9334 193.505 79.4105C193.505 77.4723 194.868 76.0878 196.7 76.0878C197.669 76.0878 198.383 76.4392 198.745 77.1102L199.384 73.8833ZM196.221 80.9547C197.499 80.9547 198.426 79.9643 198.426 78.5692C198.426 77.5681 197.818 76.9824 196.743 76.9824C195.476 76.9824 194.538 77.9728 194.538 79.3679C194.538 80.3584 195.145 80.9547 196.221 80.9547Z" fill="white"/>
<path d="M192.629 79.2828H187.996V79.3467C187.996 80.3797 188.571 80.9548 189.785 80.9548C190.488 80.9548 191.127 80.6992 191.532 80.3052L191.968 81.04C191.415 81.5619 190.563 81.8494 189.7 81.8494C188.028 81.8494 186.995 80.8909 186.995 79.4C186.995 77.483 188.337 76.0879 190.179 76.0879C191.702 76.0879 192.703 77.0038 192.703 78.5267C192.703 78.7929 192.671 79.0485 192.629 79.2828ZM190.137 76.9399C189.114 76.9399 188.358 77.5576 188.102 78.5373H191.745C191.798 77.5043 191.138 76.9399 190.137 76.9399Z" fill="white"/>
<path d="M184.7 76.9825C185.212 76.3435 185.925 76.0879 186.937 76.0879L186.745 77.0783C186.649 77.0677 186.585 77.0677 186.479 77.0677C185.35 77.0677 184.605 77.6641 184.349 78.9633L183.785 81.7855H182.762L183.88 76.1411H184.86L184.7 76.9825Z" fill="white"/>
<path d="M181.875 79.2828H177.242V79.3467C177.242 80.3797 177.817 80.9548 179.031 80.9548C179.734 80.9548 180.373 80.6992 180.778 80.3052L181.215 81.04C180.661 81.5619 179.809 81.8494 178.946 81.8494C177.274 81.8494 176.241 80.8909 176.241 79.4C176.241 77.483 177.583 76.0879 179.425 76.0879C180.948 76.0879 181.949 77.0038 181.949 78.5267C181.949 78.7929 181.917 79.0485 181.875 79.2828ZM179.383 76.9399C178.36 76.9399 177.604 77.5576 177.349 78.5373H180.991C181.044 77.5043 180.384 76.9399 179.383 76.9399Z" fill="white"/>
<path d="M175.552 76.1411H176.521L173.358 81.7855H172.357L171.494 77.5149L169.045 81.7855H168.065L166.989 76.1411H167.916L168.747 80.614L171.303 76.1411H172.176L173.028 80.614L175.552 76.1411Z" fill="white"/>
<path d="M162.845 81.8494C161.237 81.8494 160.194 80.8803 160.194 79.4106C160.194 77.5043 161.578 76.0879 163.506 76.0879C165.114 76.0879 166.147 77.0357 166.147 78.516C166.147 80.433 164.773 81.8494 162.845 81.8494ZM162.909 80.9548C164.187 80.9548 165.114 79.9644 165.114 78.5693C165.114 77.5682 164.507 76.9825 163.431 76.9825C162.164 76.9825 161.227 77.9729 161.227 79.368C161.227 80.3584 161.834 80.9548 162.909 80.9548Z" fill="white"/>
<path d="M156.896 76.0879C158.334 76.0879 159.388 76.9931 159.388 78.516C159.388 80.4543 158.025 81.8494 156.193 81.8494C155.224 81.8494 154.51 81.4873 154.148 80.827L153.552 83.8516H152.53L154.063 76.1411H155.043L154.904 76.844C155.405 76.3648 156.076 76.0879 156.896 76.0879ZM156.151 80.9548C157.418 80.9548 158.355 79.9644 158.355 78.5693C158.355 77.5682 157.748 76.9825 156.672 76.9825C155.394 76.9825 154.468 77.9729 154.468 79.368C154.468 80.3584 155.075 80.9548 156.151 80.9548Z" fill="white"/>
</svg>
