<svg width="669" height="180" viewBox="0 0 669 180" fill="none" xmlns="http://www.w3.org/2000/svg">
<path fill-rule="evenodd" clip-rule="evenodd" d="M647.868 85.8922H665.797L668.293 73.4406H650.35L653.459 58.2504H637.884L634.889 73.4406H624.049L621.553 85.8922H632.393L626.046 117.285C625.675 119.154 625.546 120.894 625.546 122.52C625.546 133.731 633.263 140.334 644.602 140.334C650.079 140.334 655.941 139.336 660.662 136.355L657.924 124.902C655.313 126.642 652.19 127.512 649.209 127.512C643.732 127.512 641.364 124.645 641.364 120.038C641.364 119.168 641.492 118.17 641.621 117.171L647.854 85.9065L647.868 85.8922ZM294.13 80.0444C294.13 62.6006 281.307 52.2742 259 52.2742H221.759L204.315 139.464H228.976L233.583 116.301H246.034L258.985 139.464H284.773L269.954 113.306C285.144 108.071 294.115 96.1189 294.115 80.0444H294.13ZM252.025 97.2314C262.865 97.2314 269.212 91.9968 269.212 82.412C269.212 75.0666 263.977 71.7005 255.505 71.7005H242.554L237.32 97.2314H252.011H252.025ZM371.721 100.469C371.721 82.7829 359.012 70.8304 338.459 70.8304C314.169 70.8304 297.61 87.3899 297.61 109.811C297.61 128.624 311.816 140.577 333.481 140.577C343.694 140.577 353.778 138.081 362.25 131.862L352.409 117.043C347.93 120.651 342.068 122.52 336.092 122.52C326.749 122.52 321.643 119.025 320.773 111.552H370.351C371.093 108.185 371.721 104.449 371.721 100.469ZM337.347 87.6466C329.374 87.6466 324.396 92.3819 322.157 99.1141H349.927C350.055 91.8827 344.949 87.6466 337.347 87.6466ZM465.515 39.3233C456.301 39.3233 450.325 45.1712 450.325 52.7734C450.325 59.2488 455.559 64.4834 463.903 64.4834C473.117 64.4834 479.221 58.7496 479.221 50.6624C479.221 44.187 473.873 39.3233 465.515 39.3233ZM423.168 64.1125C425.778 64.1125 428.145 64.8542 430.142 66.1094L439.242 49.5357C435.134 47.168 429.272 45.9271 422.925 45.9271C404.868 45.9271 394.271 56.2678 391.161 71.7147L390.662 74.4533H380.692L377.084 92.1395H387.054L377.583 139.464H401.245L410.716 92.1395H426.035L429.529 74.4533H413.583L413.84 73.084C415.209 66.9794 417.947 64.1125 423.182 64.1125H423.168ZM435.377 139.464H458.911L472.361 71.9572H448.813L435.363 139.464H435.377ZM494.668 140.705C512.112 140.705 522.695 132.861 527.06 110.938L538.77 52.2742H491.816L489.077 65.8526H520.214L511 111.808C508.889 122.52 503.526 126.998 494.939 126.998C487.594 126.998 482.117 123.504 478.751 117.285L467.783 127.754C472.646 135.97 481.989 140.705 494.683 140.705H494.668ZM612.253 101.339C612.253 83.1537 600.044 72.1854 581.616 72.1854C559.323 72.1854 543.248 88.5024 543.248 111.052C543.248 128.739 555.957 140.32 576.011 140.32C586.223 140.32 596.307 137.325 603.282 131.106L596.806 120.266C592.199 124.631 585.225 127.113 577.622 127.113C564.8 127.113 558.695 121.379 558.439 110.796H611.255C611.882 107.929 612.253 104.691 612.253 101.325V101.339ZM580.86 84.6513C570.277 84.6513 562.675 90.756 559.808 100.469H597.919C598.047 90.2567 591.201 84.6513 580.86 84.6513Z" fill="#001630"/>
<path fill-rule="evenodd" clip-rule="evenodd" d="M51.3756 87.3185L46.3835 122.434C52.103 130.122 59.8051 136.212 68.6197 139.992L73.084 108.599H87.1046L129.708 170.815C137.097 167.177 143.929 162.556 150.005 157.122C168.433 140.648 180.029 116.686 180.029 90.0143C180.014 40.2932 139.721 0 90 0C89.5008 0 89.0159 0 88.5167 0C39.4945 0.798732 0 40.7924 0 90C0 125.886 20.9953 156.865 51.3756 171.314C63.0856 176.891 76.1791 180 90 180C95.2631 180 100.412 179.544 105.418 178.688L89.5579 155.51C75.2805 155.41 62.1014 150.746 51.3756 142.916C35.0729 130.992 24.4897 111.737 24.4897 89.9857C24.4897 55.4834 51.1617 27.1997 85.0222 24.6466C86.6625 24.5182 88.3312 24.4612 90.0143 24.4612C126.2 24.4612 155.539 53.8003 155.539 89.9857C155.539 108.257 148.065 124.773 136.013 136.655L114.376 105.062C143.016 90.0571 132.547 46.4691 100.055 46.4691H57.1949L54.1712 67.7496H80.3011L76.1078 57.6086C90.4137 63.9984 104.363 71.1442 118.683 77.5198C104.363 83.8954 90.4137 91.0412 76.1078 97.4311L80.3011 87.3043H51.3899L51.3756 87.3185Z" fill="#3693FF"/>
</svg>
