<svg xmlns="http://www.w3.org/2000/svg" xmlns:xlink="http://www.w3.org/1999/xlink" viewBox="0 0 900 900" width="900" height="900" preserveAspectRatio="xMidYMid meet" style="width: 100%; height: 100%; transform: translate3d(0px, 0px, 0px); content-visibility: visible;"><defs><clipPath id="__lottie_element_6"><rect width="900" height="900" x="0" y="0"></rect></clipPath></defs><g clip-path="url(#__lottie_element_6)"><g transform="matrix(1,0,0,1,0,0)" opacity="1" style="display: block;"><g opacity="1" transform="matrix(1,0,0,1,263.24200439453125,453.6099853515625)"><path fill="rgb(245,249,252)" fill-opacity="1" d=" M106.99299621582031,-446.3900146484375 C-136.80599975585938,-402.4880065917969 -299.3840026855469,-169.64500427246094 -256.33099365234375,74.51799774169922 C-213.2790069580078,318.6820068359375 19.131000518798828,481.87701416015625 263.24200439453125,439.74798583984375 C263.24200439453125,439.74798583984375 106.99299621582031,-446.3900146484375 106.99299621582031,-446.3900146484375z"></path></g><g opacity="1" transform="matrix(1,0,0,1,636.7579956054688,446.3900146484375)"><path fill="rgb(245,249,252)" fill-opacity="1" d=" M256.33099365234375,-74.51799774169922 C213.2790069580078,-318.6809997558594 -19.131000518798828,-481.87701416015625 -263.24200439453125,-439.74798583984375 C-263.24200439453125,-439.74798583984375 -106.99400329589844,446.3900146484375 -106.99400329589844,446.3900146484375 C136.80599975585938,402.4880065917969 299.3840026855469,169.64599609375 256.33099365234375,-74.51799774169922z"></path></g></g><g transform="matrix(1,0,0,1,0,0)" opacity="1" style="display: block;"><g opacity="1" transform="matrix(1,0,0,1,259.5140075683594,813.52001953125)"><path fill="rgb(0,22,48)" fill-opacity="1" d=" M93.83000183105469,75.96299743652344 C93.83000183105469,75.96299743652344 61.39699935913086,-61.28499984741211 61.39699935913086,-61.28499984741211 C61.39699935913086,-61.28499984741211 -91.74299621582031,-75.96199798583984 -91.74299621582031,-75.96199798583984 C-91.74299621582031,-75.96199798583984 -93.83000183105469,-14.822999954223633 -93.83000183105469,-14.822999954223633 C-40.176998138427734,28.97599983215332 23.770999908447266,60.624000549316406 93.83000183105469,75.96299743652344z"></path></g><g opacity="1" transform="matrix(1,0,0,1,383.7430114746094,449.4469909667969)"><path fill="rgb(0,22,48)" fill-opacity="1" d=" M-33.257999420166016,40.48699951171875 C-33.257999420166016,40.48699951171875 3.1549999713897705,42.9379997253418 3.1549999713897705,42.9379997253418 C5.307000160217285,43.08300018310547 7.677999973297119,41.486000061035156 8.394000053405762,39.37300109863281 C8.394000053405762,39.37300109863281 35.81999969482422,-36.39699935913086 35.81999969482422,-36.39699935913086 C36.56999969482422,-38.507999420166016 35.44300079345703,-40.34000015258789 33.257999420166016,-40.48699951171875 C33.257999420166016,-40.48699951171875 -3.1559998989105225,-42.9379997253418 -3.1559998989105225,-42.9379997253418 C-5.308000087738037,-43.08300018310547 -7.677999973297119,-41.486000061035156 -8.395000457763672,-39.37300109863281 C-8.395000457763672,-39.37300109863281 -35.81999969482422,36.39699935913086 -35.81999969482422,36.39699935913086 C-36.56999969482422,38.507999420166016 -35.444000244140625,40.34000015258789 -33.257999420166016,40.48699951171875z"></path></g><g opacity="1" transform="matrix(1,0,0,1,345.4859924316406,538.3469848632812)"><path fill="rgb(255,255,255)" fill-opacity="1" d=" M41.459999084472656,-91.12699890136719 C38.11800003051758,-91.64900207519531 33.856998443603516,-91.30699920654297 32.61899948120117,-88.1780014038086 C31.506000518798828,-85.40499877929688 33.6619987487793,-82.51399993896484 34.66299819946289,-79.66500091552734 C36.97800064086914,-73.2509994506836 33.30500030517578,-66.38099670410156 32.090999603271484,-59.67399978637695 C30.731000900268555,-52.250999450683594 33.89500045776367,-50.2599983215332 38.35300064086914,-44.16699981689453 C39.29199981689453,-42.87799835205078 40.74399948120117,-41.323001861572266 42.42599868774414,-39.75299835205078 C35.25600051879883,-5.691999912261963 21.46500015258789,0.9729999899864197 14.588000297546387,27.395000457763672 C5.214000225067139,-15.998000144958496 -15.465999603271484,-55.55799865722656 -18.094999313354492,-63.21699905395508 C-18.094999313354492,-63.21699905395508 -68.43000030517578,-41.444000244140625 -68.43000030517578,-41.444000244140625 C-54.93600082397461,6.9770002365112305 -36.70199966430664,32.57400131225586 -6.007999897003174,72.38500213623047 C-1.9880000352859497,77.58899688720703 2.4560000896453857,82.88700103759766 8.555000305175781,85.25199890136719 C15.541000366210938,91.64800262451172 23.621000289916992,90.63600158691406 30.757999420166016,81.01799774169922 C58.26599884033203,49.5099983215332 56.7760009765625,-11.72700023651123 64.98500061035156,-40.74100112915039 C65.50199890136719,-42.332000732421875 65.95999908447266,-43.94599914550781 66.36199951171875,-45.5 C68.19499969482422,-52.59299850463867 68.43099975585938,-60.05099868774414 66.60099792480469,-67.14399719238281 C61.915000915527344,-85.30000305175781 47.7859992980957,-90.15499877929688 41.459999084472656,-91.12699890136719z"></path><path stroke-linecap="butt" stroke-linejoin="miter" fill-opacity="0" stroke-miterlimit="10" stroke="rgb(0,22,48)" stroke-opacity="1" stroke-width="1" d=" M41.459999084472656,-91.12699890136719 C38.11800003051758,-91.64900207519531 33.856998443603516,-91.30699920654297 32.61899948120117,-88.1780014038086 C31.506000518798828,-85.40499877929688 33.6619987487793,-82.51399993896484 34.66299819946289,-79.66500091552734 C36.97800064086914,-73.2509994506836 33.30500030517578,-66.38099670410156 32.090999603271484,-59.67399978637695 C30.731000900268555,-52.250999450683594 33.89500045776367,-50.2599983215332 38.35300064086914,-44.16699981689453 C39.29199981689453,-42.87799835205078 40.74399948120117,-41.323001861572266 42.42599868774414,-39.75299835205078 C35.25600051879883,-5.691999912261963 21.46500015258789,0.9729999899864197 14.588000297546387,27.395000457763672 C5.214000225067139,-15.998000144958496 -15.465999603271484,-55.55799865722656 -18.094999313354492,-63.21699905395508 C-18.094999313354492,-63.21699905395508 -68.43000030517578,-41.444000244140625 -68.43000030517578,-41.444000244140625 C-54.93600082397461,6.9770002365112305 -36.70199966430664,32.57400131225586 -6.007999897003174,72.38500213623047 C-1.9880000352859497,77.58899688720703 2.4560000896453857,82.88700103759766 8.555000305175781,85.25199890136719 C15.541000366210938,91.64800262451172 23.621000289916992,90.63600158691406 30.757999420166016,81.01799774169922 C58.26599884033203,49.5099983215332 56.7760009765625,-11.72700023651123 64.98500061035156,-40.74100112915039 C65.50199890136719,-42.332000732421875 65.95999908447266,-43.94599914550781 66.36199951171875,-45.5 C68.19499969482422,-52.59299850463867 68.43099975585938,-60.05099868774414 66.60099792480469,-67.14399719238281 C61.915000915527344,-85.30000305175781 47.7859992980957,-90.15499877929688 41.459999084472656,-91.12699890136719z"></path></g><g opacity="1" transform="matrix(1,0,0,1,215.58799743652344,595.2990112304688)"><path fill="rgb(54,147,255)" fill-opacity="1" d=" M103.62200164794922,-73.03099822998047 C103.84500122070312,-74.08000183105469 103.8759994506836,-75.14199829101562 104.06199645996094,-76.19400024414062 C104.06199645996094,-76.19400024414062 127.70899963378906,-86.4229965209961 127.70899963378906,-86.4229965209961 C123.16600036621094,-99.69100189208984 118.11900329589844,-112.8030014038086 111.85600280761719,-125.3489990234375 C105.85900115966797,-137.3470001220703 98.69000244140625,-148.8520050048828 90.03099822998047,-159.1269989013672 C87.00299835205078,-162.71499633789062 83.5999984741211,-166.9340057373047 79.91500091552734,-170.33799743652344 C68.0719985961914,-184.70399475097656 52.762001037597656,-196.11199951171875 35.683998107910156,-202.73500061035156 C29.089000701904297,-193.9810028076172 17.924999237060547,-188.4980010986328 5.513999938964844,-189.33399963378906 C-6.216000080108643,-190.1230010986328 -16.21500015258789,-196.3070068359375 -21.77899932861328,-205.1199951171875 C-40.33300018310547,-199.41400146484375 -75.46700286865234,-179.79400634765625 -94.72000122070312,-161.03199768066406 C-125.45700073242188,-131.07899475097656 -127.70899963378906,-78.14800262451172 -127.70899963378906,-78.14800262451172 C-127.70899963378906,-78.14800262451172 -67.09200286865234,-64.4520034790039 -67.09200286865234,-64.4520034790039 C-52.72100067138672,-31.176000595092773 -35.02799987792969,1.8680000305175781 -41.08399963378906,36.50600051879883 C-44.125,54.01499938964844 -42.10100173950195,121.16500091552734 -49.145999908447266,134.65199279785156 C-64.65399932861328,164.3419952392578 121.81900024414062,205.1199951171875 113.09200286865234,177.63600158691406 C99.8010025024414,135.7790069580078 72.71700286865234,47.2760009765625 91.80799865722656,-16.065000534057617 C102.20700073242188,-50.56999969482422 103.30999755859375,-71.38999938964844 103.62200164794922,-73.03099822998047z"></path><path stroke-linecap="butt" stroke-linejoin="miter" fill-opacity="0" stroke-miterlimit="10" stroke="rgb(0,22,48)" stroke-opacity="1" stroke-width="1" d=" M103.62200164794922,-73.03099822998047 C103.84500122070312,-74.08000183105469 103.8759994506836,-75.14199829101562 104.06199645996094,-76.19400024414062 C104.06199645996094,-76.19400024414062 127.70899963378906,-86.4229965209961 127.70899963378906,-86.4229965209961 C123.16600036621094,-99.69100189208984 118.11900329589844,-112.8030014038086 111.85600280761719,-125.3489990234375 C105.85900115966797,-137.3470001220703 98.69000244140625,-148.8520050048828 90.03099822998047,-159.1269989013672 C87.00299835205078,-162.71499633789062 83.5999984741211,-166.9340057373047 79.91500091552734,-170.33799743652344 C68.0719985961914,-184.70399475097656 52.762001037597656,-196.11199951171875 35.683998107910156,-202.73500061035156 C29.089000701904297,-193.9810028076172 17.924999237060547,-188.4980010986328 5.513999938964844,-189.33399963378906 C-6.216000080108643,-190.1230010986328 -16.21500015258789,-196.3070068359375 -21.77899932861328,-205.1199951171875 C-40.33300018310547,-199.41400146484375 -75.46700286865234,-179.79400634765625 -94.72000122070312,-161.03199768066406 C-125.45700073242188,-131.07899475097656 -127.70899963378906,-78.14800262451172 -127.70899963378906,-78.14800262451172 C-127.70899963378906,-78.14800262451172 -67.09200286865234,-64.4520034790039 -67.09200286865234,-64.4520034790039 C-52.72100067138672,-31.176000595092773 -35.02799987792969,1.8680000305175781 -41.08399963378906,36.50600051879883 C-44.125,54.01499938964844 -42.10100173950195,121.16500091552734 -49.145999908447266,134.65199279785156 C-64.65399932861328,164.3419952392578 121.81900024414062,205.1199951171875 113.09200286865234,177.63600158691406 C99.8010025024414,135.7790069580078 72.71700286865234,47.2760009765625 91.80799865722656,-16.065000534057617 C102.20700073242188,-50.56999969482422 103.30999755859375,-71.38999938964844 103.62200164794922,-73.03099822998047z"></path></g><g opacity="1" transform="matrix(1,0,0,1,235.718994140625,327.9339904785156)"><path fill="rgb(255,255,255)" fill-opacity="1" d=" M35.53499984741211,-80.89700317382812 C34.55099868774414,-80.96299743652344 33.577999114990234,-81.18099975585938 32.64899826049805,-81.51000213623047 C25.77899932861328,-83.91000366210938 19.535999298095703,-84.9020004272461 12.385000228881836,-82.56999969482422 C5.001999855041504,-80.1780014038086 -1.4040000438690186,-74.79299926757812 -5.020999908447266,-67.92900085449219 C-10.817999839782715,-56.91600036621094 -9.810999870300293,-42.518001556396484 -18.363000869750977,-33.47700119018555 C-20.451000213623047,-31.26099967956543 -23.06800079345703,-29.649999618530273 -25.91200065612793,-28.625 C-27.1560001373291,-32.737998962402344 -30.889999389648438,-35.422000885009766 -34.76599884033203,-37.12699890136719 C-36.90700149536133,-38.07099914550781 -39.17499923706055,-38.83100128173828 -41.487998962402344,-38.9109992980957 C-43.801998138427734,-38.99100112915039 -46.24700164794922,-38.24300003051758 -47.880001068115234,-36.566001892089844 C-50.04800033569336,-34.27899932861328 -50.28499984741211,-30.76099967956543 -49.694000244140625,-27.68000030517578 C-48.625999450683594,-22.09600067138672 -45.020999908447266,-17.482999801635742 -40.04800033569336,-15.704000473022461 C-37.02199935913086,-8.694999694824219 -32.082000732421875,-2.4719998836517334 -26.299999237060547,2.555000066757202 C-26.086000442504883,2.759999990463257 -25.83099937438965,2.928999900817871 -25.61400032043457,3.0959999561309814 C-28.957000732421875,14.918999671936035 -32.334999084472656,26.702999114990234 -35.678001403808594,38.52899932861328 C-37.42499923706055,44.72100067138672 -40.48099899291992,66.40899658203125 -38.847999572753906,72.63800048828125 C-36.8849983215332,80.18299865722656 -29.68199920654297,84.9020004272461 -15.345999717712402,84.9020004272461 C0.41499999165534973,84.9020004272461 12.126999855041504,82.09100341796875 15.9399995803833,74.0270004272461 C21.54599952697754,62.172000885009766 4.178999900817871,67.44100189208984 5.9039998054504395,17.56999969482422 C6.2789998054504395,17.635000228881836 38.801998138427734,27.990999221801758 39.82899856567383,13.027999877929688 C41.65999984741211,-13.637999534606934 45.89400100708008,-7.914000034332275 50.28499984741211,-12.22599983215332 C47.22700119018555,-24.929000854492188 45.183998107910156,-36.071998596191406 46.40399932861328,-47.981998443603516 C47.93299865722656,-62.91999816894531 43.27899932861328,-73.4209976196289 35.53499984741211,-80.89700317382812z"></path><path stroke-linecap="butt" stroke-linejoin="miter" fill-opacity="0" stroke-miterlimit="10" stroke="rgb(0,22,48)" stroke-opacity="1" stroke-width="1" d=" M35.53499984741211,-80.89700317382812 C34.55099868774414,-80.96299743652344 33.577999114990234,-81.18099975585938 32.64899826049805,-81.51000213623047 C25.77899932861328,-83.91000366210938 19.535999298095703,-84.9020004272461 12.385000228881836,-82.56999969482422 C5.001999855041504,-80.1780014038086 -1.4040000438690186,-74.79299926757812 -5.020999908447266,-67.92900085449219 C-10.817999839782715,-56.91600036621094 -9.810999870300293,-42.518001556396484 -18.363000869750977,-33.47700119018555 C-20.451000213623047,-31.26099967956543 -23.06800079345703,-29.649999618530273 -25.91200065612793,-28.625 C-27.1560001373291,-32.737998962402344 -30.889999389648438,-35.422000885009766 -34.76599884033203,-37.12699890136719 C-36.90700149536133,-38.07099914550781 -39.17499923706055,-38.83100128173828 -41.487998962402344,-38.9109992980957 C-43.801998138427734,-38.99100112915039 -46.24700164794922,-38.24300003051758 -47.880001068115234,-36.566001892089844 C-50.04800033569336,-34.27899932861328 -50.28499984741211,-30.76099967956543 -49.694000244140625,-27.68000030517578 C-48.625999450683594,-22.09600067138672 -45.020999908447266,-17.482999801635742 -40.04800033569336,-15.704000473022461 C-37.02199935913086,-8.694999694824219 -32.082000732421875,-2.4719998836517334 -26.299999237060547,2.555000066757202 C-26.086000442504883,2.759999990463257 -25.83099937438965,2.928999900817871 -25.61400032043457,3.0959999561309814 C-28.957000732421875,14.918999671936035 -32.334999084472656,26.702999114990234 -35.678001403808594,38.52899932861328 C-37.42499923706055,44.72100067138672 -40.48099899291992,66.40899658203125 -38.847999572753906,72.63800048828125 C-36.8849983215332,80.18299865722656 -29.68199920654297,84.9020004272461 -15.345999717712402,84.9020004272461 C0.41499999165534973,84.9020004272461 12.126999855041504,82.09100341796875 15.9399995803833,74.0270004272461 C21.54599952697754,62.172000885009766 4.178999900817871,67.44100189208984 5.9039998054504395,17.56999969482422 C6.2789998054504395,17.635000228881836 38.801998138427734,27.990999221801758 39.82899856567383,13.027999877929688 C41.65999984741211,-13.637999534606934 45.89400100708008,-7.914000034332275 50.28499984741211,-12.22599983215332 C47.22700119018555,-24.929000854492188 45.183998107910156,-36.071998596191406 46.40399932861328,-47.981998443603516 C47.93299865722656,-62.91999816894531 43.27899932861328,-73.4209976196289 35.53499984741211,-80.89700317382812z"></path></g><g opacity="1" transform="matrix(1,0,0,1,268.9649963378906,332.5190124511719)"><path fill="rgb(0,22,48)" fill-opacity="1" d=" M7.263000011444092,3.7920000553131104 C6.973999977111816,7.625999927520752 -0.17399999499320984,4.97599983215332 -4.658999919891357,-1.8320000171661377 C-8.47700023651123,-7.626999855041504 -3.2109999656677246,-3.4790000915527344 3.4730000495910645,-3.4649999141693115 C8.47700023651123,-3.4539999961853027 7.48799991607666,0.8029999732971191 7.263000011444092,3.7920000553131104z"></path></g><g opacity="1" transform="matrix(1,0,0,1,192.9320068359375,365.9679870605469)"><path fill="rgb(0,22,48)" fill-opacity="1" d=" M99.41799926757812,-147.72999572753906 C95.0989990234375,-160.94400024414062 83.22200012207031,-171.3990020751953 69.5999984741211,-174.02699279785156 C55.94200134277344,-176.656005859375 41.0620002746582,-171.30999755859375 32.16999816894531,-160.61900329589844 C27.660999298095703,-155.1840057373047 24.46500015258789,-148.36599731445312 18.506999969482422,-144.5489959716797 C10.678000450134277,-139.48699951171875 0.5180000066757202,-141.0070037841797 -8.640999794006348,-139.34300231933594 C-22.533000946044922,-136.82000732421875 -39.0880012512207,-125.91100311279297 -43.04199981689453,-112.34200286865234 C-51.01100158691406,-84.86299896240234 -41.452999114990234,-78.89900207519531 -46.597999572753906,-63.4630012512207 C-52.382999420166016,-46.10900115966797 -65.06400299072266,-36.25 -72.93000030517578,-21.39299964904785 C-81.10099792480469,-5.956999778747559 -88.822998046875,18.488000869750977 -82.53900146484375,41.7859992980957 C-75.42900085449219,68.14600372314453 -101.83100128173828,85.6500015258789 -92.7509994506836,115.00800323486328 C-73.68399810791016,176.65699768066406 -13.71500015258789,148.23500061035156 3.3239998817443848,112.98699951171875 C26.47800064086914,65.09100341796875 -0.367000013589859,55.40700149536133 12.722999572753906,18.861000061035156 C23.391000747680664,-10.925000190734863 17.20800018310547,-34.89799880981445 17.20800018310547,-34.89799880981445 C16.993999481201172,-35.104000091552734 16.736000061035156,-35.23400115966797 16.52199935913086,-35.43899917602539 C10.70300006866455,-40.46799850463867 5.800000190734863,-46.68899917602539 2.7750000953674316,-53.698001861572266 C-2.1989998817443848,-55.47700119018555 -5.802999973297119,-60.09000015258789 -6.872000217437744,-65.67400360107422 C-7.4629998207092285,-68.75499725341797 -7.22599983215332,-72.27300262451172 -5.057000160217285,-74.55999755859375 C-3.4619998931884766,-76.23999786376953 -1.0169999599456787,-76.98699951171875 1.3339999914169312,-76.90499877929688 C3.684999942779541,-76.822998046875 5.914999961853027,-76.06500244140625 8.055999755859375,-75.12100219726562 C11.932000160217285,-73.41600036621094 15.668999671936035,-70.77100372314453 16.90999984741211,-66.61900329589844 C16.90999984741211,-66.61900329589844 31.638999938964844,-68.75900268554688 37.994998931884766,-77.61199951171875 C53.33599853515625,-98.9800033569336 37.768001556396484,-118.47000122070312 75.47200012207031,-119.50399780273438 C76.39900207519531,-119.17500305175781 77.375,-118.99600219726562 78.35700225830078,-118.89099884033203 C82.71099853515625,-114.68399810791016 85.85299682617188,-109.41600036621094 88.09300231933594,-103.71600341796875 C88.1760025024414,-103.82499694824219 88.2969970703125,-103.93000030517578 88.37999725341797,-104.03900146484375 C94.41300201416016,-110.09500122070312 98.81999969482422,-119.64199829101562 100.51499938964844,-127.89099884033203 C101.83100128173828,-134.4550018310547 101.572998046875,-141.3509979248047 99.49400329589844,-147.72500610351562 C99.49400329589844,-147.72500610351562 99.41799926757812,-147.72999572753906 99.41799926757812,-147.72999572753906z"></path></g><g opacity="1" transform="matrix(1,0,0,1,153.08099365234375,593.4739990234375)"><path fill="rgb(255,255,255)" fill-opacity="1" d=" M67.47699737548828,-64.65799713134766 C65.58799743652344,-51.36899948120117 54.65299987792969,27.385000228881836 -11.442999839782715,71.94200134277344 C-15.586999893188477,76.322998046875 -19.038999557495117,74.87300109863281 -25.018999099731445,74.20700073242188 C-30.375999450683594,73.59600067138672 -34.202999114990234,68.82599639892578 -36.82699966430664,64.13500213623047 C-40.5260009765625,57.50199890136719 -55.79100036621094,19.378999710083008 -59.83599853515625,-1.1540000438690186 C-67.47799682617188,-39.9379997253418 -65.2770004272461,-75.58100128173828 -65.2020034790039,-76.322998046875 C-65.2020034790039,-76.322998046875 -4.585999965667725,-62.62699890136719 -4.585999965667725,-62.62699890136719 C1.0759999752044678,-30.882999420166016 -1.9119999408721924,1.6269999742507935 -1.9119999408721924,1.6269999742507935 C13.282999992370605,-28.367000579833984 38.04800033569336,-37.28200149536133 42.992000579833984,-68.24600219726562"></path><path stroke-linecap="round" stroke-linejoin="miter" fill-opacity="0" stroke-miterlimit="10" stroke="rgb(0,22,48)" stroke-opacity="1" stroke-width="1" d=" M67.47699737548828,-64.65799713134766 C65.58799743652344,-51.36899948120117 54.65299987792969,27.385000228881836 -11.442999839782715,71.94200134277344 C-15.586999893188477,76.322998046875 -19.038999557495117,74.87300109863281 -25.018999099731445,74.20700073242188 C-30.375999450683594,73.59600067138672 -34.202999114990234,68.82599639892578 -36.82699966430664,64.13500213623047 C-40.5260009765625,57.50199890136719 -55.79100036621094,19.378999710083008 -59.83599853515625,-1.1540000438690186 C-67.47799682617188,-39.9379997253418 -65.2770004272461,-75.58100128173828 -65.2020034790039,-76.322998046875 C-65.2020034790039,-76.322998046875 -4.585999965667725,-62.62699890136719 -4.585999965667725,-62.62699890136719 C1.0759999752044678,-30.882999420166016 -1.9119999408721924,1.6269999742507935 -1.9119999408721924,1.6269999742507935 C13.282999992370605,-28.367000579833984 38.04800033569336,-37.28200149536133 42.992000579833984,-68.24600219726562"></path></g></g><g transform="matrix(0.9903501272201538,-0.13858777284622192,0.13858777284622192,0.9903501272201538,-71.45401000976562,33.802093505859375)" opacity="1" style="display: block;"><g opacity="1" transform="matrix(1,0,0,1,205.78700256347656,490.95098876953125)"><path fill="rgb(255,255,255)" fill-opacity="1" d=" M-10.053999900817871,33.38399887084961 C-12.02400016784668,18.243000030517578 -18.874000549316406,3.5460000038146973 -17.142000198364258,-2.693000078201294 C-16.267000198364258,-5.8420000076293945 -14.723999977111816,-33.21099853515625 -13.166999816894531,-41.0359992980957 C-11.553999900817871,-49.141998291015625 -13.029000282287598,-52.507999420166016 -11.616000175476074,-53.154998779296875 C-9.437999725341797,-54.152000427246094 -7.01800012588501,-52.29199981689453 -5.380000114440918,-50.500999450683594 C0.41100001335144043,-44.167999267578125 9.522000312805176,-24.114999771118164 12.904000282287598,-16.263999938964844 C18.874000549316406,-2.4059998989105225 12.751999855041504,2.007999897003174 15.274999618530273,23.190000534057617 C15.840999603271484,27.944000244140625 15.833000183105469,35.749000549316406 14.128999710083008,39.112998962402344 C6.511000156402588,54.1510009765625 -9.02299976348877,41.310001373291016 -10.053999900817871,33.38399887084961z"></path><path stroke-linecap="butt" stroke-linejoin="miter" fill-opacity="0" stroke-miterlimit="10" stroke="rgb(0,22,48)" stroke-opacity="1" stroke-width="1" d=" M-10.053999900817871,33.38399887084961 C-12.02400016784668,18.243000030517578 -18.874000549316406,3.5460000038146973 -17.142000198364258,-2.693000078201294 C-16.267000198364258,-5.8420000076293945 -14.723999977111816,-33.21099853515625 -13.166999816894531,-41.0359992980957 C-11.553999900817871,-49.141998291015625 -13.029000282287598,-52.507999420166016 -11.616000175476074,-53.154998779296875 C-9.437999725341797,-54.152000427246094 -7.01800012588501,-52.29199981689453 -5.380000114440918,-50.500999450683594 C0.41100001335144043,-44.167999267578125 9.522000312805176,-24.114999771118164 12.904000282287598,-16.263999938964844 C18.874000549316406,-2.4059998989105225 12.751999855041504,2.007999897003174 15.274999618530273,23.190000534057617 C15.840999603271484,27.944000244140625 15.833000183105469,35.749000549316406 14.128999710083008,39.112998962402344 C6.511000156402588,54.1510009765625 -9.02299976348877,41.310001373291016 -10.053999900817871,33.38399887084961z"></path></g><g opacity="1" transform="matrix(1,0,0,1,207.8489990234375,529.3309936523438)"><path fill="rgb(255,255,255)" fill-opacity="1" d=" M11.765999794006348,0 C11.765999794006348,6.498000144958496 6.498000144958496,11.765999794006348 0,11.765999794006348 C-6.498000144958496,11.765999794006348 -11.765999794006348,6.498000144958496 -11.765999794006348,0 C-11.765999794006348,-6.498000144958496 -6.498000144958496,-11.765999794006348 0,-11.765999794006348 C6.498000144958496,-11.765999794006348 11.765999794006348,-6.498000144958496 11.765999794006348,0z"></path></g></g><g transform="matrix(1,0,0,1,0,0)" opacity="1" style="display: block;"><g opacity="1" transform="matrix(1,0,0,1,687.7890014648438,800.7979736328125)"><path fill="rgb(0,22,48)" fill-opacity="1" d=" M-110.33000183105469,80.78399658203125 C-22.670000076293945,54.935001373291016 53.854000091552734,3.128999948501587 110.33000183105469,-65.76399993896484 C110.33000183105469,-65.76399993896484 108.66000366210938,-79.57099914550781 108.66000366210938,-79.57099914550781 C108.66000366210938,-79.57099914550781 -80.17500305175781,-80.78399658203125 -80.17500305175781,-80.78399658203125 C-80.17500305175781,-80.78399658203125 -110.33000183105469,80.78399658203125 -110.33000183105469,80.78399658203125z"></path></g><g opacity="1" transform="matrix(1,0,0,1,561.3839721679688,451.1960144042969)"><path fill="rgb(255,255,255)" fill-opacity="1" d=" M23.267000198364258,-57.03900146484375 C0.6819999814033508,-16.733999252319336 -5.107999801635742,7.144999980926514 -6.763999938964844,35.02299880981445 C-0.4519999921321869,4.833000183105469 -38.74100112915039,-17.638999938964844 -41.53799819946289,-53.10200119018555 C-37.834999084472656,-59.01599884033203 -33.099998474121094,-66.5250015258789 -30.142000198364258,-74.09100341796875 C-30.142000198364258,-74.09100341796875 -24.409000396728516,-88.14399719238281 -35.02199935913086,-103.00900268554688 C-40.88100051879883,-111.21499633789062 -59.04600143432617,-122.90899658203125 -69.41999816894531,-123.5469970703125 C-79.05500030517578,-124.15299987792969 -88.49299621582031,-118.54499816894531 -93.49299621582031,-110.62000274658203 C-100.44499969482422,-93.46099853515625 -90.80500030517578,-74.74800109863281 -77.5009994506836,-57.755001068115234 C-58.82099914550781,-12.795999526977539 -72.13800048828125,51.97200012207031 -19.95800018310547,112.68099975585938 C-18.236000061035156,114.12100219726562 -16.533000946044922,115.30400085449219 -14.746999740600586,116.26200103759766 C-13.347999572753906,117.55899810791016 -11.845000267028809,118.67400360107422 -10.079000473022461,119.48200225830078 C0.20499999821186066,124.15399932861328 4.935999870300293,120.42900085449219 14.064000129699707,113.92500305175781 C56.47200012207031,83.7750015258789 83.13800048828125,21.233999252319336 94.54199981689453,-24.284000396728516 C100.44499969482422,-37.33599853515625 33.46900177001953,-75.24500274658203 23.267000198364258,-57.03900146484375z"></path><path stroke-linecap="butt" stroke-linejoin="miter" fill-opacity="0" stroke-miterlimit="10" stroke="rgb(0,22,48)" stroke-opacity="1" stroke-width="1" d=" M23.267000198364258,-57.03900146484375 C0.6819999814033508,-16.733999252319336 -5.107999801635742,7.144999980926514 -6.763999938964844,35.02299880981445 C-0.4519999921321869,4.833000183105469 -38.74100112915039,-17.638999938964844 -41.53799819946289,-53.10200119018555 C-37.834999084472656,-59.01599884033203 -33.099998474121094,-66.5250015258789 -30.142000198364258,-74.09100341796875 C-30.142000198364258,-74.09100341796875 -24.409000396728516,-88.14399719238281 -35.02199935913086,-103.00900268554688 C-40.88100051879883,-111.21499633789062 -59.04600143432617,-122.90899658203125 -69.41999816894531,-123.5469970703125 C-79.05500030517578,-124.15299987792969 -88.49299621582031,-118.54499816894531 -93.49299621582031,-110.62000274658203 C-100.44499969482422,-93.46099853515625 -90.80500030517578,-74.74800109863281 -77.5009994506836,-57.755001068115234 C-58.82099914550781,-12.795999526977539 -72.13800048828125,51.97200012207031 -19.95800018310547,112.68099975585938 C-18.236000061035156,114.12100219726562 -16.533000946044922,115.30400085449219 -14.746999740600586,116.26200103759766 C-13.347999572753906,117.55899810791016 -11.845000267028809,118.67400360107422 -10.079000473022461,119.48200225830078 C0.20499999821186066,124.15399932861328 4.935999870300293,120.42900085449219 14.064000129699707,113.92500305175781 C56.47200012207031,83.7750015258789 83.13800048828125,21.233999252319336 94.54199981689453,-24.284000396728516 C100.44499969482422,-37.33599853515625 33.46900177001953,-75.24500274658203 23.267000198364258,-57.03900146484375z"></path></g><g opacity="1" transform="matrix(1,0,0,1,728.197998046875,548.1209716796875)"><path fill="rgb(54,147,255)" fill-opacity="1" d=" M120.0260009765625,-54.624000549316406 C120.0260009765625,-54.624000549316406 161.125,-56.52799987792969 161.125,-56.52799987792969 C161.125,-56.52799987792969 158.3489990234375,-142.75799560546875 108.91400146484375,-191.24200439453125 C83.36199951171875,-216.30299377441406 46.20000076293945,-238.71099853515625 -13.352999687194824,-241.28799438476562 C-56.400001525878906,-243.14999389648438 -93.08000183105469,-214.9510040283203 -114.66899871826172,-193.4010009765625 C-121.05400085449219,-187.36000061035156 -126.82099914550781,-180.91700744628906 -131.968994140625,-174.11000061035156 C-132.23300170898438,-173.78199768066406 -132.53599548339844,-173.38699340820312 -132.76300048828125,-173.09100341796875 C-132.91400146484375,-172.8939971923828 -133.031005859375,-172.6269989013672 -133.1820068359375,-172.42999267578125 C-145.45799255371094,-155.7530059814453 -154.3939971923828,-137.02200317382812 -161.125,-117.02300262451172 C-161.125,-117.02300262451172 -130.83099365234375,-88.0510025024414 -130.83099365234375,-88.0510025024414 C-129.36099243164062,-58.316001892089844 -120.21700286865234,-16.59000015258789 -116.60199737548828,8.229999542236328 C-101.30400085449219,113.28399658203125 -156.27000427246094,243.1510009765625 -126.36399841308594,226.22900390625 C1.2070000171661377,154.0449981689453 84.90799713134766,204.85000610351562 71.78199768066406,171.89300537109375 C43.05099868774414,99.75299835205078 81.27999877929688,51.77399826049805 99.3239974975586,4.053999900817871 C106.23100280761719,-14.192000389099121 113.75199890136719,-34.10900115966797 120.02300262451172,-54.590999603271484 C120.02300262451172,-54.590999603271484 120.0260009765625,-54.624000549316406 120.0260009765625,-54.624000549316406z"></path><path stroke-linecap="butt" stroke-linejoin="miter" fill-opacity="0" stroke-miterlimit="10" stroke="rgb(0,22,48)" stroke-opacity="1" stroke-width="1" d=" M120.0260009765625,-54.624000549316406 C120.0260009765625,-54.624000549316406 161.125,-56.52799987792969 161.125,-56.52799987792969 C161.125,-56.52799987792969 158.3489990234375,-142.75799560546875 108.91400146484375,-191.24200439453125 C83.36199951171875,-216.30299377441406 46.20000076293945,-238.71099853515625 -13.352999687194824,-241.28799438476562 C-56.400001525878906,-243.14999389648438 -93.08000183105469,-214.9510040283203 -114.66899871826172,-193.4010009765625 C-121.05400085449219,-187.36000061035156 -126.82099914550781,-180.91700744628906 -131.968994140625,-174.11000061035156 C-132.23300170898438,-173.78199768066406 -132.53599548339844,-173.38699340820312 -132.76300048828125,-173.09100341796875 C-132.91400146484375,-172.8939971923828 -133.031005859375,-172.6269989013672 -133.1820068359375,-172.42999267578125 C-145.45799255371094,-155.7530059814453 -154.3939971923828,-137.02200317382812 -161.125,-117.02300262451172 C-161.125,-117.02300262451172 -130.83099365234375,-88.0510025024414 -130.83099365234375,-88.0510025024414 C-129.36099243164062,-58.316001892089844 -120.21700286865234,-16.59000015258789 -116.60199737548828,8.229999542236328 C-101.30400085449219,113.28399658203125 -156.27000427246094,243.1510009765625 -126.36399841308594,226.22900390625 C1.2070000171661377,154.0449981689453 84.90799713134766,204.85000610351562 71.78199768066406,171.89300537109375 C43.05099868774414,99.75299835205078 81.27999877929688,51.77399826049805 99.3239974975586,4.053999900817871 C106.23100280761719,-14.192000389099121 113.75199890136719,-34.10900115966797 120.02300262451172,-54.590999603271484 C120.02300262451172,-54.590999603271484 120.0260009765625,-54.624000549316406 120.0260009765625,-54.624000549316406z"></path></g><g opacity="1" transform="matrix(1,0,0,1,899.27099609375,513.8250122070312)"><path fill="rgb(0,22,48)" fill-opacity="1" d=" M-0.054999999701976776,-0.49399998784065247 C0.0010000000474974513,-0.18700000643730164 0.054999999701976776,0.1550000011920929 0.039000000804662704,0.49399998784065247 C0.054999999701976776,0.1550000011920929 -0.03500000014901161,-0.15399999916553497 -0.054999999701976776,-0.49399998784065247z"></path></g><g opacity="1" transform="matrix(1,0,0,1,724.458984375,275.5010070800781)"><path fill="rgb(255,255,255)" fill-opacity="1" d=" M-30.979999542236328,-27.5 C-23.867000579833984,-52.15700149536133 -3.933000087738037,-57.13600158691406 7.191999912261963,-50.676998138427734 C12.243000030517578,-3.7239999771118164 18.69300079345703,17.308000564575195 36.54199981689453,43.58700180053711 C12.154000282287598,57.13600158691406 -28.180999755859375,52.67399978637695 -36.36899948120117,40.43199920654297 C-36.54199981689453,36.68899917602539 -34.64500045776367,-14.751999855041504 -30.979999542236328,-27.5z"></path><path stroke-linecap="butt" stroke-linejoin="miter" fill-opacity="0" stroke-miterlimit="10" stroke="rgb(0,22,48)" stroke-opacity="1" stroke-width="1" d=" M-30.979999542236328,-27.5 C-23.867000579833984,-52.15700149536133 -3.933000087738037,-57.13600158691406 7.191999912261963,-50.676998138427734 C12.243000030517578,-3.7239999771118164 18.69300079345703,17.308000564575195 36.54199981689453,43.58700180053711 C12.154000282287598,57.13600158691406 -28.180999755859375,52.67399978637695 -36.36899948120117,40.43199920654297 C-36.54199981689453,36.68899917602539 -34.64500045776367,-14.751999855041504 -30.979999542236328,-27.5z"></path></g><g opacity="1" transform="matrix(1,0,0,1,705.2969970703125,227.50999450683594)"><path fill="rgb(255,255,255)" fill-opacity="1" d=" M37.40700149536133,-13.376999855041504 C36.624000549316406,-26.367000579833984 33.5359992980957,-38.672000885009766 27.165000915527344,-46.979000091552734 C9.348999977111816,-70.20099639892578 -29.176000595092773,-67.87000274658203 -44.37699890136719,-40.757999420166016 C-58.27399826049805,-15.946000099182129 -46.98500061035156,38.22700119018555 -36.57099914550781,49.85100173950195 C-18.31599998474121,70.20099639892578 23.440000534057617,49.59199905395508 29.83300018310547,35.23400115966797 C32.17100143432617,30.016000747680664 34.0890007019043,23.4950008392334 35.439998626708984,16.378000259399414 C39.494998931884766,20.266000747680664 45.14899826049805,21.082000732421875 51.194000244140625,14.633000373840332 C55.790000915527344,9.692000389099121 58.275001525878906,2.9820001125335693 57.92399978637695,-3.6010000705718994 C57.27799987792969,-16.336000442504883 45.617000579833984,-18.40999984741211 37.36899948120117,-13.378000259399414 C37.36899948120117,-13.378000259399414 37.40700149536133,-13.376999855041504 37.40700149536133,-13.376999855041504z"></path><path stroke-linecap="butt" stroke-linejoin="miter" fill-opacity="0" stroke-miterlimit="10" stroke="rgb(0,22,48)" stroke-opacity="1" stroke-width="1" d=" M37.40700149536133,-13.376999855041504 C36.624000549316406,-26.367000579833984 33.5359992980957,-38.672000885009766 27.165000915527344,-46.979000091552734 C9.348999977111816,-70.20099639892578 -29.176000595092773,-67.87000274658203 -44.37699890136719,-40.757999420166016 C-58.27399826049805,-15.946000099182129 -46.98500061035156,38.22700119018555 -36.57099914550781,49.85100173950195 C-18.31599998474121,70.20099639892578 23.440000534057617,49.59199905395508 29.83300018310547,35.23400115966797 C32.17100143432617,30.016000747680664 34.0890007019043,23.4950008392334 35.439998626708984,16.378000259399414 C39.494998931884766,20.266000747680664 45.14899826049805,21.082000732421875 51.194000244140625,14.633000373840332 C55.790000915527344,9.692000389099121 58.275001525878906,2.9820001125335693 57.92399978637695,-3.6010000705718994 C57.27799987792969,-16.336000442504883 45.617000579833984,-18.40999984741211 37.36899948120117,-13.378000259399414 C37.36899948120117,-13.378000259399414 37.40700149536133,-13.376999855041504 37.40700149536133,-13.376999855041504z"></path></g><g opacity="1" transform="matrix(1,0,0,1,711.0809936523438,187.0019989013672)"><path fill="rgb(0,22,48)" fill-opacity="1" d=" M58.80799865722656,-22.982999801635742 C25.288000106811523,-47.8129997253418 -31.14699935913086,-59.141998291015625 -48.051998138427734,-50.55699920654297 C-61.790000915527344,-43.58399963378906 -63.194000244140625,-28.475000381469727 -60.202999114990234,-15.746000289916992 C-68.26100158691406,-9.991000175476074 -73.36199951171875,7.671999931335449 -60.775001525878906,35.130001068115234 C-58.48699951171875,40.11800003051758 -56.487998962402344,40.34700012207031 -56.553001403808594,34.7760009765625 C-56.72100067138672,19.100000381469727 -56.25299835205078,14.052000045776367 -51.45199966430664,2.5869998931884766 C-50.24800109863281,3.8529999256134033 -49.097999572753906,4.688000202178955 -47.99700164794922,5.020999908447266 C-43.849998474121094,6.199999809265137 -39.83300018310547,3.197000026702881 -36.15299987792969,1 C-18.639999389648438,-9.343000411987305 -3.8980000019073486,-0.20999999344348907 8.770000457763672,2.5869998931884766 C9.470000267028809,2.7239999771118164 10.284000396728516,2.8299999237060547 11.020999908447266,2.9700000286102295 C11.173999786376953,14.39900016784668 17.374000549316406,59.141998291015625 18.812999725341797,58.632999420166016 C21.009000778198242,57.87099838256836 23.482999801635742,55.194000244140625 26.3439998626709,52.24800109863281 C23.89299964904785,47.5369987487793 22.957000732421875,41.5 24.30500030517578,36.7400016784668 C28.076000213623047,23.48200035095215 47.39099884033203,19.71299934387207 51.48500061035156,32.7400016784668 C53.15800094604492,9.789999961853027 54.16600036621094,2.872999906539917 52.529998779296875,-0.23199999332427979 C66.10199737548828,-4.571000099182129 73.36199951171875,-12.251999855041504 58.91899871826172,-22.941999435424805 C58.91899871826172,-22.941999435424805 58.80799865722656,-22.982999801635742 58.80799865722656,-22.982999801635742z"></path></g><g opacity="1" transform="matrix(1,0,0,1,688.0800170898438,271.89599609375)"><path fill="rgb(0,22,48)" fill-opacity="1" d=" M11.6899995803833,-4.543000221252441 C6.989999771118164,3.321000099182129 -7.659999847412109,4.543000221252441 -11.6899995803833,-4.447000026702881 C-3.181999921798706,-2.5799999237060547 2.7260000705718994,-3.8949999809265137 11.6899995803833,-4.543000221252441z"></path></g><g opacity="1" transform="matrix(1,0,0,1,809.0349731445312,563.5770263671875)"><path fill="rgb(255,255,255)" fill-opacity="1" d=" M-81.18800354003906,-75.78500366210938 C-80.72000122070312,-74.38700103759766 -80.09400177001953,-72.90299987792969 -79.29199981689453,-71.33399963378906 C-61.749000549316406,-36.98699951171875 9.019000053405762,58.79899978637695 28.44300079345703,74.51599884033203 C35.39500045776367,80.1500015258789 43.85300064086914,86.11900329589844 52.76599884033203,84.16200256347656 C60.7130012512207,82.43299865722656 65.71800231933594,74.94000244140625 68.86499786376953,67.73999786376953 C73.29000091552734,57.60599899291992 76.7239990234375,45.22200012207031 76.53900146484375,33.70000076293945 C81.18800354003906,13.82800006866455 78.8010025024414,-70.93699645996094 78.56800079345703,-71.96600341796875 C78.56800079345703,-71.96600341796875 -15.173999786376953,-82.30400085449219 -15.173999786376953,-82.30400085449219 C-14.539999961853027,-77.11399841308594 -14.682000160217285,-59.13100051879883 -14.012999534606934,-53.939998626708984 C-28.676000595092773,-66.58100128173828 -42.28499984741211,-78.31900024414062 -51.93000030517578,-86.11900329589844"></path><path stroke-linecap="round" stroke-linejoin="miter" fill-opacity="0" stroke-miterlimit="10" stroke="rgb(0,22,48)" stroke-opacity="1" stroke-width="1" d=" M-81.18800354003906,-75.78500366210938 C-80.72000122070312,-74.38700103759766 -80.09400177001953,-72.90299987792969 -79.29199981689453,-71.33399963378906 C-61.749000549316406,-36.98699951171875 9.019000053405762,58.79899978637695 28.44300079345703,74.51599884033203 C35.39500045776367,80.1500015258789 43.85300064086914,86.11900329589844 52.76599884033203,84.16200256347656 C60.7130012512207,82.43299865722656 65.71800231933594,74.94000244140625 68.86499786376953,67.73999786376953 C73.29000091552734,57.60599899291992 76.7239990234375,45.22200012207031 76.53900146484375,33.70000076293945 C81.18800354003906,13.82800006866455 78.8010025024414,-70.93699645996094 78.56800079345703,-71.96600341796875 C78.56800079345703,-71.96600341796875 -15.173999786376953,-82.30400085449219 -15.173999786376953,-82.30400085449219 C-14.539999961853027,-77.11399841308594 -14.682000160217285,-59.13100051879883 -14.012999534606934,-53.939998626708984 C-28.676000595092773,-66.58100128173828 -42.28499984741211,-78.31900024414062 -51.93000030517578,-86.11900329589844"></path></g></g><g transform="matrix(1,0,0,1,0,0)" opacity="1" style="display: block;"><g opacity="1" transform="matrix(1,0,0,1,742.5609741210938,433.3030090332031)"><path fill="rgb(255,255,255)" fill-opacity="1" d=" M-19.844999313354492,28.134000778198242 C-17.417999267578125,0.8080000281333923 -25.990999221801758,-5.041999816894531 -18.503999710083008,-22.81800079345703 C-14.26200008392334,-32.88999938964844 -0.9520000219345093,-55.73099899291992 6.6539998054504395,-63.78300094604492 C8.805000305175781,-66.05999755859375 12.020999908447266,-68.40899658203125 15.043999671936035,-67.06800079345703 C17.0049991607666,-66.1989974975586 17.475000381469727,-62.61199951171875 17.7450008392334,-51.362998962402344 C17.996000289916992,-40.917999267578125 21.843000411987305,-8.663000106811523 23.18899917602539,-4.571000099182129 C25.990999221801758,3.953000068664551 16.055999755859375,24.38800048828125 14.190999984741211,44.71900177001953 C12.380999565124512,64.45500183105469 -10.567000389099121,68.41000366210938 -16.333999633789062,50.72200012207031 C-18.051000595092773,45.457000732421875 -20.572999954223633,36.32600021362305 -19.844999313354492,28.134000778198242z"></path><path stroke-linecap="butt" stroke-linejoin="miter" fill-opacity="0" stroke-miterlimit="10" stroke="rgb(0,22,48)" stroke-opacity="1" stroke-width="1" d=" M-19.844999313354492,28.134000778198242 C-17.417999267578125,0.8080000281333923 -25.990999221801758,-5.041999816894531 -18.503999710083008,-22.81800079345703 C-14.26200008392334,-32.88999938964844 -0.9520000219345093,-55.73099899291992 6.6539998054504395,-63.78300094604492 C8.805000305175781,-66.05999755859375 12.020999908447266,-68.40899658203125 15.043999671936035,-67.06800079345703 C17.0049991607666,-66.1989974975586 17.475000381469727,-62.61199951171875 17.7450008392334,-51.362998962402344 C17.996000289916992,-40.917999267578125 21.843000411987305,-8.663000106811523 23.18899917602539,-4.571000099182129 C25.990999221801758,3.953000068664551 16.055999755859375,24.38800048828125 14.190999984741211,44.71900177001953 C12.380999565124512,64.45500183105469 -10.567000389099121,68.41000366210938 -16.333999633789062,50.72200012207031 C-18.051000595092773,45.457000732421875 -20.572999954223633,36.32600021362305 -19.844999313354492,28.134000778198242z"></path></g><g opacity="1" transform="matrix(1,0,0,1,743.3889770507812,484.3479919433594)"><path fill="rgb(255,255,255)" fill-opacity="1" d=" M14.987000465393066,0 C14.987000465393066,8.277000427246094 8.276000022888184,14.986000061035156 0,14.986000061035156 C-8.277000427246094,14.986000061035156 -14.987000465393066,8.277000427246094 -14.987000465393066,0 C-14.987000465393066,-8.277000427246094 -8.277000427246094,-14.986000061035156 0,-14.986000061035156 C8.276000022888184,-14.986000061035156 14.987000465393066,-8.277000427246094 14.987000465393066,0z"></path></g></g><g transform="matrix(1,0,0,1,0,0)" opacity="1" style="display: block;"><g opacity="1" transform="matrix(1,0,0,1,485.60400390625,327.3890075683594)"><path fill="rgb(0,22,48)" fill-opacity="1" d=" M-7.5960001945495605,43.75600051879883 C-9.496000289916992,43.737998962402344 -11.52299976348877,42.17399978637695 -12.020000457763672,40.3380012512207 C-12.020000457763672,40.3380012512207 -34.494998931884766,-41.29600143432617 -34.494998931884766,-41.29600143432617 C-34.707000732421875,-42.07699966430664 -34.606998443603516,-42.79199981689453 -34.2130012512207,-43.30699920654297 C-33.81700134277344,-43.82500076293945 -33.14899826049805,-44.11000061035156 -32.33000183105469,-44.11000061035156 C-32.33000183105469,-44.11000061035156 7.5960001945495605,-43.757999420166016 7.5960001945495605,-43.757999420166016 C9.498000144958496,-43.7400016784668 11.52400016784668,-42.17499923706055 12.020999908447266,-40.3390007019043 C12.020999908447266,-40.3390007019043 34.49599838256836,41.29399871826172 34.49599838256836,41.29399871826172 C34.70800018310547,42.07500076293945 34.608001708984375,42.79100036621094 34.21500015258789,43.30699920654297 C33.81800079345703,43.82400131225586 33.150001525878906,44.11000061035156 32.332000732421875,44.11000061035156 C32.332000732421875,44.11000061035156 -7.5960001945495605,43.75600051879883 -7.5960001945495605,43.75600051879883z"></path></g><g opacity="1" transform="matrix(1,0,0,1,485.60400390625,327.3890075683594)"><path fill="rgb(0,22,48)" fill-opacity="1" d=" M-32.33000183105469,-45.111000061035156 C-32.33000183105469,-45.111000061035156 -32.30699920654297,-43.111000061035156 -32.30699920654297,-43.111000061035156 C-32.30699920654297,-43.111000061035156 7.5879998207092285,-42.75699996948242 7.5879998207092285,-42.75699996948242 C9.052000045776367,-42.74399948120117 10.67199993133545,-41.49100112915039 11.057000160217285,-40.06800079345703 C11.057000160217285,-40.06800079345703 33.529998779296875,41.553001403808594 33.529998779296875,41.553001403808594 C33.659000396728516,42.029998779296875 33.619998931884766,42.4379997253418 33.41999816894531,42.70000076293945 C33.21699905395508,42.96500015258789 32.83000183105469,43.111000061035156 32.30799865722656,43.111000061035156 C32.30799865722656,43.111000061035156 -7.586999893188477,42.75600051879883 -7.586999893188477,42.75600051879883 C-9.050999641418457,42.74300003051758 -10.670999526977539,41.49100112915039 -11.057000160217285,40.06800079345703 C-11.057000160217285,40.06800079345703 -33.52899932861328,-41.553001403808594 -33.52899932861328,-41.553001403808594 C-33.659000396728516,-42.03099822998047 -33.619998931884766,-42.4379997253418 -33.41899871826172,-42.70000076293945 C-33.21699905395508,-42.96500015258789 -32.83000183105469,-43.111000061035156 -32.33000183105469,-43.111000061035156 C-32.33000183105469,-43.111000061035156 -32.33000183105469,-45.111000061035156 -32.33000183105469,-45.111000061035156z M-32.33000183105469,-45.111000061035156 C-34.672000885009766,-45.111000061035156 -36.07500076293945,-43.297000885009766 -35.45899963378906,-41.02899932861328 C-35.45899963378906,-41.02899932861328 -12.984999656677246,40.5989990234375 -12.984999656677246,40.5989990234375 C-12.366999626159668,42.880001068115234 -9.972000122070312,44.73500061035156 -7.605000019073486,44.75600051879883 C-7.605000019073486,44.75600051879883 32.290000915527344,45.11000061035156 32.290000915527344,45.11000061035156 C32.30400085449219,45.111000061035156 32.31700134277344,45.111000061035156 32.33100128173828,45.111000061035156 C34.67300033569336,45.111000061035156 36.07500076293945,43.297000885009766 35.459999084472656,41.02899932861328 C35.459999084472656,41.02899932861328 12.984999656677246,-40.5989990234375 12.984999656677246,-40.5989990234375 C12.368000030517578,-42.880001068115234 9.972000122070312,-44.736000061035156 7.605000019073486,-44.75699996948242 C7.605000019073486,-44.75699996948242 -32.290000915527344,-45.111000061035156 -32.290000915527344,-45.111000061035156 C-32.303001403808594,-45.111000061035156 -32.316001892089844,-45.111000061035156 -32.33000183105469,-45.111000061035156z"></path></g><g opacity="1" transform="matrix(1,0,0,1,485.60400390625,327.3890075683594)"><path fill="rgb(215,233,255)" fill-opacity="1" d=" M-7.5960001945495605,43.75600051879883 C-9.496000289916992,43.737998962402344 -11.52299976348877,42.17399978637695 -12.020000457763672,40.3380012512207 C-12.020000457763672,40.3380012512207 -34.494998931884766,-41.29600143432617 -34.494998931884766,-41.29600143432617 C-34.707000732421875,-42.07699966430664 -34.606998443603516,-42.79199981689453 -34.2130012512207,-43.30699920654297 C-33.81700134277344,-43.82500076293945 -33.14899826049805,-44.11000061035156 -32.33000183105469,-44.11000061035156 C-32.33000183105469,-44.11000061035156 7.5960001945495605,-43.757999420166016 7.5960001945495605,-43.757999420166016 C9.498000144958496,-43.7400016784668 11.52400016784668,-42.17499923706055 12.020999908447266,-40.3390007019043 C12.020999908447266,-40.3390007019043 34.49599838256836,41.29399871826172 34.49599838256836,41.29399871826172 C34.70800018310547,42.07500076293945 34.608001708984375,42.79100036621094 34.21500015258789,43.30699920654297 C33.81800079345703,43.82400131225586 33.150001525878906,44.11000061035156 32.332000732421875,44.11000061035156 C32.332000732421875,44.11000061035156 -7.5960001945495605,43.75600051879883 -7.5960001945495605,43.75600051879883z"></path></g><g opacity="1" transform="matrix(1,0,0,1,523.093017578125,354.2909851074219)"><path fill="rgb(255,255,255)" fill-opacity="1" d=" M-3.365000009536743,10.071000099182129 C-5.921000003814697,4.0920000076293945 -2.121000051498413,3.430999994277954 -8.67300033569336,-3.052999973297119 C-13.008000373840332,-7.343999862670898 -12.465999603271484,-20.84000015258789 -8.347000122070312,-22.899999618530273 C-7.084000110626221,-23.533000946044922 -3.374000072479248,-16.389999389648438 -1.6089999675750732,-14.494000434875488 C12.253999710083008,0.38999998569488525 13.008000373840332,10.954000473022461 7.855000019073486,23.533000946044922"></path><path stroke-linecap="round" stroke-linejoin="miter" fill-opacity="0" stroke-miterlimit="10" stroke="rgb(0,22,48)" stroke-opacity="1" stroke-width="1" d=" M-3.365000009536743,10.071000099182129 C-5.921000003814697,4.0920000076293945 -2.121000051498413,3.430999994277954 -8.67300033569336,-3.052999973297119 C-13.008000373840332,-7.343999862670898 -12.465999603271484,-20.84000015258789 -8.347000122070312,-22.899999618530273 C-7.084000110626221,-23.533000946044922 -3.374000072479248,-16.389999389648438 -1.6089999675750732,-14.494000434875488 C12.253999710083008,0.38999998569488525 13.008000373840332,10.954000473022461 7.855000019073486,23.533000946044922"></path></g><g opacity="1" transform="matrix(1,0,0,1,477.5299987792969,346.3890075683594)"><path fill="rgb(255,255,255)" fill-opacity="1" d=" M1.6490000486373901,40.72999954223633 C-6.922999858856201,28.360000610351562 -13.390000343322754,17.47599983215332 -14.913999557495117,-4.255000114440918 C-16.229999542236328,-23.020999908447266 -11.95300006866455,-35.60499954223633 -5.63700008392334,-38.020999908447266 C1.444000005722046,-40.72999954223633 -2.191999912261963,-28.073999404907227 7.353000164031982,-12.79699993133545 C16.229999542236328,1.409999966621399 -1.121000051498413,2.572000026702881 6.5289998054504395,24.349000930786133 C6.672999858856201,26.51799964904785 7.4710001945495605,32.323001861572266 7.4710001945495605,32.323001861572266"></path><path stroke-linecap="round" stroke-linejoin="miter" fill-opacity="0" stroke-miterlimit="10" stroke="rgb(0,22,48)" stroke-opacity="1" stroke-width="1" d=" M1.6490000486373901,40.72999954223633 C-6.922999858856201,28.360000610351562 -13.390000343322754,17.47599983215332 -14.913999557495117,-4.255000114440918 C-16.229999542236328,-23.020999908447266 -11.95300006866455,-35.60499954223633 -5.63700008392334,-38.020999908447266 C1.444000005722046,-40.72999954223633 -2.191999912261963,-28.073999404907227 7.353000164031982,-12.79699993133545 C16.229999542236328,1.409999966621399 -1.121000051498413,2.572000026702881 6.5289998054504395,24.349000930786133 C6.672999858856201,26.51799964904785 7.4710001945495605,32.323001861572266 7.4710001945495605,32.323001861572266"></path></g></g></g></svg>