<svg xmlns="http://www.w3.org/2000/svg" xmlns:xlink="http://www.w3.org/1999/xlink" viewBox="0 0 900 900" width="900" height="900" preserveAspectRatio="xMidYMid meet" style="width: 100%; height: 100%; transform: translate3d(0px, 0px, 0px); content-visibility: visible;"><defs><clipPath id="__lottie_element_47"><rect width="900" height="900" x="0" y="0"></rect></clipPath></defs><g clip-path="url(#__lottie_element_47)"><g transform="matrix(1,0,0,1,0,0)" opacity="1" style="display: block;"><g opacity="1" transform="matrix(1,0,0,1,450,450)"><path fill="rgb(245,249,252)" fill-opacity="1" d=" M0,450 C248.5279998779297,450 450,248.5279998779297 450,0 C450,-248.5279998779297 248.5279998779297,-450 0,-450 C-248.5279998779297,-450 -450,-248.5279998779297 -450,0 C-450,248.5279998779297 -248.5279998779297,450 0,450z"></path></g><g opacity="1" transform="matrix(1,0,0,1,424.79998779296875,617.6810302734375)"><path fill="rgb(255,255,255)" fill-opacity="1" d=" M85.38800048828125,-84.09400177001953 C92.4749984741211,-71.45600128173828 66.375,-39.319000244140625 21,2.194000005722046 C-24.937000274658203,44.194000244140625 -65.8499984741211,87.54399871826172 -65.8499984741211,87.54399871826172 C-65.8499984741211,87.54399871826172 -92.4749984741211,88.63099670410156 -92.4749984741211,88.63099670410156 C-92.4749984741211,88.63099670410156 -89.55000305175781,77.68099975585938 -89.55000305175781,77.68099975585938 C-89.55000305175781,77.68099975585938 -22.61199951171875,-14.944000244140625 -7.050000190734863,-40.930999755859375 C11.288000106811523,-71.53099822998047 49.04999923706055,-88.63099670410156 49.04999923706055,-88.63099670410156 C49.04999923706055,-88.63099670410156 85.38800048828125,-84.09400177001953 85.38800048828125,-84.09400177001953z"></path><path stroke-linecap="butt" stroke-linejoin="miter" fill-opacity="0" stroke-miterlimit="10" stroke="rgb(0,22,48)" stroke-opacity="1" stroke-width="1" d=" M85.38800048828125,-84.09400177001953 C92.4749984741211,-71.45600128173828 66.375,-39.319000244140625 21,2.194000005722046 C-24.937000274658203,44.194000244140625 -65.8499984741211,87.54399871826172 -65.8499984741211,87.54399871826172 C-65.8499984741211,87.54399871826172 -92.4749984741211,88.63099670410156 -92.4749984741211,88.63099670410156 C-92.4749984741211,88.63099670410156 -89.55000305175781,77.68099975585938 -89.55000305175781,77.68099975585938 C-89.55000305175781,77.68099975585938 -22.61199951171875,-14.944000244140625 -7.050000190734863,-40.930999755859375 C11.288000106811523,-71.53099822998047 49.04999923706055,-88.63099670410156 49.04999923706055,-88.63099670410156 C49.04999923706055,-88.63099670410156 85.38800048828125,-84.09400177001953 85.38800048828125,-84.09400177001953z"></path></g><g opacity="1" transform="matrix(1,0,0,1,388.593994140625,476.8500061035156)"><path fill="rgb(0,22,48)" fill-opacity="1" d=" M121.74400329589844,57 C121.74400329589844,57 121.51899719238281,54.112998962402344 84.99400329589844,13.538000106811523 C39.20600128173828,-37.3489990234375 9.880999565124512,-68.4000015258789 -14.456000328063965,-81.93800354003906 C-38.79399871826172,-95.4749984741211 -80.38099670410156,-101.28800201416016 -80.38099670410156,-101.28800201416016 C-92.30599975585938,-76.23799896240234 -125.56900024414062,-46.23699951171875 -70.96900177001953,-8.324000358581543 C-31.33099937438965,19.201000213623047 26.569000244140625,53.70100021362305 55.33100128173828,70.57599639892578 C54.28099822998047,71.5510025024414 53.26900100708008,72.5260009765625 52.29399871826172,73.57599639892578 C61.930999755859375,83.7760009765625 77.45600128173828,99.56300354003906 99.35600280761719,101.28800201416016 C120.24400329589844,77.0260009765625 125.56900024414062,64.42500305175781 121.70600128173828,57 C121.70600128173828,57 121.74400329589844,57 121.74400329589844,57z"></path><path stroke-linecap="butt" stroke-linejoin="miter" fill-opacity="0" stroke-miterlimit="10" stroke="rgb(0,22,48)" stroke-opacity="1" stroke-width="1" d=" M121.74400329589844,57 C121.74400329589844,57 121.51899719238281,54.112998962402344 84.99400329589844,13.538000106811523 C39.20600128173828,-37.3489990234375 9.880999565124512,-68.4000015258789 -14.456000328063965,-81.93800354003906 C-38.79399871826172,-95.4749984741211 -80.38099670410156,-101.28800201416016 -80.38099670410156,-101.28800201416016 C-92.30599975585938,-76.23799896240234 -125.56900024414062,-46.23699951171875 -70.96900177001953,-8.324000358581543 C-31.33099937438965,19.201000213623047 26.569000244140625,53.70100021362305 55.33100128173828,70.57599639892578 C54.28099822998047,71.5510025024414 53.26900100708008,72.5260009765625 52.29399871826172,73.57599639892578 C61.930999755859375,83.7760009765625 77.45600128173828,99.56300354003906 99.35600280761719,101.28800201416016 C120.24400329589844,77.0260009765625 125.56900024414062,64.42500305175781 121.70600128173828,57 C121.70600128173828,57 121.74400329589844,57 121.74400329589844,57z"></path></g></g><g transform="matrix(-0.5379294157028198,0.8429898619651794,-0.8429898619651794,-0.5379294157028198,1277.112548828125,536.8013916015625)" opacity="1" style="display: block;"><g opacity="1" transform="matrix(1,0,0,1,773.43701171875,772.9879760742188)"><path fill="rgb(0,22,48)" fill-opacity="1" d=" M0,-116.55000305175781 C-64.38700103759766,-116.55000305175781 -116.55000305175781,-64.3499984741211 -116.55000305175781,0 C-116.55000305175781,64.3499984741211 -64.3499984741211,116.55000305175781 0,116.55000305175781 C64.3499984741211,116.55000305175781 116.55000305175781,64.3499984741211 116.55000305175781,0 C116.55000305175781,-64.3499984741211 64.3499984741211,-116.55000305175781 0,-116.55000305175781z M0,67.19999694824219 C-37.08700180053711,67.19999694824219 -67.16200256347656,37.125 -67.16200256347656,0.03700000047683716 C-67.16200256347656,-37.04999923706055 -37.08700180053711,-67.125 0,-67.125 C37.0880012512207,-67.125 67.16300201416016,-37.04999923706055 67.16300201416016,0.03700000047683716 C67.16300201416016,37.125 37.0880012512207,67.19999694824219 0,67.19999694824219z"></path><path stroke-linecap="butt" stroke-linejoin="miter" fill-opacity="0" stroke-miterlimit="10" stroke="rgb(0,22,48)" stroke-opacity="1" stroke-width="1" d=" M0,-116.55000305175781 C-64.38700103759766,-116.55000305175781 -116.55000305175781,-64.3499984741211 -116.55000305175781,0 C-116.55000305175781,64.3499984741211 -64.3499984741211,116.55000305175781 0,116.55000305175781 C64.3499984741211,116.55000305175781 116.55000305175781,64.3499984741211 116.55000305175781,0 C116.55000305175781,-64.3499984741211 64.3499984741211,-116.55000305175781 0,-116.55000305175781z M0,67.19999694824219 C-37.08700180053711,67.19999694824219 -67.16200256347656,37.125 -67.16200256347656,0.03700000047683716 C-67.16200256347656,-37.04999923706055 -37.08700180053711,-67.125 0,-67.125 C37.0880012512207,-67.125 67.16300201416016,-37.04999923706055 67.16300201416016,0.03700000047683716 C67.16300201416016,37.125 37.0880012512207,67.19999694824219 0,67.19999694824219z"></path></g><g opacity="1" transform="matrix(1,0,0,1,773.4010009765625,773.0250244140625)"><path fill="rgb(215,233,255)" fill-opacity="1" d=" M11.774999618530273,-71.73799896240234 C11.774999618530273,-71.73799896240234 11.850000381469727,-71.73799896240234 11.850000381469727,-71.73799896240234 C8.024999618530273,-72.375 4.050000190734863,-72.67500305175781 0.03799999877810478,-72.67500305175781 C-3.9749999046325684,-72.67500305175781 -7.949999809265137,-72.375 -11.774999618530273,-71.73799896240234 C-46.275001525878906,-66.07499694824219 -72.63700103759766,-36.112998962402344 -72.63700103759766,0 C-72.63700103759766,9.036999702453613 -70.98699951171875,17.66200065612793 -67.98699951171875,25.61199951171875 C-65.17500305175781,33.07500076293945 -61.125,40.012001037597656 -56.137001037597656,46.08700180053711 C-42.82500076293945,62.2869987487793 -22.61199951171875,72.67500305175781 0,72.67500305175781 C22.613000869750977,72.67500305175781 42.862998962402344,62.2869987487793 56.13800048828125,46.08700180053711 C61.16299819946289,40.012001037597656 65.17500305175781,33.11199951171875 67.98799896240234,25.61199951171875 C70.98799896240234,17.625 72.63800048828125,9.036999702453613 72.63800048828125,0 C72.63800048828125,-36.112998962402344 46.3129997253418,-66.03800201416016 11.774999618530273,-71.73799896240234z M0.035999998450279236,-21.937999725341797 C12.111000061035156,-21.937999725341797 21.93600082397461,-12.11299991607666 21.93600082397461,-0.03799999877810478 C21.93600082397461,12.036999702453613 12.111000061035156,21.86199951171875 0.035999998450279236,21.86199951171875 C-12.038999557495117,21.86199951171875 -21.864999771118164,12.036999702453613 -21.864999771118164,-0.03799999877810478 C-21.864999771118164,-12.11299991607666 -12.074999809265137,-21.937999725341797 0.035999998450279236,-21.937999725341797z M-59.96200180053711,11.774999618530273 C-60.71200180053711,7.949999809265137 -61.08700180053711,4.01200008392334 -61.08700180053711,0 C-61.08700180053711,0 -61.125,-0.03799999877810478 -61.125,-0.03799999877810478 C-61.125,-26.924999237060547 -43.83700180053711,-49.724998474121094 -19.725000381469727,-57.9379997253418 C-19.725000381469727,-57.9379997253418 -39.86199951171875,-23.024999618530273 -39.86199951171875,-23.024999618530273 C-39.86199951171875,-23.024999618530273 -59.96200180053711,11.774999618530273 -59.96200180053711,11.774999618530273z M0.017999999225139618,61.125 C-15.350000381469727,61.119998931884766 -29.405000686645508,55.45800018310547 -40.1619987487793,46.04999923706055 C-40.1619987487793,46.04999923706055 40.20000076293945,46.04999923706055 40.20000076293945,46.04999923706055 C29.441999435424805,55.42100143432617 15.385000228881836,61.119998931884766 0.017999999225139618,61.125z M60.112998962402344,11.737000465393066 C60.112998962402344,11.737000465393066 60.07500076293945,11.774999618530273 60.07500076293945,11.774999618530273 C60.07500076293945,11.774999618530273 39.974998474121094,-23.024999618530273 39.974998474121094,-23.024999618530273 C39.974998474121094,-23.024999618530273 19.83799934387207,-57.9379997253418 19.83799934387207,-57.9379997253418 C43.95000076293945,-49.724998474121094 61.237998962402344,-26.924999237060547 61.237998962402344,-0.03799999877810478 C61.237998962402344,3.9749999046325684 60.862998962402344,7.9120001792907715 60.112998962402344,11.737000465393066z"></path><path stroke-linecap="butt" stroke-linejoin="miter" fill-opacity="0" stroke-miterlimit="10" stroke="rgb(54,147,255)" stroke-opacity="1" stroke-width="1" d=" M11.774999618530273,-71.73799896240234 C11.774999618530273,-71.73799896240234 11.850000381469727,-71.73799896240234 11.850000381469727,-71.73799896240234 C8.024999618530273,-72.375 4.050000190734863,-72.67500305175781 0.03799999877810478,-72.67500305175781 C-3.9749999046325684,-72.67500305175781 -7.949999809265137,-72.375 -11.774999618530273,-71.73799896240234 C-46.275001525878906,-66.07499694824219 -72.63700103759766,-36.112998962402344 -72.63700103759766,0 C-72.63700103759766,9.036999702453613 -70.98699951171875,17.66200065612793 -67.98699951171875,25.61199951171875 C-65.17500305175781,33.07500076293945 -61.125,40.012001037597656 -56.137001037597656,46.08700180053711 C-42.82500076293945,62.2869987487793 -22.61199951171875,72.67500305175781 0,72.67500305175781 C22.613000869750977,72.67500305175781 42.862998962402344,62.2869987487793 56.13800048828125,46.08700180053711 C61.16299819946289,40.012001037597656 65.17500305175781,33.11199951171875 67.98799896240234,25.61199951171875 C70.98799896240234,17.625 72.63800048828125,9.036999702453613 72.63800048828125,0 C72.63800048828125,-36.112998962402344 46.3129997253418,-66.03800201416016 11.774999618530273,-71.73799896240234z M0.035999998450279236,-21.937999725341797 C12.111000061035156,-21.937999725341797 21.93600082397461,-12.11299991607666 21.93600082397461,-0.03799999877810478 C21.93600082397461,12.036999702453613 12.111000061035156,21.86199951171875 0.035999998450279236,21.86199951171875 C-12.038999557495117,21.86199951171875 -21.864999771118164,12.036999702453613 -21.864999771118164,-0.03799999877810478 C-21.864999771118164,-12.11299991607666 -12.074999809265137,-21.937999725341797 0.035999998450279236,-21.937999725341797z M-59.96200180053711,11.774999618530273 C-60.71200180053711,7.949999809265137 -61.08700180053711,4.01200008392334 -61.08700180053711,0 C-61.08700180053711,0 -61.125,-0.03799999877810478 -61.125,-0.03799999877810478 C-61.125,-26.924999237060547 -43.83700180053711,-49.724998474121094 -19.725000381469727,-57.9379997253418 C-19.725000381469727,-57.9379997253418 -39.86199951171875,-23.024999618530273 -39.86199951171875,-23.024999618530273 C-39.86199951171875,-23.024999618530273 -59.96200180053711,11.774999618530273 -59.96200180053711,11.774999618530273z M0.017999999225139618,61.125 C-15.350000381469727,61.119998931884766 -29.405000686645508,55.45800018310547 -40.1619987487793,46.04999923706055 C-40.1619987487793,46.04999923706055 40.20000076293945,46.04999923706055 40.20000076293945,46.04999923706055 C29.441999435424805,55.42100143432617 15.385000228881836,61.119998931884766 0.017999999225139618,61.125z M60.112998962402344,11.737000465393066 C60.112998962402344,11.737000465393066 60.07500076293945,11.774999618530273 60.07500076293945,11.774999618530273 C60.07500076293945,11.774999618530273 39.974998474121094,-23.024999618530273 39.974998474121094,-23.024999618530273 C39.974998474121094,-23.024999618530273 19.83799934387207,-57.9379997253418 19.83799934387207,-57.9379997253418 C43.95000076293945,-49.724998474121094 61.237998962402344,-26.924999237060547 61.237998962402344,-0.03799999877810478 C61.237998962402344,3.9749999046325684 60.862998962402344,7.9120001792907715 60.112998962402344,11.737000465393066z"></path></g></g><g transform="matrix(-0.5379294157028198,0.8429898619651794,-0.8429898619651794,-0.5379294157028198,1841.112548828125,536.8013916015625)" opacity="1" style="display: block;"><g opacity="1" transform="matrix(1,0,0,1,773.43701171875,772.9879760742188)"><path fill="rgb(0,22,48)" fill-opacity="1" d=" M0,-116.55000305175781 C-64.38700103759766,-116.55000305175781 -116.55000305175781,-64.3499984741211 -116.55000305175781,0 C-116.55000305175781,64.3499984741211 -64.3499984741211,116.55000305175781 0,116.55000305175781 C64.3499984741211,116.55000305175781 116.55000305175781,64.3499984741211 116.55000305175781,0 C116.55000305175781,-64.3499984741211 64.3499984741211,-116.55000305175781 0,-116.55000305175781z M0,67.19999694824219 C-37.08700180053711,67.19999694824219 -67.16200256347656,37.125 -67.16200256347656,0.03700000047683716 C-67.16200256347656,-37.04999923706055 -37.08700180053711,-67.125 0,-67.125 C37.0880012512207,-67.125 67.16300201416016,-37.04999923706055 67.16300201416016,0.03700000047683716 C67.16300201416016,37.125 37.0880012512207,67.19999694824219 0,67.19999694824219z"></path><path stroke-linecap="butt" stroke-linejoin="miter" fill-opacity="0" stroke-miterlimit="10" stroke="rgb(0,22,48)" stroke-opacity="1" stroke-width="1" d=" M0,-116.55000305175781 C-64.38700103759766,-116.55000305175781 -116.55000305175781,-64.3499984741211 -116.55000305175781,0 C-116.55000305175781,64.3499984741211 -64.3499984741211,116.55000305175781 0,116.55000305175781 C64.3499984741211,116.55000305175781 116.55000305175781,64.3499984741211 116.55000305175781,0 C116.55000305175781,-64.3499984741211 64.3499984741211,-116.55000305175781 0,-116.55000305175781z M0,67.19999694824219 C-37.08700180053711,67.19999694824219 -67.16200256347656,37.125 -67.16200256347656,0.03700000047683716 C-67.16200256347656,-37.04999923706055 -37.08700180053711,-67.125 0,-67.125 C37.0880012512207,-67.125 67.16300201416016,-37.04999923706055 67.16300201416016,0.03700000047683716 C67.16300201416016,37.125 37.0880012512207,67.19999694824219 0,67.19999694824219z"></path></g><g opacity="1" transform="matrix(1,0,0,1,773.4010009765625,773.0250244140625)"><path fill="rgb(215,233,255)" fill-opacity="1" d=" M11.774999618530273,-71.73799896240234 C11.774999618530273,-71.73799896240234 11.850000381469727,-71.73799896240234 11.850000381469727,-71.73799896240234 C8.024999618530273,-72.375 4.050000190734863,-72.67500305175781 0.03799999877810478,-72.67500305175781 C-3.9749999046325684,-72.67500305175781 -7.949999809265137,-72.375 -11.774999618530273,-71.73799896240234 C-46.275001525878906,-66.07499694824219 -72.63700103759766,-36.112998962402344 -72.63700103759766,0 C-72.63700103759766,9.036999702453613 -70.98699951171875,17.66200065612793 -67.98699951171875,25.61199951171875 C-65.17500305175781,33.07500076293945 -61.125,40.012001037597656 -56.137001037597656,46.08700180053711 C-42.82500076293945,62.2869987487793 -22.61199951171875,72.67500305175781 0,72.67500305175781 C22.613000869750977,72.67500305175781 42.862998962402344,62.2869987487793 56.13800048828125,46.08700180053711 C61.16299819946289,40.012001037597656 65.17500305175781,33.11199951171875 67.98799896240234,25.61199951171875 C70.98799896240234,17.625 72.63800048828125,9.036999702453613 72.63800048828125,0 C72.63800048828125,-36.112998962402344 46.3129997253418,-66.03800201416016 11.774999618530273,-71.73799896240234z M0.035999998450279236,-21.937999725341797 C12.111000061035156,-21.937999725341797 21.93600082397461,-12.11299991607666 21.93600082397461,-0.03799999877810478 C21.93600082397461,12.036999702453613 12.111000061035156,21.86199951171875 0.035999998450279236,21.86199951171875 C-12.038999557495117,21.86199951171875 -21.864999771118164,12.036999702453613 -21.864999771118164,-0.03799999877810478 C-21.864999771118164,-12.11299991607666 -12.074999809265137,-21.937999725341797 0.035999998450279236,-21.937999725341797z M-59.96200180053711,11.774999618530273 C-60.71200180053711,7.949999809265137 -61.08700180053711,4.01200008392334 -61.08700180053711,0 C-61.08700180053711,0 -61.125,-0.03799999877810478 -61.125,-0.03799999877810478 C-61.125,-26.924999237060547 -43.83700180053711,-49.724998474121094 -19.725000381469727,-57.9379997253418 C-19.725000381469727,-57.9379997253418 -39.86199951171875,-23.024999618530273 -39.86199951171875,-23.024999618530273 C-39.86199951171875,-23.024999618530273 -59.96200180053711,11.774999618530273 -59.96200180053711,11.774999618530273z M0.017999999225139618,61.125 C-15.350000381469727,61.119998931884766 -29.405000686645508,55.45800018310547 -40.1619987487793,46.04999923706055 C-40.1619987487793,46.04999923706055 40.20000076293945,46.04999923706055 40.20000076293945,46.04999923706055 C29.441999435424805,55.42100143432617 15.385000228881836,61.119998931884766 0.017999999225139618,61.125z M60.112998962402344,11.737000465393066 C60.112998962402344,11.737000465393066 60.07500076293945,11.774999618530273 60.07500076293945,11.774999618530273 C60.07500076293945,11.774999618530273 39.974998474121094,-23.024999618530273 39.974998474121094,-23.024999618530273 C39.974998474121094,-23.024999618530273 19.83799934387207,-57.9379997253418 19.83799934387207,-57.9379997253418 C43.95000076293945,-49.724998474121094 61.237998962402344,-26.924999237060547 61.237998962402344,-0.03799999877810478 C61.237998962402344,3.9749999046325684 60.862998962402344,7.9120001792907715 60.112998962402344,11.737000465393066z"></path><path stroke-linecap="butt" stroke-linejoin="miter" fill-opacity="0" stroke-miterlimit="10" stroke="rgb(54,147,255)" stroke-opacity="1" stroke-width="1" d=" M11.774999618530273,-71.73799896240234 C11.774999618530273,-71.73799896240234 11.850000381469727,-71.73799896240234 11.850000381469727,-71.73799896240234 C8.024999618530273,-72.375 4.050000190734863,-72.67500305175781 0.03799999877810478,-72.67500305175781 C-3.9749999046325684,-72.67500305175781 -7.949999809265137,-72.375 -11.774999618530273,-71.73799896240234 C-46.275001525878906,-66.07499694824219 -72.63700103759766,-36.112998962402344 -72.63700103759766,0 C-72.63700103759766,9.036999702453613 -70.98699951171875,17.66200065612793 -67.98699951171875,25.61199951171875 C-65.17500305175781,33.07500076293945 -61.125,40.012001037597656 -56.137001037597656,46.08700180053711 C-42.82500076293945,62.2869987487793 -22.61199951171875,72.67500305175781 0,72.67500305175781 C22.613000869750977,72.67500305175781 42.862998962402344,62.2869987487793 56.13800048828125,46.08700180053711 C61.16299819946289,40.012001037597656 65.17500305175781,33.11199951171875 67.98799896240234,25.61199951171875 C70.98799896240234,17.625 72.63800048828125,9.036999702453613 72.63800048828125,0 C72.63800048828125,-36.112998962402344 46.3129997253418,-66.03800201416016 11.774999618530273,-71.73799896240234z M0.035999998450279236,-21.937999725341797 C12.111000061035156,-21.937999725341797 21.93600082397461,-12.11299991607666 21.93600082397461,-0.03799999877810478 C21.93600082397461,12.036999702453613 12.111000061035156,21.86199951171875 0.035999998450279236,21.86199951171875 C-12.038999557495117,21.86199951171875 -21.864999771118164,12.036999702453613 -21.864999771118164,-0.03799999877810478 C-21.864999771118164,-12.11299991607666 -12.074999809265137,-21.937999725341797 0.035999998450279236,-21.937999725341797z M-59.96200180053711,11.774999618530273 C-60.71200180053711,7.949999809265137 -61.08700180053711,4.01200008392334 -61.08700180053711,0 C-61.08700180053711,0 -61.125,-0.03799999877810478 -61.125,-0.03799999877810478 C-61.125,-26.924999237060547 -43.83700180053711,-49.724998474121094 -19.725000381469727,-57.9379997253418 C-19.725000381469727,-57.9379997253418 -39.86199951171875,-23.024999618530273 -39.86199951171875,-23.024999618530273 C-39.86199951171875,-23.024999618530273 -59.96200180053711,11.774999618530273 -59.96200180053711,11.774999618530273z M0.017999999225139618,61.125 C-15.350000381469727,61.119998931884766 -29.405000686645508,55.45800018310547 -40.1619987487793,46.04999923706055 C-40.1619987487793,46.04999923706055 40.20000076293945,46.04999923706055 40.20000076293945,46.04999923706055 C29.441999435424805,55.42100143432617 15.385000228881836,61.119998931884766 0.017999999225139618,61.125z M60.112998962402344,11.737000465393066 C60.112998962402344,11.737000465393066 60.07500076293945,11.774999618530273 60.07500076293945,11.774999618530273 C60.07500076293945,11.774999618530273 39.974998474121094,-23.024999618530273 39.974998474121094,-23.024999618530273 C39.974998474121094,-23.024999618530273 19.83799934387207,-57.9379997253418 19.83799934387207,-57.9379997253418 C43.95000076293945,-49.724998474121094 61.237998962402344,-26.924999237060547 61.237998962402344,-0.03799999877810478 C61.237998962402344,3.9749999046325684 60.862998962402344,7.9120001792907715 60.112998962402344,11.737000465393066z"></path></g></g><g transform="matrix(1,0,0,1,0,-0.084747314453125)" opacity="1" style="display: block;"><g opacity="1" transform="matrix(1,0,0,1,764.3070068359375,732.5809936523438)"><path fill="rgb(183,217,255)" fill-opacity="1" d=" M-12.767999649047852,44.569000244140625 C3.131999969482422,52.14400100708008 22.444000244140625,50.944000244140625 33.61899948120117,40.96900177001953 C44.79399871826172,30.993999481201172 51.80699920654297,-6.8429999351501465 45.731998443603516,-29.493000030517578 C39.65700149536133,-52.143001556396484 -45.430999755859375,-29.792999267578125 -48.61800003051758,-21.506000518798828 C-51.805999755859375,-13.218000411987305 -26.792999267578125,37.89400100708008 -12.767999649047852,44.569000244140625z"></path><path stroke-linecap="butt" stroke-linejoin="miter" fill-opacity="0" stroke-miterlimit="10" stroke="rgb(54,147,255)" stroke-opacity="1" stroke-width="1" d=" M-12.767999649047852,44.569000244140625 C3.131999969482422,52.14400100708008 22.444000244140625,50.944000244140625 33.61899948120117,40.96900177001953 C44.79399871826172,30.993999481201172 51.80699920654297,-6.8429999351501465 45.731998443603516,-29.493000030517578 C39.65700149536133,-52.143001556396484 -45.430999755859375,-29.792999267578125 -48.61800003051758,-21.506000518798828 C-51.805999755859375,-13.218000411987305 -26.792999267578125,37.89400100708008 -12.767999649047852,44.569000244140625z"></path></g><g opacity="1" transform="matrix(1,0,0,1,336.375,764.0260009765625)"><path fill="rgb(159,203,255)" fill-opacity="1" d=" M308.2879943847656,-12.937999725341797 C286.57501220703125,3.0369999408721924 240.60000610351562,38.775001525878906 -5.025000095367432,30.899999618530273 C-79.46199798583984,28.5 -231.86300659179688,78.03800201416016 -279.07501220703125,5.775000095367432 C-308.2879943847656,-38.96200180053711 -288.375,-60.637001037597656 -262.95001220703125,-69.33699798583984 C-237.52499389648438,-78.03700256347656 -34.57500076293945,-62.512001037597656 40.6879997253418,-39.599998474121094 C115.94999694824219,-16.687000274658203 308.25,-12.937999725341797 308.25,-12.937999725341797 C308.25,-12.937999725341797 308.2879943847656,-12.937999725341797 308.2879943847656,-12.937999725341797z"></path><path stroke-linecap="butt" stroke-linejoin="miter" fill-opacity="0" stroke-miterlimit="10" stroke="rgb(54,147,255)" stroke-opacity="1" stroke-width="1" d=" M308.2879943847656,-12.937999725341797 C286.57501220703125,3.0369999408721924 240.60000610351562,38.775001525878906 -5.025000095367432,30.899999618530273 C-79.46199798583984,28.5 -231.86300659179688,78.03800201416016 -279.07501220703125,5.775000095367432 C-308.2879943847656,-38.96200180053711 -288.375,-60.637001037597656 -262.95001220703125,-69.33699798583984 C-237.52499389648438,-78.03700256347656 -34.57500076293945,-62.512001037597656 40.6879997253418,-39.599998474121094 C115.94999694824219,-16.687000274658203 308.25,-12.937999725341797 308.25,-12.937999725341797 C308.25,-12.937999725341797 308.2879943847656,-12.937999725341797 308.2879943847656,-12.937999725341797z"></path></g><g opacity="1" transform="matrix(1,0,0,1,58.481998443603516,578.3809814453125)"><path fill="rgb(255,255,255)" fill-opacity="1" d=" M9.281000137329102,-24.58099937438965 C2.7190001010894775,-23.417999267578125 -7.144000053405762,-16.444000244140625 -9.956000328063965,-4.593999862670898 C-12.769000053405762,7.25600004196167 -6.205999851226807,20.531999588012695 3.2809998989105225,22.55699920654297 C12.769000053405762,24.582000732421875 9.281000137329102,-24.58099937438965 9.281000137329102,-24.58099937438965z"></path><path stroke-linecap="butt" stroke-linejoin="miter" fill-opacity="0" stroke-miterlimit="10" stroke="rgb(54,147,255)" stroke-opacity="1" stroke-width="1" d=" M9.281000137329102,-24.58099937438965 C2.7190001010894775,-23.417999267578125 -7.144000053405762,-16.444000244140625 -9.956000328063965,-4.593999862670898 C-12.769000053405762,7.25600004196167 -6.205999851226807,20.531999588012695 3.2809998989105225,22.55699920654297 C12.769000053405762,24.582000732421875 9.281000137329102,-24.58099937438965 9.281000137329102,-24.58099937438965z"></path></g><g opacity="1" transform="matrix(1,0,0,1,392.6239929199219,621.2990112304688)"><path fill="rgb(242,248,255)" fill-opacity="1" d=" M182.81199645996094,109.23699951171875 C182.47500610351562,108.41200256347656 181.38699340820312,106.91300201416016 179.73699951171875,104.7760009765625 C173.73699951171875,107.96299743652344 165.56199645996094,109.31199645996094 152.21200561523438,109.23699951171875 C121.2750015258789,109.01200103759766 63.5620002746582,101.06199645996094 52.349998474121094,99.48699951171875 C41.099998474121094,97.91200256347656 31.61199951171875,46.3129997253418 29.211999893188477,4.23799991607666 C26.850000381469727,-37.83700180053711 49.08700180053711,-63.0369987487793 49.875,-75.11199951171875 C50.54999923706055,-85.23699951171875 55.08700180053711,-104.02400207519531 52.349998474121094,-114.03500366210938 C49.95000076293945,-114.86000061035156 47.32500076293945,-115.46199798583984 44.512001037597656,-115.76200103759766 C16.950000762939453,-118.91200256347656 -136.68699645996094,-111.2239990234375 -165.82400512695312,-109.7239990234375 C-165.82400512695312,-109.7239990234375 -166.64999389648438,-107.81199645996094 -166.64999389648438,-107.81199645996094 C-168.75,-107.6240005493164 -170.9239959716797,-107.28800201416016 -173.21200561523438,-106.875 C-185.0989990234375,-94.68800354003906 -186.93800354003906,-85.76000213623047 -166.64999389648438,-86.02400207519531 C-144.93800354003906,-86.3239974975586 -55.79899978637695,-86.02400207519531 -26.548999786376953,-86.02400207519531 C2.7009999752044678,-86.02400207519531 15.75100040435791,-73.3489990234375 9.22599983215332,-54.48699951171875 C2.7009999752044678,-35.624000549316406 -5.474999904632568,92.13800048828125 32.8120002746582,102.9010009765625 C71.13700103759766,113.6259994506836 186.93699645996094,118.91200256347656 182.85000610351562,109.31199645996094 C182.85000610351562,109.31199645996094 182.81199645996094,109.23699951171875 182.81199645996094,109.23699951171875z"></path><path stroke-linecap="butt" stroke-linejoin="miter" fill-opacity="0" stroke-miterlimit="10" stroke="rgb(0,22,48)" stroke-opacity="1" stroke-width="1.5" d=" M182.81199645996094,109.23699951171875 C182.47500610351562,108.41200256347656 181.38699340820312,106.91300201416016 179.73699951171875,104.7760009765625 C173.73699951171875,107.96299743652344 165.56199645996094,109.31199645996094 152.21200561523438,109.23699951171875 C121.2750015258789,109.01200103759766 63.5620002746582,101.06199645996094 52.349998474121094,99.48699951171875 C41.099998474121094,97.91200256347656 31.61199951171875,46.3129997253418 29.211999893188477,4.23799991607666 C26.850000381469727,-37.83700180053711 49.08700180053711,-63.0369987487793 49.875,-75.11199951171875 C50.54999923706055,-85.23699951171875 55.08700180053711,-104.02400207519531 52.349998474121094,-114.03500366210938 C49.95000076293945,-114.86000061035156 47.32500076293945,-115.46199798583984 44.512001037597656,-115.76200103759766 C16.950000762939453,-118.91200256347656 -136.68699645996094,-111.2239990234375 -165.82400512695312,-109.7239990234375 C-165.82400512695312,-109.7239990234375 -166.64999389648438,-107.81199645996094 -166.64999389648438,-107.81199645996094 C-168.75,-107.6240005493164 -170.9239959716797,-107.28800201416016 -173.21200561523438,-106.875 C-185.0989990234375,-94.68800354003906 -186.93800354003906,-85.76000213623047 -166.64999389648438,-86.02400207519531 C-144.93800354003906,-86.3239974975586 -55.79899978637695,-86.02400207519531 -26.548999786376953,-86.02400207519531 C2.7009999752044678,-86.02400207519531 15.75100040435791,-73.3489990234375 9.22599983215332,-54.48699951171875 C2.7009999752044678,-35.624000549316406 -5.474999904632568,92.13800048828125 32.8120002746582,102.9010009765625 C71.13700103759766,113.6259994506836 186.93699645996094,118.91200256347656 182.85000610351562,109.31199645996094 C182.85000610351562,109.31199645996094 182.81199645996094,109.23699951171875 182.81199645996094,109.23699951171875z"></path></g><g opacity="1" transform="matrix(1,0,0,1,334.0880126953125,495.20599365234375)"><path fill="rgb(159,203,255)" fill-opacity="1" d=" M129.48699951171875,24.01799964904785 C132.63699340820312,33.018001556396484 79.64900207519531,29.79400062561035 31.948999404907227,29.118999481201172 C-15.75100040435791,28.406999588012695 -108.93800354003906,32.11899948120117 -120.78800201416016,29.23200035095215 C-132.63800048828125,26.3439998626709 -96.6760025024414,-33.018001556396484 -78.5260009765625,-32.305999755859375 C-60.375999450683594,-31.593000411987305 -21.63800048828125,-21.69300079345703 17.437000274658203,-19.743000030517578 C64.04900360107422,-17.417999267578125 107.8489990234375,-22.368000030517578 114.11199951171875,-14.081000328063965 C120.41200256347656,-5.793000221252441 129.48699951171875,24.01799964904785 129.48699951171875,24.01799964904785z"></path><path stroke-linecap="butt" stroke-linejoin="miter" fill-opacity="0" stroke-miterlimit="10" stroke="rgb(54,147,255)" stroke-opacity="1" stroke-width="1" d=" M129.48699951171875,24.01799964904785 C132.63699340820312,33.018001556396484 79.64900207519531,29.79400062561035 31.948999404907227,29.118999481201172 C-15.75100040435791,28.406999588012695 -108.93800354003906,32.11899948120117 -120.78800201416016,29.23200035095215 C-132.63800048828125,26.3439998626709 -96.6760025024414,-33.018001556396484 -78.5260009765625,-32.305999755859375 C-60.375999450683594,-31.593000411987305 -21.63800048828125,-21.69300079345703 17.437000274658203,-19.743000030517578 C64.04900360107422,-17.417999267578125 107.8489990234375,-22.368000030517578 114.11199951171875,-14.081000328063965 C120.41200256347656,-5.793000221252441 129.48699951171875,24.01799964904785 129.48699951171875,24.01799964904785z"></path></g><g opacity="1" transform="matrix(1,0,0,1,442.9119873046875,569.9810180664062)"><path fill="rgb(215,233,255)" fill-opacity="1" d=" M299.4750061035156,37.63199996948242 C288.5249938964844,38.53200149536133 278.4739990234375,40.36899948120117 269.2489929199219,42.95500183105469 C269.2489929199219,42.654998779296875 269.3240051269531,42.31999969482422 269.3240051269531,42.02000045776367 C269.77398681640625,30.844999313354492 256.4620056152344,-34.40599822998047 245.06199645996094,-87.43099975585938 C241.87399291992188,-110.75599670410156 250.01199340820312,-123.76799774169922 258.7120056152344,-129.91799926757812 C264.0369873046875,-133.66799926757812 273.7489929199219,-135.54299926757812 273.56201171875,-145.66799926757812 C273.4119873046875,-154.21800231933594 271.3489990234375,-187.6300048828125 269.3240051269531,-196.92999267578125 C267.3370056152344,-206.22999572753906 256.2749938964844,-203.83099365234375 249.89999389648438,-200.9429931640625 C244.16299438476562,-198.3179931640625 239.88699340820312,-189.3179931640625 229.46200561523438,-185.156005859375 C213.9739990234375,-182.64300537109375 178.93299865722656,-175.93299865722656 182.6179962158203,-161.63800048828125 C227.82200622558594,13.715999603271484 160.76300048828125,113.41899871826172 148.35000610351562,133.2570037841797 C135.97500610351562,153.093994140625 132.78799438476562,160.7050018310547 101.8499984741211,160.47999572753906 C70.91300201416016,160.2550048828125 13.199000358581543,152.3070068359375 1.9869999885559082,150.73199462890625 C-9.262999534606934,149.15699768066406 -18.75,97.55500030517578 -21.149999618530273,55.47999954223633 C-23.511999130249023,13.404999732971191 -1.274999976158142,-11.793000221252441 -0.4869999885559082,-23.868000030517578 C0.30000001192092896,-35.94300079345703 6.675000190734863,-60.393001556396484 -0.4869999885559082,-67.51799774169922 C-7.650000095367432,-74.64299774169922 -208.46299743652344,-76.36799621582031 -208.46299743652344,-76.36799621582031 C-208.46299743652344,-76.36799621582031 -217.01199340820312,-56.56800079345703 -217.01199340820312,-56.56800079345703 C-241.125,-54.31800079345703 -278.2869873046875,-37.518001556396484 -314.73699951171875,-10.368000030517578 C-351.3370056152344,-10.968000411987305 -358.23699951171875,-16.18000030517578 -363.4490051269531,-18.54199981689453 C-368.6619873046875,-20.905000686645508 -376.1239929199219,-20.83099937438965 -377.73699951171875,-13.218000411987305 C-379.3869934082031,-5.605999946594238 -381.0740051269531,21.768999099731445 -381.18701171875,28.781999588012695 C-381.3370056152344,37.106998443603516 -376.0119934082031,37.59400177001953 -376.4989929199219,42.880001068115234 C-376.79901123046875,46.255001068115234 -377.54998779296875,49.63100051879883 -382.9129943847656,57.02000045776367 C-382.95001220703125,57.095001220703125 -382.9880065917969,57.132999420166016 -383.0249938964844,57.20800018310547 C-397.125,76.10800170898438 -408.8999938964844,96.69400024414062 -416.7749938964844,118.63200378417969 C-437.25,175.5570068359375 -426.93798828125,173.718994140625 -416.7749938964844,171.80499267578125 C-398.2130126953125,168.31900024414062 -365.02398681640625,165.5070037841797 -318.7489929199219,162.69400024414062 C-259.3869934082031,159.093994140625 -167.81199645996094,166.2550048828125 -117.18699645996094,178.7050018310547 C-48.150001525878906,195.69400024414062 14.473999977111816,206.22999572753906 92.2490005493164,203.0800018310547 C105.03700256347656,202.55499267578125 117.26300048828125,201.16900634765625 128.85000610351562,199.10499572753906 C128.85000610351562,199.10499572753906 246.5989990234375,177.69500732421875 294.18701171875,168.6199951171875 C382.7619934082031,151.7449951171875 399.56201171875,145.33299255371094 437.2489929199219,134.4949951171875 C425.43701171875,74.94499969482422 365.0989990234375,32.22999954223633 299.43701171875,37.66899871826172 C299.43701171875,37.66899871826172 299.4750061035156,37.63199996948242 299.4750061035156,37.63199996948242z"></path><path stroke-linecap="butt" stroke-linejoin="miter" fill-opacity="0" stroke-miterlimit="4" stroke="rgb(54,147,255)" stroke-opacity="1" stroke-width="1" d=" M299.4750061035156,37.63199996948242 C288.5249938964844,38.53200149536133 278.4739990234375,40.36899948120117 269.2489929199219,42.95500183105469 C269.2489929199219,42.654998779296875 269.3240051269531,42.31999969482422 269.3240051269531,42.02000045776367 C269.77398681640625,30.844999313354492 256.4620056152344,-34.40599822998047 245.06199645996094,-87.43099975585938 C241.87399291992188,-110.75599670410156 250.01199340820312,-123.76799774169922 258.7120056152344,-129.91799926757812 C264.0369873046875,-133.66799926757812 273.7489929199219,-135.54299926757812 273.56201171875,-145.66799926757812 C273.4119873046875,-154.21800231933594 271.3489990234375,-187.6300048828125 269.3240051269531,-196.92999267578125 C267.3370056152344,-206.22999572753906 256.2749938964844,-203.83099365234375 249.89999389648438,-200.9429931640625 C244.16299438476562,-198.3179931640625 239.88699340820312,-189.3179931640625 229.46200561523438,-185.156005859375 C213.9739990234375,-182.64300537109375 178.93299865722656,-175.93299865722656 182.6179962158203,-161.63800048828125 C227.82200622558594,13.715999603271484 160.76300048828125,113.41899871826172 148.35000610351562,133.2570037841797 C135.97500610351562,153.093994140625 132.78799438476562,160.7050018310547 101.8499984741211,160.47999572753906 C70.91300201416016,160.2550048828125 13.199000358581543,152.3070068359375 1.9869999885559082,150.73199462890625 C-9.262999534606934,149.15699768066406 -18.75,97.55500030517578 -21.149999618530273,55.47999954223633 C-23.511999130249023,13.404999732971191 -1.274999976158142,-11.793000221252441 -0.4869999885559082,-23.868000030517578 C0.30000001192092896,-35.94300079345703 6.675000190734863,-60.393001556396484 -0.4869999885559082,-67.51799774169922 C-7.650000095367432,-74.64299774169922 -208.46299743652344,-76.36799621582031 -208.46299743652344,-76.36799621582031 C-208.46299743652344,-76.36799621582031 -217.01199340820312,-56.56800079345703 -217.01199340820312,-56.56800079345703 C-241.125,-54.31800079345703 -278.2869873046875,-37.518001556396484 -314.73699951171875,-10.368000030517578 C-351.3370056152344,-10.968000411987305 -358.23699951171875,-16.18000030517578 -363.4490051269531,-18.54199981689453 C-368.6619873046875,-20.905000686645508 -376.1239929199219,-20.83099937438965 -377.73699951171875,-13.218000411987305 C-379.3869934082031,-5.605999946594238 -381.0740051269531,21.768999099731445 -381.18701171875,28.781999588012695 C-381.3370056152344,37.106998443603516 -376.0119934082031,37.59400177001953 -376.4989929199219,42.880001068115234 C-376.79901123046875,46.255001068115234 -377.54998779296875,49.63100051879883 -382.9129943847656,57.02000045776367 C-382.95001220703125,57.095001220703125 -382.9880065917969,57.132999420166016 -383.0249938964844,57.20800018310547 C-397.125,76.10800170898438 -408.8999938964844,96.69400024414062 -416.7749938964844,118.63200378417969 C-437.25,175.5570068359375 -426.93798828125,173.718994140625 -416.7749938964844,171.80499267578125 C-398.2130126953125,168.31900024414062 -365.02398681640625,165.5070037841797 -318.7489929199219,162.69400024414062 C-259.3869934082031,159.093994140625 -167.81199645996094,166.2550048828125 -117.18699645996094,178.7050018310547 C-48.150001525878906,195.69400024414062 14.473999977111816,206.22999572753906 92.2490005493164,203.0800018310547 C105.03700256347656,202.55499267578125 117.26300048828125,201.16900634765625 128.85000610351562,199.10499572753906 C128.85000610351562,199.10499572753906 246.5989990234375,177.69500732421875 294.18701171875,168.6199951171875 C382.7619934082031,151.7449951171875 399.56201171875,145.33299255371094 437.2489929199219,134.4949951171875 C425.43701171875,74.94499969482422 365.0989990234375,32.22999954223633 299.43701171875,37.66899871826172 C299.43701171875,37.66899871826172 299.4750061035156,37.63199996948242 299.4750061035156,37.63199996948242z"></path></g><g opacity="1" transform="matrix(1,0,0,1,663.4039916992188,686.2849731445312)"><path fill="rgb(183,217,255)" fill-opacity="1" d=" M45.95500183105469,-71.55999755859375 C32.85900115966797,-69.4280014038086 -10.38700008392334,-48.40299987792969 -27.974000930786133,7.8379998207092285 C-36.88600158691406,41.672000885009766 -34.986000061035156,71.55999755859375 -34.986000061035156,71.55999755859375 C-34.986000061035156,71.55999755859375 -45.95500183105469,40.59400177001953 -36.41999816894531,3.359999895095825 C-29.4060001373291,-20.524999618530273 -15.378999710083008,-46.95500183105469 12.013999938964844,-60.81399917602539 C36.6349983215332,-71.0719985961914 45.91699981689453,-71.55999755859375 45.91699981689453,-71.55999755859375 C45.91699981689453,-71.55999755859375 45.95500183105469,-71.55999755859375 45.95500183105469,-71.55999755859375z"></path></g><g opacity="1" transform="matrix(1,0,0,1,221.906005859375,668.6309814453125)"><path fill="rgb(183,217,255)" fill-opacity="1" d=" M-181.93099975585938,63.74399948120117 C-167.9429931640625,51.14400100708008 -94.48100280761719,-18.1560001373291 12.319000244140625,-32.03099822998047 C105.54399871826172,-44.180999755859375 181.93099975585938,-14.744000434875488 181.93099975585938,-14.744000434875488 C181.93099975585938,-14.744000434875488 120.2300033569336,-63.74399948120117 2.7939999103546143,-45.26900100708008 C-109.36900329589844,-27.624000549316406 -162.43099975585938,35.46900177001953 -181.93099975585938,63.74399948120117z"></path></g><g opacity="1" transform="matrix(1,0,0,1,242.99899291992188,684.3569946289062)"><path fill="rgb(183,217,255)" fill-opacity="1" d=" M52.500999450683594,-16.66900062561035 C84.6760025024414,-16.66900062561035 115.83699798583984,-13.631999969482422 145.53700256347656,-7.968999862670898 C111.78700256347656,-19.406999588012695 74.0999984741211,-25.7810001373291 34.387001037597656,-25.7810001373291 C-35.2130012512207,-25.7810001373291 -98.4749984741211,-6.206999778747559 -145.53700256347656,25.7810001373291 C-88.57499694824219,-1.069000005722046 -20.548999786376953,-16.66900062561035 52.500999450683594,-16.66900062561035z"></path></g><g opacity="1" transform="matrix(1,0,0,1,249.5240020751953,707.7379760742188)"><path fill="rgb(183,217,255)" fill-opacity="1" d=" M40.01300048828125,-3.2990000247955322 C63.5629997253418,-1.2740000486373901 86.21199798583984,2.888000011444092 107.58699798583984,8.925999641418457 C83.58699798583984,-1.5369999408721924 56.400001525878906,-8.586999893188477 27.336999893188477,-11.062000274658203 C-23.625,-15.411999702453613 -71.17400360107422,-5.063000202178955 -107.58699798583984,15.411999702453613 C-64.1989974975586,-0.675000011920929 -13.423999786376953,-7.8379998207092285 40.05099868774414,-3.263000011444092 C40.05099868774414,-3.263000011444092 40.01300048828125,-3.2990000247955322 40.01300048828125,-3.2990000247955322z"></path></g><g opacity="1" transform="matrix(1,0,0,1,717.7880249023438,400.3489990234375)"><path fill="rgb(255,255,255)" fill-opacity="1" d=" M-8.774999618530273,-29.062000274658203 C-2.5880000591278076,-27.673999786376953 6.7870001792907715,-19.46299934387207 9.411999702453613,-5.438000202178955 C12.074999809265137,8.586999893188477 5.88700008392334,24.26300048828125 -3.11299991607666,26.663000106811523 C-12.074999809265137,29.062999725341797 -8.812999725341797,-29.062000274658203 -8.812999725341797,-29.062000274658203 C-8.812999725341797,-29.062000274658203 -8.774999618530273,-29.062000274658203 -8.774999618530273,-29.062000274658203z"></path><path stroke-linecap="butt" stroke-linejoin="miter" fill-opacity="0" stroke-miterlimit="10" stroke="rgb(54,147,255)" stroke-opacity="1" stroke-width="1" d=" M-8.774999618530273,-29.062000274658203 C-2.5880000591278076,-27.673999786376953 6.7870001792907715,-19.46299934387207 9.411999702453613,-5.438000202178955 C12.074999809265137,8.586999893188477 5.88700008392334,24.26300048828125 -3.11299991607666,26.663000106811523 C-12.074999809265137,29.062999725341797 -8.812999725341797,-29.062000274658203 -8.812999725341797,-29.062000274658203 C-8.812999725341797,-29.062000274658203 -8.774999618530273,-29.062000274658203 -8.774999618530273,-29.062000274658203z"></path></g></g><g transform="matrix(1,0,0,1,0,0)" opacity="1" style="display: block;"><g opacity="1" transform="matrix(1,0,0,1,627.2059936523438,398.37200927734375)"><path fill="rgb(0,22,48)" fill-opacity="1" d=" M21.569000244140625,-32.77000045776367 C-2.371000051498413,-29.499000549316406 -22.57699966430664,-26.53499984741211 -21.35700035095215,-17.9950008392334 C-20.58799934387207,-12.6850004196167 -6.322000026702881,-17.406999588012695 6.697000026702881,-19.718000411987305 C19.71500015258789,-22.027000427246094 31.854999542236328,-24.12299919128418 32.36600112915039,-20.381999969482422 C32.78799819946289,-17.292999267578125 25.836999893188477,-8.854000091552734 13.392000198364258,-12.07800006866455 C7.695000171661377,-13.553999900817871 2.86899995803833,-10.14799976348877 0.7480000257492065,-5.986000061035156 C-1.9420000314712524,-0.7080000042915344 0.7059999704360962,6.879000186920166 9.003999710083008,4.15500020980835 C17.195999145507812,1.465000033378601 19.731000900268555,1.5440000295639038 18.968000411987305,6.084000110626221 C17.195999145507812,16.63800048828125 -30.558000564575195,17.259000778198242 -40.7599983215332,20.047000885009766 C-50.92100143432617,22.83799934387207 -51.29499816894531,29.628000259399414 -45.20899963378906,32.922000885009766 C-39.16400146484375,36.21799850463867 -13.269000053405762,30.351999282836914 -6.139999866485596,29.02899932861328 C0.9909999966621399,27.704999923706055 16.479000091552734,23.597999572753906 29.259000778198242,16.17300033569336 C42.13600158691406,8.6899995803833 51.29499816894531,-10.743000030517578 50.6870002746582,-23.222999572753906 C50.20399856567383,-33.14400100708008 40.85599899291992,-36.21799850463867 21.569000244140625,-32.77000045776367z"></path></g><g opacity="1" transform="matrix(1,0,0,1,628.2020263671875,382.3819885253906)"><path fill="rgb(242,248,255)" fill-opacity="1" d=" M1.378999948501587,-3.313999891281128 C1.378999948501587,-3.313999891281128 -4.111999988555908,-3.8289999961853027 -4.111999988555908,-3.8289999961853027 C-15.670999526977539,-5.453999996185303 -13.741999626159668,-1.7079999446868896 -9.833999633789062,2.8980000019073486 C-7.7820000648498535,5.243000030517578 -4.591000080108643,6.245999813079834 -1.565999984741211,5.497000217437744 C-1.565999984741211,5.497000217437744 7.734000205993652,3.194000005722046 7.734000205993652,3.194000005722046 C10.121000289916992,2.6029999256134033 12.125,0.9860000014305115 13.208000183105469,-1.222000002861023 C13.208000183105469,-1.222000002861023 15.67199993133545,-6.245999813079834 15.67199993133545,-6.245999813079834 C15.67199993133545,-6.245999813079834 1.378999948501587,-3.313999891281128 1.378999948501587,-3.313999891281128z"></path><path stroke-linecap="butt" stroke-linejoin="miter" fill-opacity="0" stroke-miterlimit="10" stroke="rgb(0,22,48)" stroke-opacity="1" stroke-width="1" d=" M1.378999948501587,-3.313999891281128 C1.378999948501587,-3.313999891281128 -4.111999988555908,-3.8289999961853027 -4.111999988555908,-3.8289999961853027 C-15.670999526977539,-5.453999996185303 -13.741999626159668,-1.7079999446868896 -9.833999633789062,2.8980000019073486 C-7.7820000648498535,5.243000030517578 -4.591000080108643,6.245999813079834 -1.565999984741211,5.497000217437744 C-1.565999984741211,5.497000217437744 7.734000205993652,3.194000005722046 7.734000205993652,3.194000005722046 C10.121000289916992,2.6029999256134033 12.125,0.9860000014305115 13.208000183105469,-1.222000002861023 C13.208000183105469,-1.222000002861023 15.67199993133545,-6.245999813079834 15.67199993133545,-6.245999813079834 C15.67199993133545,-6.245999813079834 1.378999948501587,-3.313999891281128 1.378999948501587,-3.313999891281128z"></path></g><g opacity="1" transform="matrix(1,0,0,1,518.8480224609375,280.93499755859375)"><path fill="rgb(255,255,255)" fill-opacity="1" d=" M97.3489990234375,70.49099731445312 C96.73699951171875,70.16999816894531 96.10299682617188,69.91899871826172 95.43599700927734,69.73400115966797 C85.26000213623047,66.91600036621094 -0.7360000014305115,36.185001373291016 -6.034999847412109,34.064998626708984 C-11.99899959564209,31.665000915527344 -73.9219970703125,-43.04199981689453 -96.7969970703125,-68.05599975585938 C-119.6719970703125,-93.10600280761719 -123.2979965209961,-45.24800109863281 -123.2979965209961,-45.24800109863281 C-106.45899963378906,-15.28499984741211 -51.63399887084961,52.10200119018555 -33.073001861572266,60.12699890136719 C-16.448999404907227,67.35099792480469 47.777000427246094,81.1709976196289 90.4280014038086,85.76499938964844 C93.11000061035156,86.05400085449219 90.88200378417969,89.65599822998047 94.37100219726562,92.88200378417969 C94.37100219726562,92.88200378417969 94.53900146484375,93.10600280761719 94.53900146484375,93.10600280761719 C94.53900146484375,93.10600280761719 123.2979965209961,86.3949966430664 123.2979965209961,86.3949966430664 C116.61199951171875,73.61199951171875 97.3489990234375,70.49099731445312 97.3489990234375,70.49099731445312z"></path><path stroke-linecap="butt" stroke-linejoin="miter" fill-opacity="0" stroke-miterlimit="10" stroke="rgb(0,22,48)" stroke-opacity="1" stroke-width="1" d=" M97.3489990234375,70.49099731445312 C96.73699951171875,70.16999816894531 96.10299682617188,69.91899871826172 95.43599700927734,69.73400115966797 C85.26000213623047,66.91600036621094 -0.7360000014305115,36.185001373291016 -6.034999847412109,34.064998626708984 C-11.99899959564209,31.665000915527344 -73.9219970703125,-43.04199981689453 -96.7969970703125,-68.05599975585938 C-119.6719970703125,-93.10600280761719 -123.2979965209961,-45.24800109863281 -123.2979965209961,-45.24800109863281 C-106.45899963378906,-15.28499984741211 -51.63399887084961,52.10200119018555 -33.073001861572266,60.12699890136719 C-16.448999404907227,67.35099792480469 47.777000427246094,81.1709976196289 90.4280014038086,85.76499938964844 C93.11000061035156,86.05400085449219 90.88200378417969,89.65599822998047 94.37100219726562,92.88200378417969 C94.37100219726562,92.88200378417969 94.53900146484375,93.10600280761719 94.53900146484375,93.10600280761719 C94.53900146484375,93.10600280761719 123.2979965209961,86.3949966430664 123.2979965209961,86.3949966430664 C116.61199951171875,73.61199951171875 97.3489990234375,70.49099731445312 97.3489990234375,70.49099731445312z"></path></g><g opacity="1" transform="matrix(1,0,0,1,367.7749938964844,327.9939880371094)"><path fill="rgb(54,147,255)" fill-opacity="1" d=" M-82.51100158691406,92.38099670410156 C-81.8740005493164,71.60600280761719 -65.18599700927734,44.34400177001953 -49.21099853515625,19.106000900268555 C-33.19900131225586,-6.13100004196167 -19.361000061035156,-67.18099975585938 -18.68600082397461,-98.45600128173828 C-18.01099967956543,-129.7310028076172 -3.9860000610351562,-150.7689971923828 19.375999450683594,-151.8939971923828 C42.73899841308594,-153.0189971923828 54.630001068115234,-123.80799865722656 64.56900024414062,-93.31999969482422 C83.33699798583984,-53.96799850463867 67.79000091552734,-49.69200134277344 56.09299850463867,-32.474998474121094 C44.202999114990234,-14.975000381469727 20.538999557495117,32.34400177001953 22.788999557495117,57.20600128173828 C25.038999557495117,82.10600280761719 31.339000701904297,94.70600128173828 23.125999450683594,108.24400329589844 C14.913999557495117,121.78099822998047 -13.51099967956543,153.0189971923828 -39.83599853515625,147.31900024414062 C-66.1240005493164,141.61900329589844 -83.33599853515625,118.44400024414062 -82.54900360107422,92.34400177001953 C-82.54900360107422,92.34400177001953 -82.51100158691406,92.38099670410156 -82.51100158691406,92.38099670410156z"></path><path stroke-linecap="butt" stroke-linejoin="miter" fill-opacity="0" stroke-miterlimit="10" stroke="rgb(0,22,48)" stroke-opacity="1" stroke-width="1" d=" M-82.51100158691406,92.38099670410156 C-81.8740005493164,71.60600280761719 -65.18599700927734,44.34400177001953 -49.21099853515625,19.106000900268555 C-33.19900131225586,-6.13100004196167 -19.361000061035156,-67.18099975585938 -18.68600082397461,-98.45600128173828 C-18.01099967956543,-129.7310028076172 -3.9860000610351562,-150.7689971923828 19.375999450683594,-151.8939971923828 C42.73899841308594,-153.0189971923828 54.630001068115234,-123.80799865722656 64.56900024414062,-93.31999969482422 C83.33699798583984,-53.96799850463867 67.79000091552734,-49.69200134277344 56.09299850463867,-32.474998474121094 C44.202999114990234,-14.975000381469727 20.538999557495117,32.34400177001953 22.788999557495117,57.20600128173828 C25.038999557495117,82.10600280761719 31.339000701904297,94.70600128173828 23.125999450683594,108.24400329589844 C14.913999557495117,121.78099822998047 -13.51099967956543,153.0189971923828 -39.83599853515625,147.31900024414062 C-66.1240005493164,141.61900329589844 -83.33599853515625,118.44400024414062 -82.54900360107422,92.34400177001953 C-82.54900360107422,92.34400177001953 -82.51100158691406,92.38099670410156 -82.51100158691406,92.38099670410156z"></path></g><g opacity="1" transform="matrix(1,0,0,1,401.42401123046875,167.81900024414062)"><path fill="rgb(255,255,255)" fill-opacity="1" d=" M-20.020999908447266,8.993000030517578 C-14.989999771118164,5.28000020980835 -3.7790000438690186,-7.875999927520752 -2.9839999675750732,-24.902999877929688 C-2.1019999980926514,-28.840999603271484 20.020999908447266,-7.76200008392334 20.020999908447266,-7.76200008392334 C20.020999908447266,-7.76200008392334 4.394000053405762,12.329999923706055 8.593999862670898,27.541000366210938 C-5.218999862670898,28.840999603271484 -20.020999908447266,8.993000030517578 -20.020999908447266,8.993000030517578z"></path><path stroke-linecap="butt" stroke-linejoin="miter" fill-opacity="0" stroke-miterlimit="10" stroke="rgb(0,22,48)" stroke-opacity="1" stroke-width="1" d=" M-20.020999908447266,8.993000030517578 C-14.989999771118164,5.28000020980835 -3.7790000438690186,-7.875999927520752 -2.9839999675750732,-24.902999877929688 C-2.1019999980926514,-28.840999603271484 20.020999908447266,-7.76200008392334 20.020999908447266,-7.76200008392334 C20.020999908447266,-7.76200008392334 4.394000053405762,12.329999923706055 8.593999862670898,27.541000366210938 C-5.218999862670898,28.840999603271484 -20.020999908447266,8.993000030517578 -20.020999908447266,8.993000030517578z"></path></g><g opacity="1" transform="matrix(1,0,0,1,413.9670104980469,117.30899810791016)"><path fill="rgb(255,255,255)" fill-opacity="1" d=" M35.6349983215332,-1.5 C35.75299835205078,-2.117000102996826 35.87699890136719,-2.697000026702881 35.95899963378906,-3.309999942779541 C36.1870002746582,-4.959000110626221 36.22999954223633,-6.585999965667725 36.27199935913086,-8.21399974822998 C36.263999938964844,-8.288000106811523 36.28900146484375,-8.404000282287598 36.31700134277344,-8.482000350952148 C36.29399871826172,-28.06599998474121 21.80699920654297,-45.071998596191406 1.8539999723434448,-47.64899826049805 C-19.82200050354004,-50.446998596191406 -39.641998291015625,-35.150001525878906 -42.44499969482422,-13.51200008392334 C-43.1510009765625,-8.072999954223633 -42.70199966430664,-2.765000104904175 -41.310001373291016,2.2100000381469727 C-5.6579999923706055,33.28900146484375 -11.57800006866455,47.242000579833984 3.072000026702881,48.98400115966797 C13.746999740600586,50.26900100708008 21.424999237060547,50.448001861572266 28.464000701904297,45.61600112915039 C32.775001525878906,42.67499923706055 33.28300094604492,35.486000061035156 33.926998138427734,22.80900001525879 C33.926998138427734,22.80900001525879 43.1510009765625,18.72800064086914 39.9109992980957,15.666999816894531 C36.29899978637695,12.253999710083008 34.441001892089844,3.6419999599456787 35.6349983215332,-1.5z"></path><path stroke-linecap="butt" stroke-linejoin="miter" fill-opacity="0" stroke-miterlimit="10" stroke="rgb(0,22,48)" stroke-opacity="1" stroke-width="1" d=" M35.6349983215332,-1.5 C35.75299835205078,-2.117000102996826 35.87699890136719,-2.697000026702881 35.95899963378906,-3.309999942779541 C36.1870002746582,-4.959000110626221 36.22999954223633,-6.585999965667725 36.27199935913086,-8.21399974822998 C36.263999938964844,-8.288000106811523 36.28900146484375,-8.404000282287598 36.31700134277344,-8.482000350952148 C36.29399871826172,-28.06599998474121 21.80699920654297,-45.071998596191406 1.8539999723434448,-47.64899826049805 C-19.82200050354004,-50.446998596191406 -39.641998291015625,-35.150001525878906 -42.44499969482422,-13.51200008392334 C-43.1510009765625,-8.072999954223633 -42.70199966430664,-2.765000104904175 -41.310001373291016,2.2100000381469727 C-5.6579999923706055,33.28900146484375 -11.57800006866455,47.242000579833984 3.072000026702881,48.98400115966797 C13.746999740600586,50.26900100708008 21.424999237060547,50.448001861572266 28.464000701904297,45.61600112915039 C32.775001525878906,42.67499923706055 33.28300094604492,35.486000061035156 33.926998138427734,22.80900001525879 C33.926998138427734,22.80900001525879 43.1510009765625,18.72800064086914 39.9109992980957,15.666999816894531 C36.29899978637695,12.253999710083008 34.441001892089844,3.6419999599456787 35.6349983215332,-1.5z"></path></g><g opacity="1" transform="matrix(1,0,0,1,488.7409973144531,607.8170166015625)"><path fill="rgb(255,255,255)" fill-opacity="1" d=" M10.913999557495117,-90.46900177001953 C15.60200023651123,-87.28099822998047 30.750999450683594,-95.04399871826172 31.875999450683594,-82.03099822998047 C33.63800048828125,-61.89400100708008 36.755001068115234,-51.61800003051758 19.780000686645508,-10.187000274658203 C-15.380000114440918,75.63099670410156 -3.5759999752044678,89.39600372314453 -3.5759999752044678,89.39600372314453 C-3.5759999752044678,89.39600372314453 -36.75400161743164,95.04399871826172 -36.75400161743164,95.04399871826172 C-36.75400161743164,95.04399871826172 -30.083999633789062,49.44300079345703 -29.68400001525879,4.486000061035156 C-28.99799919128418,-72.75299835205078 10.913999557495117,-90.46900177001953 10.913999557495117,-90.46900177001953z"></path><path stroke-linecap="butt" stroke-linejoin="miter" fill-opacity="0" stroke-miterlimit="10" stroke="rgb(0,22,48)" stroke-opacity="1" stroke-width="1" d=" M10.913999557495117,-90.46900177001953 C15.60200023651123,-87.28099822998047 30.750999450683594,-95.04399871826172 31.875999450683594,-82.03099822998047 C33.63800048828125,-61.89400100708008 36.755001068115234,-51.61800003051758 19.780000686645508,-10.187000274658203 C-15.380000114440918,75.63099670410156 -3.5759999752044678,89.39600372314453 -3.5759999752044678,89.39600372314453 C-3.5759999752044678,89.39600372314453 -36.75400161743164,95.04399871826172 -36.75400161743164,95.04399871826172 C-36.75400161743164,95.04399871826172 -30.083999633789062,49.44300079345703 -29.68400001525879,4.486000061035156 C-28.99799919128418,-72.75299835205078 10.913999557495117,-90.46900177001953 10.913999557495117,-90.46900177001953z"></path></g><g opacity="1" transform="matrix(1,0,0,1,412.38800048828125,475.0679931640625)"><path fill="rgb(0,22,48)" fill-opacity="1" d=" M62.4370002746582,-16.332000732421875 C22.575000762939453,-41.71900177001953 0.1120000034570694,-57.46900177001953 -18.299999237060547,-67.63200378417969 C-19.424999237060547,-72.88200378417969 -21,-78.73100280761719 -22.46299934387207,-85.66799926757812 C-80.625,-89.79299926757812 -109.31300354003906,-105.39299774169922 -109.31300354003906,-105.39299774169922 C-119.17500305175781,-85.44300079345703 -127.125,-65.68199920654297 -126.375,-50.231998443603516 C-125.17500305175781,-24.131999969482422 -106.08799743652344,-2.381999969482422 -79.42500305175781,1.2929999828338623 C-78.18800354003906,1.4809999465942383 -76.94999694824219,1.4819999933242798 -75.71299743652344,1.4819999933242798 C-72.56300354003906,3.5820000171661377 -69.1500015258789,5.718999862670898 -65.32499694824219,7.818999767303467 C-8.475000381469727,39.61899948120117 47.8120002746582,54.694000244140625 62.25,58.25699996948242 C57.71200180053711,67.29399871826172 53.21200180053711,78.84400177001953 50.512001037597656,93.09400177001953 C66.9749984741211,105.39399719238281 106.94599914550781,99.03800201416016 106.94599914550781,99.03800201416016 C106.94599914550781,99.03800201416016 112.38300323486328,82.93299865722656 117.16200256347656,66.97000122070312 C119.49800109863281,59.167999267578125 127.125,24.91900062561035 62.400001525878906,-16.368000030517578 C62.400001525878906,-16.368000030517578 62.4370002746582,-16.332000732421875 62.4370002746582,-16.332000732421875z"></path></g><g opacity="1" transform="matrix(1,0,0,1,500.72698974609375,338.4209899902344)"><path fill="rgb(255,255,255)" fill-opacity="1" d=" M-19.051000595092773,-8.928000450134277 C-41.66999816894531,-28.06999969482422 -97.2300033569336,-96.18000030517578 -97.2300033569336,-96.18000030517578 C-106.31099700927734,-75.9739990234375 -127.51000213623047,-74.36900329589844 -127.51000213623047,-74.36900329589844 C-102.2249984741211,-23.983999252319336 -51.67399978637695,6.744999885559082 -46.720001220703125,18.760000228881836 C-28.8700008392334,27.347999572753906 84.49299621582031,70.60600280761719 84.49299621582031,70.60600280761719 C84.49299621582031,70.60600280761719 95.83499908447266,92.1050033569336 95.83499908447266,92.1050033569336 C97.25199890136719,94.79000091552734 100.302001953125,96.17900085449219 103.25700378417969,95.48400115966797 C103.25700378417969,95.48400115966797 120.88899993896484,91.68900299072266 120.88899993896484,91.68900299072266 C123.56099700927734,91.06099700927734 125.57499694824219,88.86000061035156 125.96299743652344,86.14299774169922 C125.96299743652344,86.14299774169922 127.16300201416016,77.7490005493164 127.16300201416016,77.7490005493164 C127.51000213623047,75.322998046875 126.49800109863281,72.90299987792969 124.52799987792969,71.44599914550781 C124.52799987792969,71.44599914550781 93.36199951171875,52.48099899291992 93.36199951171875,52.48099899291992 C93.36199951171875,52.48099899291992 -12.97599983215332,-6.190000057220459 -19.051000595092773,-8.928000450134277z"></path><path stroke-linecap="butt" stroke-linejoin="miter" fill-opacity="0" stroke-miterlimit="10" stroke="rgb(0,22,48)" stroke-opacity="1" stroke-width="1" d=" M-19.051000595092773,-8.928000450134277 C-41.66999816894531,-28.06999969482422 -97.2300033569336,-96.18000030517578 -97.2300033569336,-96.18000030517578 C-106.31099700927734,-75.9739990234375 -127.51000213623047,-74.36900329589844 -127.51000213623047,-74.36900329589844 C-102.2249984741211,-23.983999252319336 -51.67399978637695,6.744999885559082 -46.720001220703125,18.760000228881836 C-28.8700008392334,27.347999572753906 84.49299621582031,70.60600280761719 84.49299621582031,70.60600280761719 C84.49299621582031,70.60600280761719 95.83499908447266,92.1050033569336 95.83499908447266,92.1050033569336 C97.25199890136719,94.79000091552734 100.302001953125,96.17900085449219 103.25700378417969,95.48400115966797 C103.25700378417969,95.48400115966797 120.88899993896484,91.68900299072266 120.88899993896484,91.68900299072266 C123.56099700927734,91.06099700927734 125.57499694824219,88.86000061035156 125.96299743652344,86.14299774169922 C125.96299743652344,86.14299774169922 127.16300201416016,77.7490005493164 127.16300201416016,77.7490005493164 C127.51000213623047,75.322998046875 126.49800109863281,72.90299987792969 124.52799987792969,71.44599914550781 C124.52799987792969,71.44599914550781 93.36199951171875,52.48099899291992 93.36199951171875,52.48099899291992 C93.36199951171875,52.48099899291992 -12.97599983215332,-6.190000057220459 -19.051000595092773,-8.928000450134277z"></path></g><g opacity="1" transform="matrix(1,0,0,1,442.7799987792969,152.52699279785156)"><path fill="rgb(0,22,48)" fill-opacity="1" d=" M1.437999963760376,3.134999990463257 C-1.5390000343322754,2.4089999198913574 -4.835999965667725,0.5609999895095825 -5.901000022888184,-2.4549999237060547 C-5.968999862670898,-2.640000104904175 -5.855000019073486,-2.8940000534057617 -5.669000148773193,-2.9630000591278076 C-3.056999921798706,-2.052000045776367 -0.6790000200271606,-1.934999942779541 1.6549999713897705,-2.632999897003174 C5.968999862670898,-4.2779998779296875 4.425000190734863,-1.2089999914169312 4.2779998779296875,0.9800000190734863 C4.1539998054504395,2.819000005722046 4.065000057220459,4.2779998779296875 1.437999963760376,3.134999990463257z"></path></g><g opacity="1" transform="matrix(1,0,0,1,489.39801025390625,709.8070068359375)"><path fill="rgb(0,22,48)" fill-opacity="1" d=" M-39.71799850463867,-9.975000381469727 C-39.71799850463867,-9.975000381469727 -41.62799835205078,-5.676000118255615 -41.62799835205078,-5.676000118255615 C-44.02899932861328,-0.27000001072883606 -44.84299850463867,5.706999778747559 -43.9739990234375,11.559000015258789 C-43.9739990234375,11.559000015258789 43.715999603271484,20.510000228881836 43.715999603271484,20.510000228881836 C43.715999603271484,20.510000228881836 44.409000396728516,16.694000244140625 44.409000396728516,16.694000244140625 C44.750999450683594,14.803000450134277 44.84400177001953,12.85200023651123 44.448001861572266,10.972000122070312 C43.33000183105469,5.663000106811523 39.422000885009766,1.2309999465942383 34.05500030517578,-0.4320000112056732 C34.05500030517578,-0.4320000112056732 13.621999740600586,-6.764999866485596 13.621999740600586,-6.764999866485596 C13.621999740600586,-6.764999866485596 -4.408999919891357,-20.510000228881836 -4.408999919891357,-20.510000228881836 C-8.083999633789062,-14.159000396728516 -14.838000297546387,-10.218999862670898 -22.176000595092773,-10.147000312805176 C-22.176000595092773,-10.147000312805176 -39.71799850463867,-9.975000381469727 -39.71799850463867,-9.975000381469727z"></path></g></g><g transform="matrix(1,0,0,1,0,0)" opacity="1" style="display: block;"><g opacity="1" transform="matrix(1,0,0,1,291.7409973144531,120.96099853515625)"><path fill="rgb(0,22,48)" fill-opacity="1" d=" M160.0659942626953,-56.80099868774414 C155.6179962158203,-65.77100372314453 146.96031188964844,-81.52947998046875 114.20130920410156,-80.20747375488281 C85.99031066894531,-79.05847930908203 70.5719985961914,-65.2969970703125 54.94599914550781,-54.2859992980957 C41.16899871826172,-44.61600112915039 18.714353561401367,-48.08547592163086 1.0753544569015503,-51.2254753112793 C-17.13864517211914,-54.452476501464844 -37.144508361816406,-48.16160202026367 -59.42750549316406,-33.94560241699219 C-83.08350372314453,-18.858600616455078 -92.19669342041016,-15.90809154510498 -119.84769439697266,-17.804092407226562 C-161.3386993408203,-20.62809181213379 -165.68499755859375,31.80699920654297 -148.39599609375,52.233001708984375 C-130.71299743652344,73.14199829101562 -92.49202728271484,73.08221435546875 -65.57102966308594,54.155216217041016 C-43.37002944946289,38.55121612548828 2.048246383666992,48.96306228637695 25.63124656677246,57.28206253051758 C64.34624481201172,70.94805908203125 93.53011322021484,60.581260681152344 113.52999877929688,38.386627197265625 C118.92426300048828,32.657588958740234 118.30899810791016,16.222625732421875 112.4229965209961,12.547625541687012 C105.84400177001953,8.422625541687012 103.14900207519531,0.27399998903274536 108.18299865722656,-5.276000022888184 C114.8239974975586,-12.630999565124512 123.55599975585938,-2.1449999809265137 125.66699981689453,-4.835999965667725 C129.03900146484375,-9.065999984741211 133.9486541748047,-9.256839752197266 147.6580047607422,-17.96299934387207 C162.85675048828125,-27.805721282958984 165.68499755859375,-45.472999572753906 160.06199645996094,-56.8380012512207 C160.06199645996094,-56.8380012512207 160.0659942626953,-56.80099868774414 160.0659942626953,-56.80099868774414z"></path></g></g><g transform="matrix(1,0,0,1,450,450)" opacity="1" style="display: block;"><g opacity="1" transform="matrix(0.8384472131729126,-0.20886185765266418,0.2541188597679138,1.020125150680542,-43.69599914550781,-324.0830078125)"><path fill="rgb(255,255,255)" fill-opacity="1" d=" M0,-9.661999702453613 C5.332457542419434,-9.661999702453613 9.661999702453613,-5.332457542419434 9.661999702453613,0 C9.661999702453613,5.332457542419434 5.332457542419434,9.661999702453613 0,9.661999702453613 C-5.332457542419434,9.661999702453613 -9.661999702453613,5.332457542419434 -9.661999702453613,0 C-9.661999702453613,-5.332457542419434 -5.332457542419434,-9.661999702453613 0,-9.661999702453613z"></path></g></g></g></svg>