<svg width="170" height="30" viewBox="0 0 170 30" fill="none" xmlns="http://www.w3.org/2000/svg">
<path d="M15 0L19.188 9.23575L29.2658 10.3647L21.7763 17.2017L23.8168 27.1353L15 22.125L6.18322 27.1353L8.22372 17.2017L0.734152 10.3647L10.812 9.23575L15 0Z" fill="#3693FF"/>
<path d="M50 0L54.188 9.23575L64.2658 10.3647L56.7763 17.2017L58.8168 27.1353L50 22.125L41.1832 27.1353L43.2237 17.2017L35.7342 10.3647L45.812 9.23575L50 0Z" fill="#3693FF"/>
<path d="M85 0L89.188 9.23575L99.2658 10.3647L91.7763 17.2017L93.8168 27.1353L85 22.125L76.1832 27.1353L78.2237 17.2017L70.7342 10.3647L80.812 9.23575L85 0Z" fill="#3693FF"/>
<path d="M120 0L124.188 9.23575L134.266 10.3647L126.776 17.2017L128.817 27.1353L120 22.125L111.183 27.1353L113.224 17.2017L105.734 10.3647L115.812 9.23575L120 0Z" fill="#3693FF"/>
<path d="M155 0L159.188 9.23575L169.266 10.3647L161.776 17.2017L163.817 27.1353L155 22.125L146.183 27.1353L148.224 17.2017L140.734 10.3647L150.812 9.23575L155 0Z" fill="#3693FF"/>
</svg>
