<svg width="128" height="128" viewBox="0 0 128 128" fill="none" xmlns="http://www.w3.org/2000/svg">
<path d="M117.733 40.6889H109.329C102.44 21.6756 84.3911 9 64 9C43.6089 9 25.56 21.6756 18.6711 40.6889H10.2667C5.72 40.6889 2 44.4089 2 48.9556V65.4889C2 70.0356 5.72 73.7556 10.2667 73.7556H20.6C21.4267 73.7556 22.2533 73.3422 22.8044 72.6533C23.3556 71.9644 23.4933 71 23.2178 70.1733C21.84 66.04 21.1511 61.6311 21.1511 57.2222C21.1511 52.8133 21.84 48.4044 23.2178 44.2711C29.0044 26.4978 45.2622 14.5111 64 14.5111C82.7378 14.5111 98.9956 26.4978 104.644 44.2711C106.022 48.4044 106.711 52.8133 106.711 57.2222C106.711 61.6311 106.022 66.04 104.644 70.1733C98.9956 87.9467 82.7378 99.9333 64 99.9333H43.3333C37.96 99.9333 33.6889 104.204 33.6889 109.578C33.6889 114.951 37.96 119.222 43.3333 119.222H57.1111C62.4844 119.222 66.7556 114.951 66.7556 109.578V105.307C86.0444 104.204 102.716 91.9422 109.329 73.7556H117.733C122.28 73.7556 126 70.0356 126 65.4889V48.9556C126 44.4089 122.28 40.6889 117.733 40.6889ZM17.0178 68.2444H10.2667C8.75111 68.2444 7.51111 67.0044 7.51111 65.4889V48.9556C7.51111 47.44 8.75111 46.2 10.2667 46.2H17.0178C16.1911 49.7822 15.7778 53.5022 15.7778 57.2222C15.7778 60.9422 16.1911 64.6622 17.0178 68.2444ZM61.2444 109.578C61.2444 111.92 59.4533 113.711 57.1111 113.711H43.3333C40.9911 113.711 39.2 111.92 39.2 109.578C39.2 107.236 40.9911 105.444 43.3333 105.444H61.2444V109.578ZM120.489 65.4889C120.489 67.0044 119.249 68.2444 117.733 68.2444H110.982C111.809 64.6622 112.222 60.9422 112.222 57.2222C112.222 53.5022 111.809 49.7822 110.982 46.2H117.733C119.249 46.2 120.489 47.44 120.489 48.9556V65.4889ZM98.4445 57.2222C98.4445 38.2089 83.0133 22.7778 64 22.7778C44.9867 22.7778 29.5556 38.2089 29.5556 57.2222C29.5556 65.4889 32.4489 73.3422 37.8222 79.5422L30.3822 86.9822C29.5556 87.8089 29.4178 88.9111 29.8311 90.0133C30.2444 90.9778 31.2089 91.6667 32.3111 91.6667H64C83.0133 91.6667 98.4445 76.2355 98.4445 57.2222ZM43.6089 77.6133C38.0978 72.1022 35.0667 64.9378 35.0667 57.2222C35.0667 41.24 48.0178 28.2889 64 28.2889C79.9822 28.2889 92.9333 41.24 92.9333 57.2222C92.9333 73.2044 79.9822 86.1555 64 86.1555H38.9244L43.4711 81.6089C44.5733 80.5067 44.5733 78.7156 43.6089 77.6133ZM61.2444 57.2222C61.2444 55.7067 62.4844 54.4667 64 54.4667C65.5156 54.4667 66.7556 55.7067 66.7556 57.2222C66.7556 58.7378 65.5156 59.9778 64 59.9778C62.4844 59.9778 61.2444 58.7378 61.2444 57.2222ZM75.0222 57.2222C75.0222 55.7067 76.2622 54.4667 77.7778 54.4667C79.2933 54.4667 80.5333 55.7067 80.5333 57.2222C80.5333 58.7378 79.2933 59.9778 77.7778 59.9778C76.2622 59.9778 75.0222 58.7378 75.0222 57.2222ZM47.4667 57.2222C47.4667 55.7067 48.7067 54.4667 50.2222 54.4667C51.7378 54.4667 52.9778 55.7067 52.9778 57.2222C52.9778 58.7378 51.7378 59.9778 50.2222 59.9778C48.7067 59.9778 47.4667 58.7378 47.4667 57.2222Z" fill="#3693FF"/>
</svg>
